<?xml version="1.0" encoding="UTF-8"?><svg id="Layer_1" xmlns="http://www.w3.org/2000/svg" width="128.8" height="99.2" xmlns:xlink="http://www.w3.org/1999/xlink" viewBox="0 0 128.8 99.2"><defs><clipPath id="clippath"><rect x="5.1" y="78.7" width="118.7" height="17.6" fill="none" stroke-width="0"/></clipPath><clipPath id="clippath-1"><rect x="56.7" y="45.8" width="18.1" height="3.8" rx=".7" ry=".7" fill="none" stroke-width="0"/></clipPath><clipPath id="clippath-2"><path d="M58.2,49.7h1.1v.4s0,0,0,0h-.9s0,0,0,0v-.4h0Z" fill="none" stroke-width="0"/></clipPath><clipPath id="clippath-3"><path d="M61,49.7h1.1v.4s0,0,0,0h-.9s0,0,0,0v-.4h0Z" fill="none" stroke-width="0"/></clipPath><clipPath id="clippath-4"><path d="M63.7,49.7h1.1v.4s0,0,0,0h-.9s0,0,0,0v-.4h0Z" fill="none" stroke-width="0"/></clipPath><clipPath id="clippath-5"><path d="M66.5,49.7h1.1v.4s0,0,0,0h-.9s0,0,0,0v-.4h0Z" fill="none" stroke-width="0"/></clipPath><clipPath id="clippath-6"><path d="M69.3,49.7h1.1v.4s0,0,0,0h-.9s0,0,0,0v-.4h0Z" fill="none" stroke-width="0"/></clipPath><clipPath id="clippath-7"><path d="M72,49.7h1.1v.4s0,0,0,0h-.9s0,0,0,0v-.4h0Z" fill="none" stroke-width="0"/></clipPath><clipPath id="clippath-8"><rect x="56.7" y="40.1" width="18.1" height="3.8" rx=".7" ry=".7" fill="none" stroke-width="0"/></clipPath><clipPath id="clippath-9"><path d="M58.3,39.7h.9s0,0,0,0v.4h-1.1v-.4s0,0,0,0Z" fill="none" stroke-width="0"/></clipPath><clipPath id="clippath-10"><path d="M61,39.7h.9s0,0,0,0v.4h-1.1v-.4s0,0,0,0Z" fill="none" stroke-width="0"/></clipPath><clipPath id="clippath-11"><path d="M63.8,39.7h.9s0,0,0,0v.4h-1.1v-.4s0,0,0,0Z" fill="none" stroke-width="0"/></clipPath><clipPath id="clippath-12"><path d="M66.6,39.7h.9s0,0,0,0v.4h-1.1v-.4s0,0,0,0Z" fill="none" stroke-width="0"/></clipPath><clipPath id="clippath-13"><path d="M69.3,39.7h.9s0,0,0,0v.4h-1.1v-.4s0,0,0,0Z" fill="none" stroke-width="0"/></clipPath><clipPath id="clippath-14"><path d="M72.1,39.7h.9s0,0,0,0v.4h-1.1v-.4s0,0,0,0Z" fill="none" stroke-width="0"/></clipPath><clipPath id="clippath-15"><rect x="15.7" y="45.8" width="18.1" height="3.8" rx=".7" ry=".7" fill="none" stroke-width="0"/></clipPath><clipPath id="clippath-16"><path d="M17.2,49.7h1.1v.4s0,0,0,0h-.9s0,0,0,0v-.4h0Z" fill="none" stroke-width="0"/></clipPath><clipPath id="clippath-17"><path d="M19.9,49.7h1.1v.4s0,0,0,0h-.9s0,0,0,0v-.4h0Z" fill="none" stroke-width="0"/></clipPath><clipPath id="clippath-18"><path d="M22.7,49.7h1.1v.4s0,0,0,0h-.9s0,0,0,0v-.4h0Z" fill="none" stroke-width="0"/></clipPath><clipPath id="clippath-19"><path d="M25.5,49.7h1.1v.4s0,0,0,0h-.9s0,0,0,0v-.4h0Z" fill="none" stroke-width="0"/></clipPath><clipPath id="clippath-20"><path d="M28.2,49.7h1.1v.4s0,0,0,0h-.9s0,0,0,0v-.4h0Z" fill="none" stroke-width="0"/></clipPath><clipPath id="clippath-21"><path d="M31,49.7h1.1v.4s0,0,0,0h-.9s0,0,0,0v-.4h0Z" fill="none" stroke-width="0"/></clipPath><clipPath id="clippath-22"><rect x="15.7" y="40.1" width="18.1" height="3.8" rx=".7" ry=".7" fill="none" stroke-width="0"/></clipPath><clipPath id="clippath-23"><path d="M17.3,39.7h.9s0,0,0,0v.4h-1.1v-.4s0,0,0,0Z" fill="none" stroke-width="0"/></clipPath><clipPath id="clippath-24"><path d="M20,39.7h.9s0,0,0,0v.4h-1.1v-.4s0,0,0,0Z" fill="none" stroke-width="0"/></clipPath><clipPath id="clippath-25"><path d="M22.8,39.7h.9s0,0,0,0v.4h-1.1v-.4s0,0,0,0Z" fill="none" stroke-width="0"/></clipPath><clipPath id="clippath-26"><path d="M25.6,39.7h.9s0,0,0,0v.4h-1.1v-.4s0,0,0,0Z" fill="none" stroke-width="0"/></clipPath><clipPath id="clippath-27"><path d="M28.3,39.7h.9s0,0,0,0v.4h-1.1v-.4s0,0,0,0Z" fill="none" stroke-width="0"/></clipPath><clipPath id="clippath-28"><path d="M31.1,39.7h.9s0,0,0,0v.4h-1.1v-.4s0,0,0,0Z" fill="none" stroke-width="0"/></clipPath><clipPath id="clippath-29"><rect x="97.8" y="45.8" width="18.1" height="3.8" rx=".7" ry=".7" fill="none" stroke-width="0"/></clipPath><clipPath id="clippath-30"><path d="M99.3,49.7h1.1v.4s0,0,0,0h-.9s0,0,0,0v-.4h0Z" fill="none" stroke-width="0"/></clipPath><clipPath id="clippath-31"><path d="M102.1,49.7h1.1v.4s0,0,0,0h-.9s0,0,0,0v-.4h0Z" fill="none" stroke-width="0"/></clipPath><clipPath id="clippath-32"><path d="M104.8,49.7h1.1v.4s0,0,0,0h-.9s0,0,0,0v-.4h0Z" fill="none" stroke-width="0"/></clipPath><clipPath id="clippath-33"><path d="M107.6,49.7h1.1v.4s0,0,0,0h-.9s0,0,0,0v-.4h0Z" fill="none" stroke-width="0"/></clipPath><clipPath id="clippath-34"><path d="M110.4,49.7h1.1v.4s0,0,0,0h-.9s0,0,0,0v-.4h0Z" fill="none" stroke-width="0"/></clipPath><clipPath id="clippath-35"><path d="M113.1,49.7h1.1v.4s0,0,0,0h-.9s0,0,0,0v-.4h0Z" fill="none" stroke-width="0"/></clipPath><clipPath id="clippath-36"><rect x="97.8" y="40.1" width="18.1" height="3.8" rx=".7" ry=".7" fill="none" stroke-width="0"/></clipPath><clipPath id="clippath-37"><path d="M99.4,39.7h.9s0,0,0,0v.4h-1.1v-.4s0,0,0,0Z" fill="none" stroke-width="0"/></clipPath><clipPath id="clippath-38"><path d="M102.1,39.7h.9s0,0,0,0v.4h-1.1v-.4s0,0,0,0Z" fill="none" stroke-width="0"/></clipPath><clipPath id="clippath-39"><path d="M104.9,39.7h.9s0,0,0,0v.4h-1.1v-.4s0,0,0,0Z" fill="none" stroke-width="0"/></clipPath><clipPath id="clippath-40"><path d="M107.7,39.7h.9s0,0,0,0v.4h-1.1v-.4s0,0,0,0Z" fill="none" stroke-width="0"/></clipPath><clipPath id="clippath-41"><path d="M110.4,39.7h.9s0,0,0,0v.4h-1.1v-.4s0,0,0,0Z" fill="none" stroke-width="0"/></clipPath><clipPath id="clippath-42"><path d="M113.2,39.7h.9s0,0,0,0v.4h-1.1v-.4s0,0,0,0Z" fill="none" stroke-width="0"/></clipPath><clipPath id="clippath-43"><rect x="56.7" y="4.1" width="18.1" height="3.8" rx=".7" ry=".7" fill="none" stroke-width="0"/></clipPath><clipPath id="clippath-44"><path d="M58.2,8h1.1v.4s0,0,0,0h-.9s0,0,0,0v-.4h0Z" fill="none" stroke-width="0"/></clipPath><clipPath id="clippath-45"><path d="M61,8h1.1v.4s0,0,0,0h-.9s0,0,0,0v-.4h0Z" fill="none" stroke-width="0"/></clipPath><clipPath id="clippath-46"><path d="M63.7,8h1.1v.4s0,0,0,0h-.9s0,0,0,0v-.4h0Z" fill="none" stroke-width="0"/></clipPath><clipPath id="clippath-47"><path d="M66.5,8h1.1v.4s0,0,0,0h-.9s0,0,0,0v-.4h0Z" fill="none" stroke-width="0"/></clipPath><clipPath id="clippath-48"><path d="M69.3,8h1.1v.4s0,0,0,0h-.9s0,0,0,0v-.4h0Z" fill="none" stroke-width="0"/></clipPath><clipPath id="clippath-49"><path d="M72,8h1.1v.4s0,0,0,0h-.9s0,0,0,0v-.4h0Z" fill="none" stroke-width="0"/></clipPath><clipPath id="clippath-50"><rect x="56.7" y="0" width="18.1" height="2.4" rx=".7" ry=".7" fill="none" stroke-width="0"/></clipPath><clipPath id="clippath-51"><rect x="-9.4" y="84.8" width="23.8" height="5.1" rx=".9" ry=".9" transform="translate(89.8 84.8) rotate(90)" fill="none" stroke-width="0"/></clipPath><clipPath id="clippath-52"><rect x="114.3" y="84.8" width="23.8" height="5.1" rx=".9" ry=".9" transform="translate(213.6 -38.9) rotate(90)" fill="none" stroke-width="0"/></clipPath></defs><path d="M73,24.3c0,.1-.1.2-.2.4,0,0,0,.1-.1.2,0,.1-.2.2-.3.4-.1.2-.2.3-.4.5l-1.9-1.9c-.3.4-.6.7-.9.9l1.9,1.9c-.3.3-.7.5-1,.8-.1,0-.2.1-.3.2,0,0-.2,0-.2.1-.1,0-.2.1-.4.2-.4.2-.8.3-1.2.4-.2,0-.4.1-.7.1-.2,0-.4,0-.6,0,0,0-.2,0-.3,0-.2,0-.4,0-.6,0s-.4,0-.6,0c0,0-.2,0-.3,0-.2,0-.4,0-.6,0-.2,0-.4,0-.7-.1-.5-.1-1-.3-1.5-.6-.1,0-.2-.1-.3-.2-.1,0-.2-.1-.3-.2-.4-.2-.7-.5-1-.8l1.9-1.9c-.4-.3-.7-.6-.9-.9l-1.9,1.9c-.1-.2-.3-.3-.4-.5,0-.1-.2-.2-.3-.4,0,0,0-.1-.1-.2,0,0,0,0,0,0,0-.1-.1-.2-.2-.4,0,0,0-.1-.1-.2,0,0,0,0,0,0,0,0,0,0,0,0,0-.1,0-.2-.2-.4v55.1h15.1V23.6c0,.2-.1.3-.2.5,0,0,0,.1-.1.2ZM58.2,1.9v15.1c0-.1.1-.3.2-.4,0,0,0,0,0,0,0,0,0,0,0-.1,0,0,0,0,0,0,0-.2.2-.3.2-.4,0,0,0,0,0,0,0,0,0-.1.1-.2,0-.1.2-.2.3-.4.1-.2.2-.3.4-.5l1.9,2c.3-.4.6-.7.9-.9l-2-2c.3-.3.6-.5,1-.7,1.3-.8,2.8-1.3,4.4-1.3s3.1.5,4.4,1.3c.3.2.7.4,1,.7l-1.9,2c.3.3.7.6.9.9l2-2c.1.2.3.3.4.5,0,.1.2.2.3.4,0,0,0,.1.1.2,0,.1.2.3.2.4,0,0,0,0,0,0,0,.2.2.3.2.5V1.9h-15.1Z" fill="#fff" stroke-width="0"/><path d="M104.4,16.7c-1.4-.9-3-1.7-4.6-2.2h0l-1.5,1.6-.5.5c.3.3.7.6.9.9l.5-.5,1.9-2c1.2,1.4,2,3.3,2,5.4s-.8,3.9-2,5.4l-1.9-1.9-.5-.5c-.3.4-.6.7-.9.9l.5.5,1.9,1.9c-.2.2-.4.3-.6.5-.1,0-.2.2-.4.2,0,0-.1,0-.2.1-.1,0-.3.2-.4.2-.1,0-.2.1-.3.2,0,0-.1,0-.2,0,0,0,0,0,0,0,0,0,0,0,0,0,0,0-.2,0-.2,0-.2,0-.3.1-.5.2-.2,0-.3,0-.5.1.7.4,1.2.9,1.7,1.6.9,1.1,1.4,2.5,1.4,4.1v44.7h14v-44.7c0-7.2-3.7-13.6-9.4-17.3ZM97.8,16.5l-.3.3h0s.3-.3.3-.3h0ZM33.1,22.9s0,0,0,0c0,0,.1-.1.2-.2l-.2.2ZM34.1,16.8s0,0,0,0c0,0,.1.2.2.2l-.2-.2ZM34.4,28.2c-.2,0-.3,0-.5-.2-.1,0-.2,0-.4-.1,0,0-.1,0-.2,0-.1,0-.2-.1-.4-.2-.2-.1-.4-.2-.6-.4-.1,0-.2-.2-.4-.2-.2-.2-.4-.3-.6-.5l1.9-1.9.5-.5c-.3-.3-.7-.6-.9-.9l-.5.5-1.9,1.9c-1.2-1.4-2-3.3-2-5.4s.8-3.9,2-5.4l2.4,2.4c.3-.4.6-.7.9-.9l-.5-.5-1.6-1.6c-1.6.5-3.2,1.3-4.6,2.2-5.7,3.7-9.4,10.1-9.4,17.3v44.7h14v-44.7c0-1.5.5-3,1.4-4.1.5-.6,1.1-1.1,1.7-1.6-.2,0-.3,0-.5-.1ZM91,23.2l-.5.5-1.9,1.9c-1.2-1.4-2-3.3-2-5.4s.8-3.9,2-5.4l2,2,.5.5c.3-.4.6-.7.9-.9l-2.4-2.4c.2-.1.3-.3.5-.4.2-.1.3-.2.5-.3h-20.3c.3.2.7.4,1,.7l-1.9,2c.3.3.7.6.9.9l2-2c.1.2.3.3.4.5,0,.1.2.2.3.4,0,0,0,.1.1.2,0,.1.2.3.2.4,0,0,0,0,0,0,0,.2.2.3.2.5.2.4.3.8.4,1.2,0,.2.1.4.1.7,0,.2,0,.3,0,.5,0,0,0,0,0,0,0,0,0,.2,0,.3,0,.2,0,.4,0,.6s0,.4,0,.6c0,0,0,.2,0,.3,0,0,0,0,0,0,0,.2,0,.4,0,.5,0,.2,0,.4-.1.6,0,.1,0,.3-.1.4,0,.3-.2.5-.3.8,0,.2-.1.3-.2.5,0,0,0,.1-.1.2,0,.1-.1.2-.2.4,0,0,0,.1-.1.2,0,.1-.2.2-.3.4-.1.2-.2.3-.4.5l-1.9-1.9c-.3.4-.6.7-.9.9l1.9,1.9c-.3.3-.7.5-1,.8h20.4c-.4-.2-.7-.5-1-.8l1.9-1.9.5-.5c-.3-.3-.7-.6-.9-.9ZM61.4,23.7l-1.9,1.9c-.1-.2-.3-.3-.4-.5,0-.1-.2-.2-.3-.4,0,0,0-.1-.1-.2,0,0,0,0,0,0,0-.1-.1-.2-.2-.4,0,0,0-.1-.1-.2,0,0,0,0,0,0,0,0,0,0,0,0,0-.1,0-.2-.2-.4-.1-.3-.2-.5-.3-.8,0-.1,0-.3-.1-.4,0-.2-.1-.4-.1-.6,0-.2,0-.3,0-.5,0,0,0,0,0,0,0,0,0-.2,0-.2h0c0-.2,0-.4,0-.6s0-.4,0-.6h0c0-.1,0-.2,0-.3,0,0,0,0,0,0,0-.2,0-.4,0-.5,0-.2,0-.4.1-.7,0,0,0-.1,0-.2,0-.2,0-.3.2-.5,0-.2.1-.3.2-.5,0-.1.1-.3.2-.4,0,0,0,0,0,0,0,0,0,0,0-.1,0,0,0,0,0,0,0-.2.2-.3.2-.4,0,0,0,0,0,0,0,0,0-.1.1-.2,0-.1.2-.2.3-.4.1-.2.2-.3.4-.5l1.9,2c.3-.4.6-.7.9-.9l-2-2c.3-.3.6-.5,1-.7h-20.3c.2.1.3.2.5.3,0,0,0,0,.1,0,.1,0,.2.2.4.3l-2,2-.5.5c.4.3.7.6.9.9l.5-.5,2-2c1.2,1.4,2,3.3,2,5.4s-.8,3.9-2,5.4l-1.9-1.9-.5-.5c-.3.4-.6.7-.9.9l2.4,2.4c-.3.3-.7.5-1,.8h20.4c-.4-.2-.7-.5-1-.8l1.9-1.9c-.4-.3-.7-.6-.9-.9ZM91.3,22.9s0,0,0,0c0,0,.1-.1.2-.2l-.2.2Z" fill="#fff" stroke-width="0"/><g clip-path="url(#clippath)"><rect x="5.1" y="78.7" width="118.7" height="17.6" fill="#fff" stroke-width="0"/></g><path d="M73.3,13.4c0,0,0,0-.1-.1-1.9-2-4.5-3.2-7.4-3.2s-5.6,1.2-7.5,3.2c0,0,0,0,0,.1-1.7,1.8-2.7,4.2-2.7,6.9s1,5.1,2.7,6.9c0,0,0,.1.1.2,1.9,2,4.5,3.2,7.4,3.2s5.5-1.2,7.4-3.2c0,0,0-.1.1-.2,1.7-1.8,2.7-4.2,2.7-6.9s-1-5.1-2.7-6.9ZM74,21.2s0,0,0,0c0,.2,0,.4,0,.5,0,.2,0,.4-.1.6,0,.1,0,.3-.1.4,0,.3-.2.5-.3.8,0,.2-.1.3-.2.5,0,0,0,.1-.1.2,0,.1-.1.2-.2.4,0,0,0,.1-.1.2,0,.1-.2.2-.3.4-.1.2-.2.3-.4.5l-1.9-1.9c-.3.4-.6.7-.9.9l1.9,1.9c-.3.3-.7.5-1,.8-.1,0-.2.1-.3.2,0,0-.2,0-.2.1-.1,0-.2.1-.4.2-.4.2-.8.3-1.2.4-.2,0-.4.1-.7.1-.2,0-.4,0-.6,0,0,0-.2,0-.3,0-.2,0-.4,0-.6,0s-.4,0-.6,0c0,0-.2,0-.3,0-.2,0-.4,0-.6,0-.2,0-.4,0-.7-.1-.5-.1-1-.3-1.5-.6-.1,0-.2-.1-.3-.2-.1,0-.2-.1-.3-.2-.4-.2-.7-.5-1-.8l1.9-1.9c-.4-.3-.7-.6-.9-.9l-1.9,1.9c-.1-.2-.3-.3-.4-.5,0-.1-.2-.2-.3-.4,0,0,0-.1-.1-.2,0,0,0,0,0,0,0-.1-.1-.2-.2-.4,0,0,0-.1-.1-.2,0,0,0,0,0,0,0,0,0,0,0,0,0-.1,0-.2-.2-.4-.1-.3-.2-.5-.3-.8,0-.1,0-.3-.1-.4,0-.2-.1-.4-.1-.6,0-.2,0-.3,0-.5,0,0,0,0,0,0,0,0,0-.2,0-.2h0c0-.2,0-.4,0-.6s0-.4,0-.6h0c0-.1,0-.2,0-.3,0,0,0,0,0,0,0-.2,0-.4,0-.5,0-.2,0-.4.1-.7,0,0,0-.1,0-.2,0-.2,0-.3.2-.5,0-.2.1-.3.2-.5,0-.1.1-.3.2-.4,0,0,0,0,0,0,0,0,0,0,0-.1,0,0,0,0,0,0,0-.2.2-.3.2-.4,0,0,0,0,0,0,0,0,0-.1.1-.2,0-.1.2-.2.3-.4.1-.2.2-.3.4-.5l1.9,2c.3-.4.6-.7.9-.9l-2-2c.3-.3.6-.5,1-.7,1.3-.8,2.8-1.3,4.4-1.3s3.1.5,4.4,1.3c.3.2.7.4,1,.7l-1.9,2c.3.3.7.6.9.9l2-2c.1.2.3.3.4.5,0,.1.2.2.3.4,0,0,0,.1.1.2,0,.1.2.3.2.4,0,0,0,0,0,0,0,.2.2.3.2.5.2.4.3.8.4,1.2,0,.2.1.4.1.7,0,.2,0,.3,0,.5,0,0,0,0,0,0,0,0,0,.2,0,.3,0,.2,0,.4,0,.6s0,.4,0,.6c0,0,0,.2,0,.3Z" fill="#fff" stroke-width="0"/><g clip-path="url(#clippath-1)"><rect x="56.7" y="45.8" width="18.1" height="3.8" fill="#fff" stroke-width="0"/></g><g clip-path="url(#clippath-2)"><rect x="58.2" y="49.7" width="1.1" height=".4" fill="#fff" stroke-width="0"/></g><g clip-path="url(#clippath-3)"><rect x="61" y="49.7" width="1.1" height=".4" fill="#fff" stroke-width="0"/></g><g clip-path="url(#clippath-4)"><rect x="63.7" y="49.7" width="1.1" height=".4" fill="#fff" stroke-width="0"/></g><g clip-path="url(#clippath-5)"><rect x="66.5" y="49.7" width="1.1" height=".4" fill="#fff" stroke-width="0"/></g><g clip-path="url(#clippath-6)"><rect x="69.3" y="49.7" width="1.1" height=".4" fill="#fff" stroke-width="0"/></g><g clip-path="url(#clippath-7)"><rect x="72" y="49.7" width="1.1" height=".4" fill="#fff" stroke-width="0"/></g><g clip-path="url(#clippath-8)"><rect x="56.7" y="40.1" width="18.1" height="3.8" fill="#fff" stroke-width="0"/></g><g clip-path="url(#clippath-9)"><rect x="58.2" y="39.7" width="1.1" height=".4" fill="#fff" stroke-width="0"/></g><g clip-path="url(#clippath-10)"><rect x="61" y="39.7" width="1.1" height=".4" fill="#fff" stroke-width="0"/></g><g clip-path="url(#clippath-11)"><rect x="63.7" y="39.7" width="1.1" height=".4" fill="#fff" stroke-width="0"/></g><g clip-path="url(#clippath-12)"><rect x="66.5" y="39.7" width="1.1" height=".4" fill="#fff" stroke-width="0"/></g><g clip-path="url(#clippath-13)"><rect x="69.3" y="39.7" width="1.1" height=".4" fill="#fff" stroke-width="0"/></g><g clip-path="url(#clippath-14)"><rect x="72" y="39.7" width="1.1" height=".4" fill="#fff" stroke-width="0"/></g><g clip-path="url(#clippath-15)"><rect x="15.7" y="45.8" width="18.1" height="3.8" fill="#fff" stroke-width="0"/></g><g clip-path="url(#clippath-16)"><rect x="17.2" y="49.7" width="1.1" height=".4" fill="#fff" stroke-width="0"/></g><g clip-path="url(#clippath-17)"><rect x="19.9" y="49.7" width="1.1" height=".4" fill="#fff" stroke-width="0"/></g><g clip-path="url(#clippath-18)"><rect x="22.7" y="49.7" width="1.1" height=".4" fill="#fff" stroke-width="0"/></g><g clip-path="url(#clippath-19)"><rect x="25.5" y="49.7" width="1.1" height=".4" fill="#fff" stroke-width="0"/></g><g clip-path="url(#clippath-20)"><rect x="28.2" y="49.7" width="1.1" height=".4" fill="#fff" stroke-width="0"/></g><g clip-path="url(#clippath-21)"><rect x="31" y="49.7" width="1.1" height=".4" fill="#fff" stroke-width="0"/></g><g clip-path="url(#clippath-22)"><rect x="15.7" y="40.1" width="18.1" height="3.8" fill="#fff" stroke-width="0"/></g><g clip-path="url(#clippath-23)"><rect x="17.2" y="39.7" width="1.1" height=".4" fill="#fff" stroke-width="0"/></g><g clip-path="url(#clippath-24)"><rect x="19.9" y="39.7" width="1.1" height=".4" fill="#fff" stroke-width="0"/></g><g clip-path="url(#clippath-25)"><rect x="22.7" y="39.7" width="1.1" height=".4" fill="#fff" stroke-width="0"/></g><g clip-path="url(#clippath-26)"><rect x="25.5" y="39.7" width="1.1" height=".4" fill="#fff" stroke-width="0"/></g><g clip-path="url(#clippath-27)"><rect x="28.2" y="39.7" width="1.1" height=".4" fill="#fff" stroke-width="0"/></g><g clip-path="url(#clippath-28)"><rect x="31" y="39.7" width="1.1" height=".4" fill="#fff" stroke-width="0"/></g><g clip-path="url(#clippath-29)"><rect x="97.8" y="45.8" width="18.1" height="3.8" fill="#fff" stroke-width="0"/></g><g clip-path="url(#clippath-30)"><rect x="99.3" y="49.7" width="1.1" height=".4" fill="#fff" stroke-width="0"/></g><g clip-path="url(#clippath-31)"><rect x="102.1" y="49.7" width="1.1" height=".4" fill="#fff" stroke-width="0"/></g><g clip-path="url(#clippath-32)"><rect x="104.8" y="49.7" width="1.1" height=".4" fill="#fff" stroke-width="0"/></g><g clip-path="url(#clippath-33)"><rect x="107.6" y="49.7" width="1.1" height=".4" fill="#fff" stroke-width="0"/></g><g clip-path="url(#clippath-34)"><rect x="110.4" y="49.7" width="1.1" height=".4" fill="#fff" stroke-width="0"/></g><g clip-path="url(#clippath-35)"><rect x="113.1" y="49.7" width="1.1" height=".4" fill="#fff" stroke-width="0"/></g><g clip-path="url(#clippath-36)"><rect x="97.8" y="40.1" width="18.1" height="3.8" fill="#fff" stroke-width="0"/></g><g clip-path="url(#clippath-37)"><rect x="99.3" y="39.7" width="1.1" height=".4" fill="#fff" stroke-width="0"/></g><g clip-path="url(#clippath-38)"><rect x="102.1" y="39.7" width="1.1" height=".4" fill="#fff" stroke-width="0"/></g><g clip-path="url(#clippath-39)"><rect x="104.8" y="39.7" width="1.1" height=".4" fill="#fff" stroke-width="0"/></g><g clip-path="url(#clippath-40)"><rect x="107.6" y="39.7" width="1.1" height=".4" fill="#fff" stroke-width="0"/></g><g clip-path="url(#clippath-41)"><rect x="110.4" y="39.7" width="1.1" height=".4" fill="#fff" stroke-width="0"/></g><g clip-path="url(#clippath-42)"><rect x="113.1" y="39.7" width="1.1" height=".4" fill="#fff" stroke-width="0"/></g><g clip-path="url(#clippath-43)"><rect x="56.7" y="4.1" width="18.1" height="3.8" fill="#fff" stroke-width="0"/></g><g clip-path="url(#clippath-44)"><rect x="58.2" y="8" width="1.1" height=".4" fill="#fff" stroke-width="0"/></g><g clip-path="url(#clippath-45)"><rect x="61" y="8" width="1.1" height=".4" fill="#fff" stroke-width="0"/></g><g clip-path="url(#clippath-46)"><rect x="63.7" y="8" width="1.1" height=".4" fill="#fff" stroke-width="0"/></g><g clip-path="url(#clippath-47)"><rect x="66.5" y="8" width="1.1" height=".4" fill="#fff" stroke-width="0"/></g><g clip-path="url(#clippath-48)"><rect x="69.3" y="8" width="1.1" height=".4" fill="#fff" stroke-width="0"/></g><g clip-path="url(#clippath-49)"><rect x="72" y="8" width="1.1" height=".4" fill="#fff" stroke-width="0"/></g><g clip-path="url(#clippath-50)"><rect x="56.7" y="0" width="18.1" height="2.4" fill="#fff" stroke-width="0"/></g><g clip-path="url(#clippath-51)"><rect y="75.4" width="5.1" height="23.8" fill="#fff" stroke-width="0"/></g><g clip-path="url(#clippath-52)"><rect x="123.7" y="75.4" width="5.1" height="23.8" fill="#fff" stroke-width="0"/></g><path d="M34.8,17c.2-.1.3-.4.2-.7-.1-.2-.3-.3-.6-.2,0,0-.1,0-.2,0-.2.2-.2.4-.1.6l.2.2c.1,0,.3,0,.5,0Z" fill="none" stroke-width="0"/><path d="M39.6,16.5l-.3.3c.1-.2,0-.4-.1-.6,0,0-.1,0-.2,0-.2,0-.4,0-.6.2-.1.2,0,.5.2.7.2,0,.3,0,.5,0l-2.1,2.1c-.2,0-.4,0-.6,0l-2.1-2.1c0,0-.2-.1-.2-.2,0,0,0,0,0,0l-.3-.3c-.4.3-.7.6-.9.9l.3.3c-.2-.1-.5,0-.6.1,0,0,0,.1-.1.2,0,.2,0,.5.2.6.2.1.5,0,.7-.2,0-.2,0-.3,0-.5l2.1,2.1c0,.2,0,.4,0,.6l-2.1,2.1c0-.1,0-.3,0-.5-.1-.2-.4-.3-.7-.2-.2.1-.3.3-.2.6,0,0,0,.1.1.2.1.2.4.2.6.1l.2-.2c0,0,0,.1-.2.2,0,0,0,0,0,0l-.3.3c.3.4.6.7.9.9l.3-.3c-.1.2,0,.5.1.6,0,0,.1,0,.2.1.2,0,.4,0,.6-.2.1-.2,0-.5-.2-.7-.2,0-.3,0-.5,0l2.1-2.1c.2,0,.4,0,.6,0l2.2,2.2c-.1-.1-.4-.2-.6,0-.2.1-.3.4-.2.7.1.2.3.3.6.2,0,0,.1,0,.2-.1.2-.1.2-.4.1-.6,0,0,0,0,0,0l.4.4c.4-.3.7-.6.9-.9l-.3-.3c.2.1.4,0,.6-.1,0,0,0-.1,0-.2,0-.2,0-.4-.2-.6-.2-.1-.5,0-.7.2,0,.1,0,.3,0,.5l-2.1-2.1c0-.2,0-.4,0-.6l2.2-2.2c-.1.2-.2.4,0,.6.1.2.4.3.7.2.2-.1.3-.3.2-.6,0,0,0-.1,0-.2-.2-.2-.4-.2-.6-.1,0,0,0,0,0,0l.4-.4c-.3-.4-.6-.7-.9-.9Z" fill="none" stroke-width="0"/><path d="M37.2,24.7c0-.3-.2-.5-.5-.5s-.5.2-.5.5.2.5.5.5.5-.2.5-.5Z" fill="none" stroke-width="0"/><path d="M33.3,16c.9-.7,2.1-1.2,3.4-1.2s2.5.4,3.4,1.2l2-2c-.1,0-.2-.2-.4-.3,0,0,0,0-.1,0-.2-.1-.3-.2-.5-.3-.1,0-.3-.2-.4-.3,0,0,0,0-.1,0,0,0-.1,0-.2,0,0,0-.1,0-.2,0,0,0,0,0,0,0h-.1c0,0,0,0,0,0-.2,0-.3-.1-.5-.2s-.2,0-.3-.1c-.1,0-.2,0-.4-.1-.2,0-.4,0-.5-.1-.2,0-.4,0-.6,0h0c0,0-.1,0-.2,0-.2,0-.4,0-.7,0-2,0-3.9.8-5.3,2l.4.4,1.6,1.6Z" fill="none" stroke-width="0"/><path d="M32.3,20.8c.3,0,.5-.2.5-.5s-.2-.5-.5-.5-.5.2-.5.5.2.5.5.5Z" fill="none" stroke-width="0"/><path d="M41.1,19.8c-.3,0-.5.2-.5.5s.2.5.5.5.5-.2.5-.5-.2-.5-.5-.5Z" fill="none" stroke-width="0"/><path d="M43,15l-2,2c.7.9,1.2,2.1,1.2,3.4s-.4,2.5-1.2,3.4l1.9,1.9c1.2-1.4,2-3.3,2-5.4s-.8-3.9-2-5.4Z" fill="none" stroke-width="0"/><path d="M36.2,15.9c0,.3.2.5.5.5s.5-.2.5-.5-.2-.5-.5-.5-.5.2-.5.5Z" fill="none" stroke-width="0"/><path d="M36.7,25.8c-1.3,0-2.5-.4-3.4-1.2l-1.9,1.9c.2.2.4.3.6.5.1,0,.2.2.4.2.2.1.4.2.6.4.1,0,.2.1.4.2,0,0,.1,0,.2,0,.1,0,.2.1.4.1.2,0,.3.1.5.2.2,0,.3,0,.5.1.1,0,.3,0,.4,0,.2,0,.3,0,.5,0,0,0,.2,0,.2,0,.2,0,.4,0,.6,0s.4,0,.6,0c0,0,.2,0,.3,0,.2,0,.4,0,.6,0,.2,0,.4,0,.7-.1.4-.1.8-.3,1.2-.4.1,0,.2-.1.4-.2,0,0,.2,0,.2-.1.1,0,.2-.1.3-.2.4-.2.7-.5,1-.8l-1.9-1.9c-.9.7-2.1,1.2-3.4,1.2Z" fill="none" stroke-width="0"/><path d="M31.2,20.3c0-1.3.4-2.5,1.2-3.4h0l-2-2c-1.2,1.4-2,3.3-2,5.4s.8,3.9,2,5.4l1.9-1.9c-.7-.9-1.2-2.1-1.2-3.4Z" fill="none" stroke-width="0"/><path d="M34.3,17l-.2-.2s0,0,0,0c0,0,.1.2.2.2Z" fill="#fff" stroke-width="0"/><path d="M33.3,22.7l-.2.2s0,0,0,0c0,0,.1-.1.2-.2Z" fill="#fff" stroke-width="0"/><path d="M44.1,13.3c-1.9-2-4.5-3.2-7.4-3.2-4.4,0-8.1,2.7-9.5,6.6-.4,1.1-.7,2.3-.7,3.6,0,4.4,2.8,8.2,6.7,9.6,1.1.4,2.3.6,3.5.6,2.9,0,5.5-1.2,7.4-3.2,1.8-1.8,2.8-4.3,2.8-7s-1.1-5.2-2.8-7ZM36.7,12c.2,0,.4,0,.7,0,0,0,.1,0,.2,0h0c.2,0,.4,0,.6,0,.2,0,.4,0,.5.1.1,0,.2,0,.4.1.1,0,.2,0,.3.1.2,0,.4.1.5.2,0,0,0,0,0,0h.1c0,0,0,0,0,0,0,0,.1,0,.2,0,0,0,.1,0,.2,0,0,0,0,0,.1,0,.2,0,.3.2.4.3.2.1.3.2.5.3,0,0,0,0,.1,0,.1,0,.2.2.4.3l-2,2c-.9-.7-2.1-1.2-3.4-1.2s-2.5.4-3.4,1.2l-1.6-1.6-.4-.4c1.4-1.2,3.3-2,5.3-2ZM40.2,17.7c.2-.1.5,0,.6.1,0,0,0,.1,0,.2,0,.2,0,.5-.2.6-.2.1-.5,0-.7-.2,0-.2,0-.4,0-.6l-2.2,2.2c0,.2,0,.4,0,.6l2.1,2.1c0-.1,0-.3,0-.5.1-.2.4-.3.7-.2.2.1.3.3.2.6,0,0,0,.1,0,.2-.2.2-.4.2-.6.1l.3.3c-.3.4-.6.7-.9.9l-.4-.4s0,0,0,0c.1.2,0,.5-.1.6,0,0-.1,0-.2.1-.2,0-.4,0-.6-.2-.1-.2,0-.5.2-.7.2-.1.4,0,.6,0l-2.2-2.2c-.2,0-.4,0-.6,0l-2.1,2.1c.2,0,.3,0,.5,0,.2.1.3.4.2.7-.1.2-.3.3-.6.2,0,0-.1,0-.2-.1-.2-.1-.2-.4-.1-.6l-.3.3c-.3-.3-.7-.6-.9-.9l.3-.3c-.2,0-.4,0-.6-.1,0,0,0-.1-.1-.2,0-.2,0-.4.2-.6.2-.1.5,0,.7.2,0,.1,0,.3,0,.5l2.1-2.1c0-.2,0-.4,0-.6l-2.1-2.1c0,.1,0,.3,0,.5-.1.2-.4.3-.7.2-.2-.1-.3-.3-.2-.6,0,0,0-.1.1-.2.1-.2.4-.2.6-.1l-.3-.3c.3-.4.6-.7.9-.9l.3.3c-.1-.2,0-.4.1-.6,0,0,.1,0,.2,0,.2,0,.4,0,.6.2.1.2,0,.5-.2.7-.1,0-.3,0-.5,0l2.1,2.1c.2,0,.4,0,.6,0l2.1-2.1c-.1,0-.3,0-.5,0-.2-.1-.3-.4-.2-.7.1-.2.3-.3.6-.2,0,0,.1,0,.2,0,.2.2.2.4.1.6l.3-.3c.4.3.7.6.9.9l-.4.4s0,0,0,0ZM41.1,20.8c-.3,0-.5-.2-.5-.5s.2-.5.5-.5.5.2.5.5-.2.5-.5.5ZM36.2,24.7c0-.3.2-.5.5-.5s.5.2.5.5-.2.5-.5.5-.5-.2-.5-.5ZM32.3,19.8c.3,0,.5.2.5.5s-.2.5-.5.5-.5-.2-.5-.5.2-.5.5-.5ZM37.2,15.9c0,.3-.2.5-.5.5s-.5-.2-.5-.5.2-.5.5-.5.5.2.5.5ZM28.4,20.3c0-2,.8-3.9,2-5.4l2,2h0c-.7.9-1.2,2.1-1.2,3.4s.4,2.5,1.2,3.4l-1.9,1.9c-1.2-1.4-2-3.3-2-5.4ZM41,27.3c-.1,0-.2.1-.3.2,0,0-.2,0-.2.1-.1,0-.2.1-.4.2-.4.2-.8.3-1.2.4-.2,0-.4.1-.7.1-.2,0-.4,0-.6,0,0,0-.2,0-.3,0-.2,0-.4,0-.6,0s-.4,0-.6,0c0,0-.2,0-.2,0-.2,0-.3,0-.5,0-.2,0-.3,0-.4,0-.2,0-.3,0-.5-.1-.2,0-.3,0-.5-.2-.1,0-.2,0-.4-.1,0,0-.1,0-.2,0-.1,0-.2-.1-.4-.2-.2-.1-.4-.2-.6-.4-.1,0-.2-.2-.4-.2-.2-.2-.4-.3-.6-.5l1.9-1.9c.9.7,2.1,1.2,3.4,1.2s2.5-.4,3.4-1.2l1.9,1.9c-.3.3-.7.5-1,.8ZM43,25.7l-1.9-1.9c.7-.9,1.2-2.1,1.2-3.4s-.5-2.5-1.2-3.4l2-2c1.2,1.4,2,3.3,2,5.4s-.8,3.9-2,5.4Z" fill="#fff" stroke-width="0"/><path d="M90.5,20.8c.3,0,.5-.2.5-.5s-.2-.5-.5-.5-.5.2-.5.5.2.5.5.5Z" fill="none" stroke-width="0"/><path d="M95.3,24.7c0-.3-.2-.5-.5-.5s-.5.2-.5.5.2.5.5.5.5-.2.5-.5Z" fill="none" stroke-width="0"/><path d="M97.8,16.5l-.3.3h0c.1-.2,0-.5-.1-.6,0,0,0,0,0,0,0,0,0,0-.1,0,0,0,0,0,0,0,0,0,0,0,.1,0,0,0,0,0,0,0,0,0-.1,0-.2,0-.2,0-.4,0-.6.2-.1.2,0,.5.2.7.2,0,.3,0,.5,0l-2.1,2.1c-.2,0-.4,0-.6,0l-2.1-2.1c.1,0,.3,0,.5,0,.2-.1.3-.4.2-.7-.1-.2-.3-.3-.6-.2,0,0,0,0,0,0,0,0-.1,0-.2,0,0,0,0,0,0,0-.2.2-.2.4-.1.6l-.3-.3c-.4.3-.7.6-.9.9l.3.3c-.2-.1-.5,0-.6.1,0,0,0,0,0,0,0,0,0,0,0,.1,0,0,0,0,0,0,0,.2,0,.5.2.6.2.1.5,0,.7-.2,0-.2,0-.3,0-.5l2.1,2.1c0,.2,0,.4,0,.6l-2.1,2.1c0-.1,0-.3,0-.5-.1-.2-.4-.3-.7-.2-.2.1-.3.3-.2.6,0,0,0,0,0,0,0,0,0,0,0,.1,0,0,0,0,0,0,.1.2.4.2.6.1l.2-.2c0,0-.1.1-.2.2,0,0,0,0,0,0l-.3.3c.3.4.6.7.9.9l.4-.3s0,0,0,0c-.1.2,0,.5.1.6,0,0,0,0,0,0,0,0,.1,0,.2,0,0,0,0,0,0,0,.2,0,.4,0,.6-.2.1-.2,0-.5-.2-.7-.2,0-.4,0-.5,0l2.2-2.2c.2,0,.4,0,.6,0l2.2,2.2c-.2-.1-.4-.2-.6,0-.2.1-.3.4-.2.7.1.2.3.3.6.2,0,0,.1,0,.2-.1,0,0,0,0,0,0,0,0,0,0-.1,0,0,0,0,0,0,0,0,0,0,0,.1,0,0,0,0,0,0,0,.2-.1.2-.4.1-.6,0,0,0,0,0,0l.4.4c.3-.3.7-.6.9-.9l-.3-.3c.2.1.4,0,.6-.1,0,0,0,0,0,0,0,0,0,0,0-.1,0-.2,0-.4-.2-.6-.2-.1-.5,0-.7.2,0,.1,0,.3,0,.5l-2.1-2.1c0-.2,0-.4,0-.6l2.2-2.2c-.1.2-.2.4,0,.6.1.2.4.3.7.2.2-.1.3-.3.2-.6,0,0,0,0,0-.1,0,0,0,0,0,0-.2-.2-.4-.2-.6-.1,0,0,0,0,0,0l.4-.4c-.3-.4-.6-.7-.9-.9ZM99.1,22.6s0,0,0,.1c0,0,0,0,0,0,0,0,0-.1,0-.2ZM99.1,17.9s0,0,0,.1c0,0,0-.1,0-.2,0,0,0,0,0,0Z" fill="none" stroke-width="0"/><path d="M99.2,19.8c-.3,0-.5.2-.5.5s.2.5.5.5.5-.2.5-.5-.2-.5-.5-.5Z" fill="none" stroke-width="0"/><path d="M94.8,14.8c1.3,0,2.5.4,3.4,1.2l1.6-1.6.4-.4c-1.4-1.2-3.3-2-5.3-2s-.4,0-.7,0c0,0-.1,0-.2,0s-.1,0-.2,0c-.2,0-.3,0-.5,0-.1,0-.3,0-.4,0-.1,0-.2,0-.3,0-.1,0-.3,0-.4.1-.1,0-.3,0-.4.1-.1,0-.2.1-.4.2-.1,0-.3.1-.4.2-.2,0-.3.2-.5.3-.2.1-.3.2-.5.3-.2.1-.3.2-.5.4l2,2c.9-.7,2.1-1.2,3.4-1.2Z" fill="none" stroke-width="0"/><path d="M94.8,25.8c-1.3,0-2.5-.4-3.4-1.2l-1.9,1.9c.3.3.7.5,1,.8,0,0,.2.1.3.2.1,0,.2.1.3.2,0,0,.1,0,.2,0,.2,0,.3.2.5.2.3.1.6.2.8.3.2,0,.4.1.7.1.1,0,.3,0,.5,0,0,0,0,0,.1,0,0,0,.2,0,.3,0,.2,0,.4,0,.6,0s.4,0,.6,0c0,0,0,0,0,0,0,0,.1,0,.2,0,.2,0,.3,0,.5,0,.2,0,.3,0,.4,0,.2,0,.3,0,.5-.1.2,0,.3,0,.5-.2,0,0,.2,0,.2,0,0,0,0,0,0,0,0,0,0,0,0,0,0,0,.1,0,.2,0,.1,0,.2-.1.3-.2.2,0,.3-.1.4-.2,0,0,.1,0,.2-.1.1,0,.2-.2.4-.2.2-.2.4-.3.6-.5l-1.9-1.9c-.9.7-2.1,1.2-3.4,1.2Z" fill="none" stroke-width="0"/><path d="M99.2,16.9c.7.9,1.2,2.1,1.2,3.4s-.4,2.5-1.2,3.4l1.9,1.9c1.2-1.4,2-3.3,2-5.4s-.8-3.9-2-5.4l-1.9,2Z" fill="none" stroke-width="0"/><path d="M94.3,15.9c0,.3.2.5.5.5s.5-.2.5-.5-.2-.5-.5-.5-.5.2-.5.5Z" fill="none" stroke-width="0"/><path d="M89.3,20.3c0-1.3.5-2.5,1.2-3.4l-2-2c-1.2,1.4-2,3.3-2,5.4s.8,3.9,2,5.4l1.9-1.9c-.7-.9-1.2-2.1-1.2-3.4Z" fill="none" stroke-width="0"/><path d="M104.4,16.7c-1.5-3.8-5.2-6.6-9.5-6.6s-5.6,1.2-7.5,3.2c-1.7,1.8-2.8,4.3-2.8,7s1.1,5.2,2.8,7c1.9,2,4.5,3.2,7.4,3.2s2.4-.2,3.5-.6c3.9-1.4,6.7-5.2,6.7-9.6s-.2-2.5-.7-3.6ZM90,13.7c.2-.1.3-.2.5-.3.2,0,.3-.2.5-.3.1,0,.3-.1.4-.2.1,0,.2-.1.4-.2.1,0,.3,0,.4-.1.1,0,.3,0,.4-.1.1,0,.2,0,.3,0,.1,0,.3,0,.4,0,.2,0,.3,0,.5,0,0,0,.1,0,.2,0s.1,0,.2,0c.2,0,.4,0,.7,0,2,0,3.9.8,5.3,2l-.4.4-1.6,1.6c-.9-.7-2.1-1.2-3.4-1.2s-2.5.4-3.4,1.2l-2-2c.2-.1.3-.3.5-.4ZM98.4,17.7c.2-.1.5,0,.6.1,0,0,0,0,0,0,0,0,0,0,0,.1,0,.2,0,.5-.2.6-.2.1-.5,0-.7-.2,0-.2,0-.4,0-.6l-2.2,2.2c0,.2,0,.4,0,.6l2.1,2.1c0-.1,0-.3,0-.5.1-.2.4-.3.7-.2.2.1.3.3.2.6,0,0,0,0,0,.1,0,0,0,0,0,0-.2.2-.4.2-.6.1l.3.3c-.3.4-.6.7-.9.9l-.4-.4s0,0,0,0c.1.2,0,.5-.1.6,0,0,0,0,0,0,0,0,0,0-.1,0,0,0,0,0,0,0,0,0,0,0,.1,0,0,0,0,0,0,0,0,0-.1,0-.2.1-.2,0-.4,0-.6-.2-.1-.2,0-.5.2-.7.2-.1.4,0,.6,0l-2.2-2.2c-.2,0-.4,0-.6,0l-2.2,2.2c.2-.1.4-.1.5,0,.2.1.3.4.2.7-.1.2-.3.3-.6.2,0,0,0,0,0,0,0,0-.1,0-.2,0,0,0,0,0,0,0-.2-.1-.2-.4-.1-.6,0,0,0,0,0,0l-.4.3c-.3-.3-.7-.6-.9-.9l.3-.3c-.2,0-.5,0-.6-.1,0,0,0,0,0,0,0,0,0,0,0-.1,0,0,0,0,0,0,0-.2,0-.4.2-.6.2-.1.5,0,.7.2,0,.1,0,.3,0,.5l2.1-2.1c0-.2,0-.4,0-.6l-2.1-2.1c0,.1,0,.3,0,.5-.1.2-.4.3-.7.2-.2-.1-.3-.3-.2-.6,0,0,0,0,0,0,0,0,0,0,0-.1,0,0,0,0,0,0,.1-.2.4-.2.6-.1l-.3-.3c.3-.4.6-.7.9-.9l.3.3c-.1-.2,0-.4.1-.6,0,0,0,0,0,0,0,0,.1,0,.2,0,0,0,0,0,0,0,.2,0,.4,0,.6.2.1.2,0,.5-.2.7-.2,0-.3,0-.5,0l2.1,2.1c.2,0,.4,0,.6,0l2.1-2.1c-.1,0-.3,0-.5,0-.2-.1-.3-.4-.2-.7.1-.2.3-.3.6-.2,0,0,.1,0,.2,0,0,0,0,0,0,0,0,0,0,0-.1,0,0,0,0,0,0,0,0,0,0,0,.1,0,0,0,0,0,0,0,.2.2.2.4.1.6h0s.3-.3.3-.3c.3.3.7.6.9.9l-.4.4s0,0,0,0ZM99.2,20.8c-.3,0-.5-.2-.5-.5s.2-.5.5-.5.5.2.5.5-.2.5-.5.5ZM94.3,24.7c0-.3.2-.5.5-.5s.5.2.5.5-.2.5-.5.5-.5-.2-.5-.5ZM90.5,19.8c.3,0,.5.2.5.5s-.2.5-.5.5-.5-.2-.5-.5.2-.5.5-.5ZM95.3,15.9c0,.3-.2.5-.5.5s-.5-.2-.5-.5.2-.5.5-.5.5.2.5.5ZM86.6,20.3c0-2,.8-3.9,2-5.4l2,2c-.7.9-1.2,2.1-1.2,3.4s.4,2.5,1.2,3.4l-1.9,1.9c-1.2-1.4-2-3.3-2-5.4ZM99.5,27.1c-.1,0-.2.2-.4.2,0,0-.1,0-.2.1-.1,0-.3.2-.4.2-.1,0-.2.1-.3.2,0,0-.1,0-.2,0,0,0,0,0,0,0,0,0,0,0,0,0,0,0-.2,0-.2,0-.2,0-.3.1-.5.2-.2,0-.3,0-.5.1-.1,0-.3,0-.4,0-.2,0-.3,0-.5,0,0,0-.1,0-.2,0,0,0,0,0,0,0-.2,0-.4,0-.6,0s-.4,0-.6,0c0,0-.2,0-.3,0,0,0,0,0-.1,0-.2,0-.3,0-.5,0-.2,0-.4,0-.7-.1-.3,0-.6-.2-.8-.3-.2,0-.3-.1-.5-.2,0,0-.1,0-.2,0-.1,0-.2-.1-.3-.2-.1,0-.2-.1-.3-.2-.4-.2-.7-.5-1-.8l1.9-1.9c.9.7,2.1,1.2,3.4,1.2s2.5-.4,3.4-1.2l1.9,1.9c-.2.2-.4.3-.6.5ZM101.1,25.7l-1.9-1.9c.7-.9,1.2-2.1,1.2-3.4s-.5-2.5-1.2-3.4l1.9-2c1.2,1.4,2,3.3,2,5.4s-.8,3.9-2,5.4Z" fill="#fff" stroke-width="0"/><path d="M91.5,22.7l-.2.2s0,0,0,0c0,0,.1-.1.2-.2Z" fill="#fff" stroke-width="0"/><path d="M99.1,22.6c0,0,0,.1,0,.2,0,0,0,0,0,0,0,0,0,0,0-.1Z" fill="#fff" stroke-width="0"/><path d="M99.1,17.9s0,0,0,0c0,0,0,.1,0,.2,0,0,0,0,0-.1Z" fill="#fff" stroke-width="0"/><path d="M70.1,16.9l-.9.8s0,0,0,0c.2-.1.5,0,.7.2.1.2,0,.5-.2.7-.2.1-.5,0-.7-.2,0-.2,0-.3,0-.5l-2.1,2.1c0,.2,0,.4,0,.6l2.1,2.1c0-.1,0-.3,0-.5.1-.2.4-.3.7-.2.2.1.3.4.2.7-.1.2-.4.3-.7.2l.8.8c.7-.9,1.2-2.1,1.2-3.4s-.5-2.5-1.2-3.4ZM70.1,20.8c-.3,0-.5-.2-.5-.5s.2-.5.5-.5.5.2.5.5-.2.5-.5.5ZM68.4,23.9c.1.2,0,.5-.2.7-.2.1-.5,0-.7-.2-.1-.2,0-.5.2-.7.2-.1.4,0,.6,0l-2.2-2.2c-.2,0-.4,0-.6,0l-2.2,2.2c.2-.1.4-.1.6,0,.2.1.3.4.2.7-.1.2-.4.3-.7.2-.2-.1-.3-.4-.2-.7,0,0,0,0,0,0l-.8.8c.9.7,2.1,1.2,3.4,1.2s2.5-.4,3.4-1.2l-.9-.9s0,0,0,0ZM65.8,25.2c-.3,0-.5-.2-.5-.5s.2-.5.5-.5.5.2.5.5-.2.5-.5.5ZM63.3,16.1c.2-.1.5,0,.7.2.1.2,0,.5-.2.7-.1,0-.3,0-.5,0l2.1,2.1c.2,0,.4,0,.6,0l2.1-2.1c-.1,0-.3,0-.5,0-.2-.1-.3-.4-.2-.7.1-.2.4-.3.7-.2.2.1.3.4.2.7l.8-.8c-.9-.7-2.1-1.2-3.4-1.2s-2.5.4-3.4,1.2l.8.8c-.1-.2,0-.5.2-.6ZM65.8,15.5c.3,0,.5.2.5.5s-.2.5-.5.5-.5-.2-.5-.5.2-.5.5-.5ZM61.7,22.1c.2-.1.5,0,.7.2,0,.1,0,.3,0,.5l2.1-2.1c0-.2,0-.4,0-.6l-2.2-2.2c.1.2.2.4,0,.6-.1.2-.4.3-.7.2-.2-.1-.3-.4-.2-.7.1-.2.4-.3.7-.2,0,0,0,0,0,0l-.9-.8c-.7.9-1.2,2.1-1.2,3.4s.4,2.5,1.2,3.4l.8-.8c-.2.1-.5,0-.7-.2-.1-.2,0-.5.2-.7ZM61.4,20.8c-.3,0-.5-.2-.5-.5s.2-.5.5-.5.5.2.5.5-.2.5-.5.5Z" fill="#fff" stroke-width="0"/></svg>