<?xml version="1.0" encoding="utf-8"?>
<!-- Generator: Adobe Illustrator 27.8.1, SVG Export Plug-In . SVG Version: 6.00 Build 0)  -->
<svg version="1.1" id="Layer_1" xmlns="http://www.w3.org/2000/svg" xmlns:xlink="http://www.w3.org/1999/xlink" x="0px" y="0px"
	 viewBox="0 0 149.9 74.9" style="enable-background:new 0 0 149.9 74.9;" xml:space="preserve">
<style type="text/css">
	.st0{fill:#FFFFFF;}
</style>
<path class="st0" d="M114.4,24.1h-4.8h-4.6H44.5h-4.6h-4.3C15.9,24.1,0,40,0,59.6v15.3h25.6V61.1c0-6.3,5.2-11.4,11.4-11.4h4.3H46
	h57.5h4.6h4.8c6.3,0,11.4,5.2,11.4,11.4v13.8h25.6V59.6C149.9,40,134,24.1,114.4,24.1z"/>
<g>
	<path class="st0" d="M41.6,18.7v35.7h-3.5c-0.7,0-1.3-0.6-1.3-1.4V20c0-0.8,0.6-1.4,1.3-1.4C38.1,18.7,41.6,18.7,41.6,18.7z"/>
	<path class="st0" d="M47.6,20v33c0,0.8-0.6,1.4-1.3,1.4h-3.5V18.7h3.5C47,18.7,47.6,19.3,47.6,20z"/>
	<g>
		<g>
			<path class="st0" d="M36.2,21h0.7v2.3h-0.7c0,0-0.1,0-0.1-0.1L36.2,21C36.1,21.1,36.1,21,36.2,21L36.2,21z"/>
			<path class="st0" d="M35.7,21.4h0.3V23h-0.3c0,0-0.1-0.1-0.1-0.1v-1.3C35.6,21.5,35.7,21.4,35.7,21.4L35.7,21.4z"/>
		</g>
		<g>
			<path class="st0" d="M48.3,23.3h-0.7V21h0.7c0,0,0.1,0,0.1,0.1L48.3,23.3C48.3,23.3,48.3,23.4,48.3,23.3L48.3,23.3z"/>
			<path class="st0" d="M48.7,22.9h-0.3v-1.5h0.3c0,0,0.1,0.1,0.1,0.1v1.3C48.8,22.8,48.7,23,48.7,22.9L48.7,22.9z"/>
		</g>
		<g>
			<path class="st0" d="M36.2,50.5h0.7v2.3h-0.7c0,0-0.1,0-0.1-0.1L36.2,50.5C36.1,50.6,36.1,50.5,36.2,50.5L36.2,50.5z"/>
			<path class="st0" d="M35.7,50.9h0.3v1.5h-0.3c0,0-0.1-0.1-0.1-0.1V51C35.6,51,35.7,50.9,35.7,50.9L35.7,50.9z"/>
		</g>
		<g>
			<path class="st0" d="M48.3,52.8h-0.7v-2.3h0.7c0,0,0.1,0,0.1,0.1L48.3,52.8C48.3,52.7,48.3,52.8,48.3,52.8L48.3,52.8z"/>
			<path class="st0" d="M48.7,52.4h-0.3v-1.5h0.3c0,0,0.1,0.1,0.1,0.1v1.3C48.8,52.3,48.7,52.4,48.7,52.4L48.7,52.4z"/>
		</g>
	</g>
</g>
<g>
	<path class="st0" d="M107.1,18.7v35.7h-3.5c-0.7,0-1.3-0.6-1.3-1.4V20c0-0.8,0.6-1.4,1.3-1.4C103.6,18.7,107.1,18.7,107.1,18.7z"/>
	<path class="st0" d="M113.1,20v33c0,0.8-0.6,1.4-1.3,1.4h-3.5V18.7h3.5C112.5,18.7,113.1,19.3,113.1,20z"/>
	<g>
		<g>
			<path class="st0" d="M101.6,21h0.7v2.3h-0.7c0,0-0.1,0-0.1-0.1L101.6,21C101.6,21.1,101.6,21,101.6,21L101.6,21z"/>
			<path class="st0" d="M101.2,21.4h0.3V23h-0.3c0,0-0.1-0.1-0.1-0.1v-1.3C101.1,21.5,101.2,21.4,101.2,21.4L101.2,21.4z"/>
		</g>
		<g>
			<path class="st0" d="M113.7,23.3h-0.7V21h0.7c0,0,0.1,0,0.1,0.1L113.7,23.3C113.8,23.3,113.8,23.4,113.7,23.3L113.7,23.3z"/>
			<path class="st0" d="M114.2,22.9h-0.3v-1.5h0.3c0,0,0.1,0.1,0.1,0.1v1.3C114.3,22.8,114.2,23,114.2,22.9L114.2,22.9z"/>
		</g>
		<g>
			<path class="st0" d="M101.6,50.5h0.7v2.3h-0.7c0,0-0.1,0-0.1-0.1L101.6,50.5C101.6,50.6,101.6,50.5,101.6,50.5L101.6,50.5z"/>
			<path class="st0" d="M101.2,50.9h0.3v1.5h-0.3c0,0-0.1-0.1-0.1-0.1V51C101.1,51,101.2,50.9,101.2,50.9L101.2,50.9z"/>
		</g>
		<g>
			<path class="st0" d="M113.7,52.8h-0.7v-2.3h0.7c0,0,0.1,0,0.1,0.1L113.7,52.8C113.8,52.7,113.8,52.8,113.7,52.8L113.7,52.8z"/>
			<path class="st0" d="M114.2,52.4h-0.3v-1.5h0.3c0,0,0.1,0.1,0.1,0.1v1.3C114.3,52.3,114.2,52.4,114.2,52.4L114.2,52.4z"/>
		</g>
	</g>
</g>
<g>
	<rect x="61.4" y="17.1" class="st0" width="27.8" height="8.3"/>
	<rect x="72.9" y="3.1" class="st0" width="4.8" height="5.6"/>
	<path class="st0" d="M94.3,9.8v2.4H55.9V9.8c0-0.6,0.5-1.2,1.2-1.2h36C93.7,8.7,94.3,9.2,94.3,9.8z"/>
	<path class="st0" d="M55.9,13.5h38.3v2.4c0,0.6-0.5,1.2-1.2,1.2h-36c-0.6,0-1.2-0.5-1.2-1.2C55.9,15.9,55.9,13.5,55.9,13.5z"/>
	<path class="st0" d="M82.3,3.1H67.7c-0.9,0-1.6-0.7-1.6-1.6l0,0c0-0.9,0.7-1.6,1.6-1.6h14.6c0.9,0,1.6,0.7,1.6,1.6l0,0
		C83.9,2.4,83.2,3.1,82.3,3.1z"/>
	<g>
		<path class="st0" d="M62,8v0.7h-2.4V8c0,0,0-0.1,0.1-0.1L62,8C62,7.9,62.1,7.9,62,8L62,8z"/>
		<path class="st0" d="M61.6,7.5v0.3h-1.6V7.5c0,0,0.1-0.1,0.1-0.1h1.3C61.5,7.4,61.6,7.5,61.6,7.5L61.6,7.5z"/>
	</g>
	<g>
		<path class="st0" d="M68.9,8v0.7h-2.4V8c0,0,0-0.1,0.1-0.1L68.9,8C68.8,7.9,68.9,7.9,68.9,8L68.9,8z"/>
		<path class="st0" d="M68.5,7.5v0.3h-1.6V7.5c0,0,0.1-0.1,0.1-0.1h1.3C68.4,7.4,68.5,7.5,68.5,7.5L68.5,7.5z"/>
	</g>
	<g>
		<path class="st0" d="M83.3,8v0.7h-2.4V8c0,0,0-0.1,0.1-0.1L83.3,8C83.2,7.9,83.3,7.9,83.3,8L83.3,8z"/>
		<path class="st0" d="M82.9,7.5v0.3h-1.6V7.5c0,0,0.1-0.1,0.1-0.1h1.3C82.8,7.4,82.9,7.5,82.9,7.5L82.9,7.5z"/>
	</g>
	<g>
		<path class="st0" d="M90.2,8v0.7h-2.4V8c0,0,0-0.1,0.1-0.1L90.2,8C90.1,7.9,90.2,7.9,90.2,8L90.2,8z"/>
		<path class="st0" d="M89.7,7.5v0.3h-1.6V7.5c0,0,0.1-0.1,0.1-0.1h1.3C89.6,7.4,89.8,7.5,89.7,7.5L89.7,7.5z"/>
	</g>
</g>
</svg>
