<?xml version="1.0" encoding="UTF-8"?><svg id="Layer_1" xmlns="http://www.w3.org/2000/svg" width="91.2" height="117" xmlns:xlink="http://www.w3.org/1999/xlink" viewBox="0 0 91.2 117"><defs><linearGradient id="linear-gradient" x1="-7" y1="18.2" x2="35.5" y2="53.2" gradientUnits="userSpaceOnUse"><stop offset="0" stop-color="#fff"/><stop offset="1" stop-color="#fff"/></linearGradient><linearGradient id="linear-gradient-2" x1="26.5" y1="44.6" x2="65.5" y2="44.6" gradientUnits="userSpaceOnUse"><stop offset="0" stop-color="#fff"/><stop offset=".1" stop-color="#fff"/><stop offset="1" stop-color="#fff"/></linearGradient><linearGradient id="linear-gradient-3" x1="8.5" y1="64.6" x2="8.5" y2="80.2" gradientUnits="userSpaceOnUse"><stop offset="0" stop-color="#fff"/><stop offset=".9" stop-color="#fff"/><stop offset="1" stop-color="#fff"/></linearGradient><linearGradient id="linear-gradient-4" x1="81.9" y1="64.6" x2="81.9" y2="80.2" xlink:href="#linear-gradient-3"/><radialGradient id="radial-gradient" cx="45.2" cy="86" fx="45.2" fy="86" r="12.9" gradientUnits="userSpaceOnUse"><stop offset="0" stop-color="#fff"/><stop offset="1" stop-color="#fff"/></radialGradient><linearGradient id="linear-gradient-5" x1="34" y1="79.5" x2="56.4" y2="92.4" gradientUnits="userSpaceOnUse"><stop offset="0" stop-color="#fff"/><stop offset="1" stop-color="#fff"/></linearGradient><linearGradient id="linear-gradient-6" x1=".8" y1="44.6" x2="38.7" y2="44.6" gradientUnits="userSpaceOnUse"><stop offset="0" stop-color="#fff"/><stop offset="1" stop-color="#fff"/></linearGradient><radialGradient id="radial-gradient-2" cx="19.4" fx="19.4" r="12.9" xlink:href="#radial-gradient"/><linearGradient id="linear-gradient-7" x1="8.2" y1="79.5" x2="30.6" y2="92.4" xlink:href="#linear-gradient-5"/><linearGradient id="linear-gradient-8" x1="55.2" y1="44" x2="96" y2="44" gradientUnits="userSpaceOnUse"><stop offset="0" stop-color="#fff"/><stop offset="1" stop-color="#fff"/></linearGradient><radialGradient id="radial-gradient-3" cx="71" cy="79.5" fx="71" fy="79.5" r="10.2" xlink:href="#radial-gradient"/><linearGradient id="linear-gradient-9" x1="61.4" y1="76.7" x2="82.3" y2="88.7" gradientUnits="userSpaceOnUse"><stop offset="0" stop-color="#fff"/><stop offset="1" stop-color="#fff"/></linearGradient><radialGradient id="radial-gradient-4" cx="71" cy="86" fx="71" fy="86" r="12.9" xlink:href="#radial-gradient"/><linearGradient id="linear-gradient-10" x1="59.8" y1="79.5" x2="82.2" y2="92.4" xlink:href="#linear-gradient-5"/><linearGradient id="linear-gradient-11" x1="19.8" y1="77" x2="52.2" y2="117.2" xlink:href="#linear-gradient"/><linearGradient id="linear-gradient-12" x1="84.7" y1="108.2" x2="84.7" y2="123.9" xlink:href="#linear-gradient-3"/><linearGradient id="linear-gradient-13" x1="6.2" y1="108.2" x2="6.2" y2="123.9" xlink:href="#linear-gradient-3"/><linearGradient id="linear-gradient-14" x1="8.5" y1="35.2" x2="81.9" y2="35.2" gradientUnits="userSpaceOnUse"><stop offset="0" stop-color="#fff"/><stop offset=".3" stop-color="#fafdff"/><stop offset="1" stop-color="#f8fdff"/></linearGradient></defs><rect x="9.2" y="0" width="71.9" height="24" rx="11.7" ry="11.7" fill="#fff" stroke-width="0"/><path d="M86.3,67.5h-7.6v-7.6H11.7v7.6h-7.6v-9.9c0-3.1,2.4-5.7,5.4-5.7h71.3c3,0,5.4,2.6,5.4,5.7v9.9Z" fill="url(#linear-gradient)" stroke-width="0"/><path d="M58.2,86h-4.1c0-4.9-4-8.9-8.9-8.9s-8.9,4-8.9,8.9h-4.1v-1.1c.1,0,.1,0,.1,0l2.9-34.3V13.3c0-5.5,4.5-10,10-10s5.3,1.1,7.1,2.9c1.8,1.8,2.9,4.3,2.9,7.1v37.3l2.9,34.4h0s0,1,0,1Z" fill="url(#linear-gradient-2)" stroke-width="0"/><path d="M35.2,13c.2,11.1.2,27.2.2,38.5-.8,8.7-1.9,21.1-2.8,29.7.6-8.6,1.6-21,2.3-29.7,0-11.2,0-27.4.2-38.5h0Z" fill="#fff" stroke-width="0"/><rect x="2" y="67.5" width="13" height="5.8" rx=".6" ry=".6" fill="url(#linear-gradient-3)" stroke-width="0"/><path d="M55.2,13c.2,11.1.2,27.3.2,38.5.7,8.7,1.8,21.1,2.3,29.7-.9-8.5-2-21-2.8-29.7,0-11.3,0-27.4.2-38.5h0Z" fill="#fff" stroke-width="0"/><rect x="75.4" y="67.5" width="13" height="5.8" rx=".6" ry=".6" fill="url(#linear-gradient-4)" stroke-width="0"/><path d="M58.1,85.3h0c0-.3,0-.5,0-.7-.1-1.1-.4-2.2-.8-3.3,0-.1-.1-.3-.2-.4,0-.2-.1-.3-.2-.5,0-.2-.2-.4-.3-.5-.5-.9-1-1.7-1.7-2.5-.1-.1-.3-.3-.4-.4-.1-.1-.3-.3-.4-.4-.1-.1-.3-.3-.4-.4-.1-.1-.3-.2-.4-.3-.2-.2-.4-.3-.5-.4-.2-.1-.3-.2-.5-.3-1-.6-2-1.1-3.2-1.5-.2,0-.4-.1-.6-.2-.1,0-.2,0-.3,0-.1,0-.3,0-.4,0-.4,0-.8-.1-1.2-.2-.2,0-.3,0-.5,0-.3,0-.5,0-.8,0s-.5,0-.8,0c-.2,0-.3,0-.5,0-1,0-2,.3-3,.7-.1,0-.3,0-.4.1-.3.1-.5.2-.8.3-.1,0-.3.1-.4.2-.7.3-1.3.7-1.9,1.2-.2.1-.3.2-.5.4-.2.2-.5.4-.7.6-.1.1-.3.2-.4.4-.1.1-.3.3-.4.4-.1.2-.3.3-.4.5-.1.1-.2.3-.4.5-.2.3-.4.6-.6.9-.2.4-.4.8-.6,1.1-.3.5-.5,1.1-.7,1.7,0,.2-.1.4-.2.6-.1.5-.2,1.1-.3,1.6,0,.3,0,.5,0,.8,0,.3,0,.5,0,.8s0,.5,0,.8c0,.3,0,.5,0,.8,0,.4.1.7.2,1.1,0,.2,0,.4.1.6.2.8.5,1.6.8,2.3.2.4.4.8.6,1.1.2.3.4.6.6.9,0,.1.2.2.2.3.2.2.3.4.5.6.1.1.2.3.4.4.3.4.7.7,1.1,1,.2.1.3.3.5.4.5.4,1,.7,1.6,1,.2,0,.3.2.5.3.2,0,.4.2.6.3.2,0,.4.2.6.2,1,.4,2,.6,3.1.7.2,0,.3,0,.5,0,.3,0,.5,0,.8,0s.5,0,.8,0c.2,0,.3,0,.5,0,.4,0,.8-.1,1.2-.2.2,0,.3,0,.5-.1,0,0,.2,0,.2,0,.2,0,.4-.1.6-.2.2,0,.4-.1.6-.2.2,0,.4-.2.6-.2.2,0,.4-.2.6-.3.3-.1.6-.3.9-.5.2-.1.3-.2.5-.3.2-.1.3-.2.5-.3.2-.1.3-.2.5-.4.7-.6,1.4-1.2,2-1.9.1-.2.3-.3.4-.5.1-.2.2-.3.4-.5.1-.2.2-.3.3-.5,0-.2.2-.4.3-.5,0,0,0-.1,0-.2,0-.1.2-.3.2-.5,0-.1.2-.3.2-.5,0-.1.1-.3.2-.4.3-.8.5-1.7.7-2.6,0-.2,0-.4,0-.6,0-.2,0-.4,0-.5h0c0-.3,0-.6,0-.8s0-.4,0-.7ZM45.2,94.9c-4.9,0-8.9-4-8.9-8.9s4-8.9,8.9-8.9,8.9,4,8.9,8.9-4,8.9-8.9,8.9Z" fill="url(#radial-gradient)" stroke-width="0"/><path d="M58.1,85.3h0c0-.3,0-.5,0-.7-.1-1.1-.4-2.2-.8-3.3,0-.1-.1-.3-.2-.4,0-.2-.1-.3-.2-.5,0-.2-.2-.4-.3-.5-.5-.9-1-1.7-1.7-2.5-.1-.1-.3-.3-.4-.4-.1-.1-.3-.3-.4-.4-.1-.1-.3-.3-.4-.4-.1-.1-.3-.2-.4-.3-.2-.2-.4-.3-.5-.4-.2-.1-.3-.2-.5-.3-1-.6-2-1.1-3.2-1.5-.2,0-.4-.1-.6-.2-.1,0-.2,0-.3,0-.1,0-.3,0-.4,0-.4,0-.8-.1-1.2-.2-.2,0-.3,0-.5,0-.3,0-.5,0-.8,0s-.5,0-.8,0c-.2,0-.3,0-.5,0-1,0-2,.3-3,.7-.1,0-.3,0-.4.1-.3.1-.5.2-.8.3-.1,0-.3.1-.4.2-.7.3-1.3.7-1.9,1.2-.2.1-.3.2-.5.4-.2.2-.5.4-.7.6-.1.1-.3.2-.4.4-.1.1-.3.3-.4.4-.1.2-.3.3-.4.5-.1.1-.2.3-.4.5-.2.3-.4.6-.6.9-.2.4-.4.8-.6,1.1-.3.5-.5,1.1-.7,1.7,0,.2-.1.4-.2.6-.1.5-.2,1.1-.3,1.6,0,.3,0,.5,0,.8,0,.3,0,.5,0,.8s0,.5,0,.8c0,.3,0,.5,0,.8,0,.4.1.7.2,1.1,0,.2,0,.4.1.6.2.8.5,1.6.8,2.3.2.4.4.8.6,1.1.2.3.4.6.6.9,0,.1.2.2.2.3.2.2.3.4.5.6.1.1.2.3.4.4.3.4.7.7,1.1,1,.2.1.3.3.5.4.5.4,1,.7,1.6,1,.2,0,.3.2.5.3.2,0,.4.2.6.3.2,0,.4.2.6.2,1,.4,2,.6,3.1.7.2,0,.3,0,.5,0,.3,0,.5,0,.8,0s.5,0,.8,0c.2,0,.3,0,.5,0,.4,0,.8-.1,1.2-.2.2,0,.3,0,.5-.1,0,0,.2,0,.2,0,.2,0,.4-.1.6-.2.2,0,.4-.1.6-.2.2,0,.4-.2.6-.2.2,0,.4-.2.6-.3.3-.1.6-.3.9-.5.2-.1.3-.2.5-.3.2-.1.3-.2.5-.3.2-.1.3-.2.5-.4.7-.6,1.4-1.2,2-1.9.1-.2.3-.3.4-.5.1-.2.2-.3.4-.5.1-.2.2-.3.3-.5,0-.2.2-.4.3-.5,0,0,0-.1,0-.2,0-.1.2-.3.2-.5,0-.1.2-.3.2-.5,0-.1.1-.3.2-.4.3-.8.5-1.7.7-2.6,0-.2,0-.4,0-.6,0-.2,0-.4,0-.5h0c0-.3,0-.6,0-.8s0-.4,0-.7ZM45.2,94.9c-4.9,0-8.9-4-8.9-8.9s4-8.9,8.9-8.9,8.9,4,8.9,8.9-4,8.9-8.9,8.9Z" fill="url(#linear-gradient-5)" stroke-width="0"/><path d="M35.2,13.3v37.3l-2.9,34.1v1.4h-3.9c0-4.9-4-8.9-8.9-8.9s-8.9,4-8.9,8.9h-4l1.5-5.9,7.2-29.5V13.3c0-2.8,1.1-5.3,2.9-7.1,1.8-1.8,4.3-2.9,7.1-2.9,5.5,0,10,4.5,10,10Z" fill="url(#linear-gradient-6)" stroke-width="0"/><path d="M32.3,85.2c0-.1,0-.2,0-.3h0c0-.1,0-.2,0-.2-.7-6.5-6.2-11.6-12.8-11.6s-9.3,2.8-11.5,7c-.9,1.8-1.5,3.8-1.5,5.9,0,7.1,5.8,12.9,12.9,12.9s12.5-5.4,12.9-12.1c0-.3,0-.5,0-.8s0-.5,0-.8ZM19.4,94.9c-4.9,0-8.9-4-8.9-8.9s4-8.9,8.9-8.9,8.9,4,8.9,8.9-4,8.9-8.9,8.9Z" fill="url(#radial-gradient-2)" stroke-width="0"/><path d="M32.3,85.2c0-.1,0-.2,0-.3h0c0-.1,0-.2,0-.2-.7-6.5-6.2-11.6-12.8-11.6s-9.3,2.8-11.5,7c-.9,1.8-1.5,3.8-1.5,5.9,0,7.1,5.8,12.9,12.9,12.9s12.5-5.4,12.9-12.1c0-.3,0-.5,0-.8s0-.5,0-.8ZM19.4,94.9c-4.9,0-8.9-4-8.9-8.9s4-8.9,8.9-8.9,8.9,4,8.9,8.9-4,8.9-8.9,8.9Z" fill="url(#linear-gradient-7)" stroke-width="0"/><path d="M82.4,80c-2.2-4.1-6.5-7-11.5-7s-12.2,5.1-12.8,11.6l-2.9-34.1V13.3c0-5.5,4.5-10,10-10s5.3,1.1,7.1,2.9c1.8,1.8,2.9,4.3,2.9,7.1v37.3l7.2,29.5Z" fill="url(#linear-gradient-8)" stroke-width="0"/><path d="M83.9,86h-4c0-1.1-.2-2.1-.5-3-.1-.4-.3-.7-.5-1.1-1.5-3-4.6-4.8-7.9-4.8s-7.2,2.4-8.4,5.9c-.2.6-.4,1.2-.5,1.9h0s0,.2,0,.2c0,.2,0,.5,0,.8h-3.8v-1.3c-.1,0-.1,0-.1,0,.7-6.5,6.2-11.6,12.8-11.6s9.3,2.8,11.5,7l1.5,5.9Z" fill="url(#radial-gradient-3)" stroke-width="0"/><path d="M82.4,80c-2.1-4.1-6.5-7-11.5-7s-12.2,5.1-12.8,11.6h0s.1,1.3.1,1.3h3.8c0-.3,0-.6,0-.8v-.2s0,0,0,0c0-.7.2-1.3.5-1.9h-1c1.3-4.1,5-6.9,9.4-6.9s6.9,1.9,8.7,5.1l.4,1.9h-.7c.3.9.5,1.9.5,3h4l-1.5-5.9Z" fill="url(#linear-gradient-9)" stroke-width="0"/><path d="M82.4,80c-2.1-4.1-6.5-7-11.5-7s-12.2,5.1-12.8,11.6h0c0,.1,0,.2,0,.3h0c0,0,0,.1,0,.1h0c0,0,0,0,0,.1h0c0,.3,0,.5,0,.8s0,.2,0,.3c0,.1,0,.3,0,.4h0c0,.2,0,.4,0,.6,0,.6.2,1.2.3,1.8h0c.1.5.3,1,.5,1.5.2.5.4.9.6,1.4,0,.2.2.4.3.5.2.4.4.7.7,1,.1.1.2.3.3.4.1.2.3.4.4.5s.3.3.5.5c.3.3.7.6,1,.9.2.1.3.3.5.4.2.1.3.2.5.4.2.1.3.2.5.3,0,0,0,0,0,0,.2.1.3.2.5.3,0,0,.1,0,.2.1.2,0,.3.2.5.3.2,0,.4.2.6.3.2,0,.3.1.5.2.4.1.9.3,1.3.4.2,0,.3,0,.5.1.4,0,.8.1,1.2.2.2,0,.3,0,.5,0,.3,0,.5,0,.8,0,7.1,0,12.9-5.8,12.9-12.9s-.5-4.2-1.5-5.9ZM71,94.9c-4.9,0-8.9-4-8.9-8.9s0-.6,0-.8v-.2s0,0,0,0c0-.7.2-1.3.5-1.9,1.2-3.5,4.5-5.9,8.4-5.9s6.4,1.8,7.9,4.8c.2.3.3.7.5,1.1.3.9.5,1.9.5,3,0,4.9-4,8.9-8.9,8.9Z" fill="url(#radial-gradient-4)" stroke-width="0"/><path d="M82.4,80c-2.1-4.1-6.5-7-11.5-7s-12.2,5.1-12.8,11.6h0c0,.1,0,.2,0,.3h0c0,0,0,.1,0,.1h0c0,0,0,0,0,.1h0c0,.3,0,.6,0,.8s0,.2,0,.3c0,.1,0,.2,0,.3h0c0,.3,0,.5,0,.7,0,.6.2,1.2.3,1.8h0c.1.5.3,1,.5,1.5.2.5.4.9.6,1.4,0,.2.2.4.3.5.2.4.4.7.7,1,.1.1.2.3.3.4.1.2.3.4.4.5s.3.3.5.5c.3.3.7.6,1,.9.2.1.3.3.5.4.2.1.3.2.5.4.2.1.3.2.5.3,0,0,0,0,0,0,.2.1.3.2.5.3,0,0,.1,0,.2.1.2,0,.3.2.5.3.2,0,.4.2.6.3.2,0,.3.1.5.2.4.1.9.3,1.3.4.2,0,.3,0,.5.1.4,0,.8.1,1.2.2.2,0,.3,0,.5,0,.3,0,.5,0,.8,0,7.1,0,12.9-5.8,12.9-12.9s-.5-4.2-1.5-5.9ZM71,94.9c-4.9,0-8.9-4-8.9-8.9s0-.6,0-.8v-.2s0,0,0,0c0-.7.2-1.3.5-1.9,1.2-3.5,4.5-5.9,8.4-5.9s6.4,1.8,7.9,4.8c.2.3.3.7.5,1.1.3.9.5,1.9.5,3,0,4.9-4,8.9-8.9,8.9Z" fill="url(#linear-gradient-10)" stroke-width="0"/><path d="M88.4,114.5h-8v-7.6H10v7.6H2v-9.9c0-3.1,2.6-5.7,5.7-5.7h75.1c3.1,0,5.7,2.6,5.7,5.7v9.9Z" fill="url(#linear-gradient-11)" stroke-width="0"/><rect x="78.2" y="111.2" width="13" height="5.8" rx=".6" ry=".6" fill="url(#linear-gradient-12)" stroke-width="0"/><rect y="111.2" width="12.4" height="5.8" rx=".6" ry=".6" fill="url(#linear-gradient-13)" stroke-width="0"/><path d="M81.9,53.2H8.5v-24.2c0-6.5,5.3-11.8,11.8-11.8h49.7c6.5,0,11.8,5.3,11.8,11.8v24.2ZM11,50.7h68.3v-21.7c0-5.1-4.2-9.3-9.3-9.3H20.4c-5.1,0-9.3,4.2-9.3,9.3v21.7Z" fill="url(#linear-gradient-14)" stroke-width="0"/></svg>