<?xml version="1.0" encoding="UTF-8"?>
<svg id="Layer_1" data-name="Layer 1" xmlns="http://www.w3.org/2000/svg" width="77.92" height="58.81" xmlns:xlink="http://www.w3.org/1999/xlink" viewBox="0 0 77.92 58.81">
  <defs>
    <clipPath id="clippath">
      <path d="m30.59,58.11v-2c0-.39.34-.7.76-.7h15.21c.42,0,.76.31.76.7v2c0,.39-.34.7-.76.7h-15.21c-.42,0-.76-.31-.76-.7Z" fill="none" stroke-width="0"/>
    </clipPath>
    <clipPath id="clippath-1">
      <path d="m75.28,30.01v8.83c0,.2-.21.37-.47.37h-1.63c-.26,0-.47-.17-.47-.37v-8.83c0-.2.21-.37.47-.37h1.63c.26,0,.47.17.47.37Z" fill="none" stroke-width="0"/>
    </clipPath>
    <clipPath id="clippath-2">
      <path d="m77.92,30.01v8.83c0,.2-.21.37-.47.37h-.68c-.26,0-.47-.17-.47-.37v-8.83c0-.2.21-.37.47-.37h.68c.26,0,.47.17.47.37Z" fill="none" stroke-width="0"/>
    </clipPath>
    <clipPath id="clippath-3">
      <path d="m75.28,30.01v8.83c0,.2-.21.37-.47.37h-1.63c-.26,0-.47-.17-.47-.37v-8.83c0-.2.21-.37.47-.37h1.63c.26,0,.47.17.47.37Z" fill="none" stroke-width="0"/>
    </clipPath>
    <clipPath id="clippath-4">
      <path d="m77.92,30.01v8.83c0,.2-.21.37-.47.37h-.68c-.26,0-.47-.17-.47-.37v-8.83c0-.2.21-.37.47-.37h.68c.26,0,.47.17.47.37Z" fill="none" stroke-width="0"/>
    </clipPath>
    <clipPath id="clippath-5">
      <path d="m3.12,29.64h1.63c.26,0,.47.17.47.37v8.83c0,.2-.21.37-.47.37h-1.63c-.26,0-.47-.17-.47-.37v-8.83c0-.2.21-.37.47-.37Z" fill="none" stroke-width="0"/>
    </clipPath>
    <clipPath id="clippath-6">
      <path d="m.47,29.64h.68c.26,0,.47.17.47.37v8.83c0,.2-.21.37-.47.37H.47c-.26,0-.47-.17-.47-.37v-8.83c0-.2.21-.37.47-.37Z" fill="none" stroke-width="0"/>
    </clipPath>
    <clipPath id="clippath-7">
      <path d="m3.12,29.64h1.63c.26,0,.47.17.47.37v8.83c0,.2-.21.37-.47.37h-1.63c-.26,0-.47-.17-.47-.37v-8.83c0-.2.21-.37.47-.37Z" fill="none" stroke-width="0"/>
    </clipPath>
    <clipPath id="clippath-8">
      <path d="m.47,29.64h.68c.26,0,.47.17.47.37v8.83c0,.2-.21.37-.47.37H.47c-.26,0-.47-.17-.47-.37v-8.83c0-.2.21-.37.47-.37Z" fill="none" stroke-width="0"/>
    </clipPath>
    <clipPath id="clippath-9">
      <path d="m34.55,2.64h8.83c.2,0,.37.21.37.47v1.63c0,.26-.17.47-.37.47h-8.83c-.2,0-.37-.21-.37-.47v-1.63c0-.26.17-.47.37-.47Z" fill="none" stroke-width="0"/>
    </clipPath>
    <clipPath id="clippath-10">
      <path d="m34.55,0h8.83c.2,0,.37.21.37.47v.68c0,.26-.17.47-.37.47h-8.83c-.2,0-.37-.21-.37-.47V.47c0-.26.17-.47.37-.47Z" fill="none" stroke-width="0"/>
    </clipPath>
  </defs>
  <path d="m34.93,48.44v6.97h7.97v-6.97h-7.97Z" fill="#fff" stroke-width="0"/>
  <g clip-path="url(#clippath)">
    <rect x="30.59" y="55.41" width="16.73" height="3.4" fill="#fff" stroke-width="0"/>
  </g>
  <g>
    <path d="m45.21,12.55c-.32-.18-.64-.35-.97-.5-1.61-.75-3.4-1.17-5.28-1.17s-3.73.43-5.36,1.21c-.34.15-.67.33-.99.52-3.69,2.18-6.17,6.2-6.17,10.79,0,6.91,5.61,12.53,12.52,12.53s12.52-5.62,12.52-12.53c0-4.63-2.52-8.68-6.27-10.85Zm-6.25,20.38c-2.75,0-5.23-1.17-6.97-3.05-.45-.49-.86-1.02-1.2-1.6-.86-1.43-1.35-3.1-1.35-4.88,0-3.4,1.79-6.39,4.47-8.07,1.2-.75,2.57-1.24,4.05-1.4.33-.03.66-.05,1-.05s.67.02,1,.05c1.48.16,2.85.65,4.05,1.4,2.68,1.68,4.47,4.67,4.47,8.07,0,1.79-.5,3.47-1.37,4.9h0c-.34.59-.75,1.12-1.21,1.6-1.73,1.86-4.2,3.03-6.94,3.03Z" fill="#fff" stroke-width="0"/>
    <rect x="37.96" y="12.38" width="2" height="11.03" fill="#fff" stroke-width="0"/>
    <rect x="29.03" y="25.71" width="11.02" height="2" transform="translate(-9.11 26.05) rotate(-36.84)" fill="#fff" stroke-width="0"/>
    <rect x="42.32" y="21.2" width="2" height="11.02" transform="translate(-4.02 45.38) rotate(-53.17)" fill="#fff" stroke-width="0"/>
    <circle cx="38.96" cy="23.4" r="2.44" fill="#fff" stroke-width="0"/>
  </g>
  <g>
    <g>
      <path d="m65.54,30.79v.21c.06.1.12.21.18.31.39.74.64,1.57.73,2.44h-.02s.01.08.02.11h-.91v1.14h.91s0,.07-.02.11h.02c-.09.87-.34,1.7-.73,2.44-.06.1-.12.21-.18.31v.15h10.75v-7.22h-10.75Z" fill="#fff" stroke-width="0"/>
      <g clip-path="url(#clippath-1)">
        <rect x="72.7" y="29.64" width="2.58" height="9.57" fill="#fff" stroke-width="0"/>
      </g>
      <g clip-path="url(#clippath-2)">
        <rect x="76.29" y="29.64" width="1.63" height="9.57" fill="#fff" stroke-width="0"/>
      </g>
    </g>
    <g>
      <path d="m65.54,30.79v.21c.06.1.12.21.18.31.39.74.64,1.57.73,2.44h-.02s.01.08.02.11h-.91v1.14h.91s0,.07-.02.11h.02c-.09.87-.34,1.7-.73,2.44-.06.1-.12.21-.18.31v.15h10.75v-7.22h-10.75Z" fill="#fff" stroke-width="0"/>
      <g clip-path="url(#clippath-3)">
        <rect x="72.7" y="29.64" width="2.58" height="9.57" fill="#fff" stroke-width="0"/>
      </g>
      <g clip-path="url(#clippath-4)">
        <rect x="76.29" y="29.64" width="1.63" height="9.57" fill="#fff" stroke-width="0"/>
      </g>
    </g>
    <g>
      <path d="m67.74,30.79c-.1-.23-.22-.45-.35-.67-1.48-2.5-4.21-4.18-7.32-4.18-3.39,0-6.32,1.98-7.69,4.85-.53,1.1-.82,2.33-.82,3.64s.28,2.5.79,3.58c1.36,2.9,4.31,4.91,7.72,4.91,3.14,0,5.89-1.71,7.36-4.25.12-.22.24-.43.34-.66.51-1.09.79-2.3.79-3.58s-.29-2.53-.82-3.64Zm-7.67,10.1c-1.22,0-2.36-.34-3.33-.93h-.01c-.39-.23-.75-.51-1.07-.82-.36-.34-.69-.72-.96-1.13-.7-1.02-1.1-2.25-1.1-3.58s.41-2.6,1.13-3.64c.27-.4.59-.76.94-1.09.33-.3.69-.58,1.08-.81.98-.59,2.11-.92,3.32-.92,2.21,0,4.17,1.12,5.33,2.82.05.07.09.14.14.21.06.1.12.21.18.31.41.74.67,1.57.77,2.44.02.23.04.45.04.68s-.02.45-.04.68c-.1.87-.36,1.7-.77,2.44-.06.1-.12.21-.18.31-.03.05-.07.1-.1.15-1.16,1.73-3.14,2.88-5.37,2.88Z" fill="#fff" stroke-width="0"/>
      <rect x="60.05" y="33.75" width="7.48" height="1.36" fill="#fff" stroke-width="0"/>
      <rect x="57.14" y="27.69" width="1.36" height="7.48" transform="translate(-7.3 40.94) rotate(-36.84)" fill="#fff" stroke-width="0"/>
      <rect x="54.07" y="36.71" width="7.48" height="1.36" transform="translate(-6.76 61.26) rotate(-53.17)" fill="#fff" stroke-width="0"/>
      <circle cx="60.06" cy="34.43" r="1.66" fill="#fff" stroke-width="0"/>
    </g>
  </g>
  <g>
    <g>
      <path d="m12.38,30.79H1.63v7.22h10.75v-.15c-.48-.82-.8-1.75-.91-2.75h.02s-.01-.08-.02-.11h.91v-1.14h-.91s.01-.07.02-.11h-.02c.11-1,.43-1.93.91-2.75v-.21Z" fill="#fff" stroke-width="0"/>
      <g clip-path="url(#clippath-5)">
        <rect x="2.64" y="29.64" width="2.58" height="9.57" fill="#fff" stroke-width="0"/>
      </g>
      <g clip-path="url(#clippath-6)">
        <rect x="0" y="29.64" width="1.63" height="9.57" fill="#fff" stroke-width="0"/>
      </g>
    </g>
    <g>
      <path d="m12.38,30.79H1.63v7.22h10.75v-.15c-.48-.82-.8-1.75-.91-2.75h.02s-.01-.08-.02-.11h.91v-1.14h-.91s.01-.07.02-.11h-.02c.11-1,.43-1.93.91-2.75v-.21Z" fill="#fff" stroke-width="0"/>
      <g clip-path="url(#clippath-7)">
        <rect x="2.64" y="29.64" width="2.58" height="9.57" fill="#fff" stroke-width="0"/>
      </g>
      <g clip-path="url(#clippath-8)">
        <rect x="0" y="29.64" width="1.63" height="9.57" fill="#fff" stroke-width="0"/>
      </g>
    </g>
    <g>
      <path d="m25.54,30.79c-1.37-2.87-4.29-4.85-7.68-4.85-3.11,0-5.84,1.68-7.32,4.18-.13.22-.25.44-.35.67-.53,1.11-.83,2.34-.83,3.64s.29,2.49.8,3.58c.1.23.22.44.34.66,1.47,2.54,4.22,4.25,7.36,4.25,3.41,0,6.36-2.01,7.71-4.91.51-1.08.79-2.3.79-3.58s-.29-2.54-.82-3.64Zm-3.27,8.35h-.01c-.33.32-.68.59-1.07.82h-.01c-.97.59-2.11.93-3.32.93-2.24,0-4.22-1.15-5.38-2.88-.03-.05-.07-.1-.1-.15-.5-.82-.84-1.75-.95-2.75-.02-.23-.03-.45-.03-.68s.01-.45.03-.68c.11-1,.45-1.93.95-2.75.05-.07.09-.14.14-.21,1.16-1.7,3.12-2.82,5.34-2.82,1.21,0,2.34.33,3.31.92.39.23.75.51,1.09.81.35.33.67.69.94,1.09.71,1.04,1.13,2.29,1.13,3.64s-.41,2.56-1.11,3.58c-.27.41-.59.79-.95,1.13Z" fill="#fff" stroke-width="0"/>
      <rect x="10.38" y="33.75" width="7.49" height="1.36" fill="#fff" stroke-width="0"/>
      <polygon points="22.89 28.85 22.26 29.7 21.44 30.79 19.31 33.63 18.73 34.42 18.41 34.84 17.87 34.43 17.84 34.41 17.32 34.02 17.52 33.75 18.23 32.81 19.74 30.79 21.17 28.89 21.8 28.04 22.89 28.85" fill="#fff" stroke-width="0"/>
      <polygon points="22.89 39.98 21.8 40.79 21.18 39.96 19.72 38.01 18.25 36.04 17.55 35.11 17.32 34.8 17.84 34.41 17.87 34.39 18.41 33.99 18.73 34.42 19.32 35.21 21.42 38.01 22.26 39.14 22.27 39.14 22.89 39.98" fill="#fff" stroke-width="0"/>
      <path d="m19.52,34.43c0,.28-.07.55-.2.78-.21.42-.6.72-1.07.83-.13.03-.26.05-.39.05-.68,0-1.26-.4-1.51-.98-.1-.21-.15-.44-.15-.68s.05-.47.15-.68c.25-.58.83-.98,1.51-.98.13,0,.25,0,.37.04.47.11.86.41,1.08.82.14.23.21.51.21.8Z" fill="#fff" stroke-width="0"/>
    </g>
  </g>
  <path d="m21.44,30.79l-2.13,2.84c.14.23.21.51.21.8s-.07.55-.2.78l2.1,2.8h-1.7l-1.47-1.97c-.13.03-.26.05-.39.05-.68,0-1.26-.4-1.51-.98h-4.88c.11,1,.43,1.93.91,2.75.03.05.07.1.1.15h-4.29v-7.22h4.33c-.05.07-.09.14-.14.21-.48.82-.8,1.75-.91,2.75h4.88c.25-.58.83-.98,1.51-.98.13,0,.25,0,.37.04l1.51-2.02h1.7Z" fill="#fff" stroke-width="0"/>
  <path d="m25.54,30.79c.53,1.1.82,2.33.82,3.64s-.28,2.5-.79,3.58h-2.35c.7-1.02,1.11-2.25,1.11-3.58s-.42-2.6-1.13-3.64h2.34Z" fill="#fff" stroke-width="0"/>
  <path d="m50.81,34.43c0,1.24.24,2.44.73,3.58h-25.15c.47-1.11.72-2.34.72-3.58s-.25-2.5-.74-3.64h1.28c2.41,3.7,6.58,6.14,11.31,6.14s8.91-2.44,11.32-6.14h1.29c-.51,1.14-.76,2.38-.76,3.64Z" fill="#fff" stroke-width="0"/>
  <path d="m32.32,38.01h13.27v9.66c0,.43-.35.77-.77.77h-11.72c-.43,0-.77-.35-.77-.77v-9.66h0Z" fill="#fff" stroke-width="0"/>
  <g>
    <path d="m35.54,12.38c.82-.48,1.75-.8,2.75-.91v.02s.08-.01.11-.02v.91s1.14,0,1.14,0v-.91s.07.01.11.02v-.02c1,.11,1.93.43,2.75.91h.15s0-10.75,0-10.75h-7.22s0,10.75,0,10.75h.21Z" fill="#fff" stroke-width="0"/>
    <g clip-path="url(#clippath-9)">
      <rect x="34.18" y="2.64" width="9.57" height="2.58" fill="#fff" stroke-width="0"/>
    </g>
    <g clip-path="url(#clippath-10)">
      <rect x="34.18" y="0" width="9.57" height="1.63" fill="#fff" stroke-width="0"/>
    </g>
  </g>
</svg>