<?xml version="1.0" encoding="UTF-8"?>
<svg id="Layer_1" data-name="Layer 1" xmlns="http://www.w3.org/2000/svg" width="120.18" height="97.64" viewBox="0 0 120.18 97.64">
  <path d="m66.77,35.38c-.67-.16-1.13-.68-1.13-1.29v-5.9l-12-.09v5.99c0,6.19,4.26,11.52,10.36,12.97,8.9,2.11,14.94,10.3,14.37,19.47-.57,9.25-8.27,16.95-17.52,17.52-5.24.33-10.24-1.46-14.06-5.05-3.82-3.58-5.92-8.44-5.92-13.68,0-3.52-6.62-5.97-6.62-5.97,0,0-1.17,4.41-1.17,9.9,0,8.33,5.13,16.73,8.49,19.71,5.92,5.26,13.61,8.68,21.47,8.68.66,0,1.32-.06,1.98-.06,16.86.06,28-13.9,28.96-29.33.93-15.02-12.61-29.4-27.21-32.87Zm-3.58,7.79c-1.24,0-2.24-1-2.24-2.23s1-2.23,2.24-2.23,2.23,1,2.23,2.23-1,2.23-2.23,2.23Z" fill="#fff" stroke-width="0"/>
  <g>
    <polygon points="26.15 0 92.85 0 92.85 14.1 77.47 23.52 41.92 23.52 26.15 14.1 26.15 0" fill="#fff" stroke-width="0"/>
    <rect x="45.97" y="23.52" width="27.06" height="5.9" fill="#fff" stroke-width="0"/>
  </g>
  <rect x="33.95" y="60.11" width="38.96" height="3" transform="translate(-24.22 86.53) rotate(-66.86)" fill="#fff" stroke-width="0"/>
</svg>