<?xml version="1.0" encoding="UTF-8"?><svg id="Layer_1" xmlns="http://www.w3.org/2000/svg" width="110.5" height="65.9" xmlns:xlink="http://www.w3.org/1999/xlink" viewBox="0 0 110.5 65.9"><defs><linearGradient id="linear-gradient" x1="31.3" y1="-13.5" x2="134" y2="91.3" gradientUnits="userSpaceOnUse"><stop offset="0" stop-color="#fff"/><stop offset="1" stop-color="#fff"/></linearGradient><linearGradient id="linear-gradient-2" x1="35.7" y1="-17.9" x2="138.5" y2="87" xlink:href="#linear-gradient"/><linearGradient id="linear-gradient-3" x1="36.4" y1="20.3" x2="40.8" y2="24.8" xlink:href="#linear-gradient"/><linearGradient id="linear-gradient-4" x1="104.5" y1="21" x2="108.4" y2="24.9" xlink:href="#linear-gradient"/><linearGradient id="linear-gradient-5" x1="9.6" y1="26.5" x2="13.6" y2="30.5" xlink:href="#linear-gradient"/><linearGradient id="linear-gradient-6" x1="71.1" y1="28" x2="74.6" y2="31.6" xlink:href="#linear-gradient"/><linearGradient id="linear-gradient-7" x1="-66.8" y1="-5466.4" x2="95.5" y2="-5466.4" gradientTransform="translate(5521.7 81.6) rotate(-90)" gradientUnits="userSpaceOnUse"><stop offset="0" stop-color="#fff"/><stop offset="1" stop-color="#fff"/></linearGradient><linearGradient id="linear-gradient-8" x1="2244.3" y1="-3019.7" x2="2244.3" y2="-3007.6" gradientTransform="translate(-2190.8 3064)" gradientUnits="userSpaceOnUse"><stop offset="0" stop-color="#fff"/><stop offset=".9" stop-color="#fff"/><stop offset="1" stop-color="#fff"/></linearGradient><linearGradient id="linear-gradient-9" x1="2235.9" y1="-3012.1" x2="2235.9" y2="-3013" gradientTransform="translate(-2185 3053.1)" gradientUnits="userSpaceOnUse"><stop offset="0" stop-color="#fff"/><stop offset="1" stop-color="#fff"/></linearGradient><linearGradient id="linear-gradient-10" x1="2239.2" y1="-3012.1" x2="2239.2" y2="-3013" gradientTransform="translate(-2188.3 3056.4)" xlink:href="#linear-gradient-9"/><linearGradient id="linear-gradient-11" x1="2242.5" y1="-3012.1" x2="2242.5" y2="-3013" gradientTransform="translate(-2191.5 3059.7)" xlink:href="#linear-gradient-9"/><linearGradient id="linear-gradient-12" x1="2245.8" y1="-3012.1" x2="2245.8" y2="-3013" gradientTransform="translate(-2194.8 3063)" xlink:href="#linear-gradient-9"/><linearGradient id="linear-gradient-13" x1="2249.1" y1="-3012.1" x2="2249.1" y2="-3013" gradientTransform="translate(-2198.1 3066.2)" xlink:href="#linear-gradient-9"/><linearGradient id="linear-gradient-14" x1="2252.3" y1="-3012.1" x2="2252.3" y2="-3013" gradientTransform="translate(-2201.4 3069.5)" xlink:href="#linear-gradient-9"/><linearGradient id="linear-gradient-15" x1="2244.3" y1="-2110.9" x2="2244.3" y2="-2098.7" gradientTransform="translate(-2185 -2057.5) scale(1 -1)" xlink:href="#linear-gradient-8"/><linearGradient id="linear-gradient-16" x1="2235.9" y1="-2103.3" x2="2235.9" y2="-2104.1" gradientTransform="translate(-2174.2 -2063.3) scale(1 -1)" xlink:href="#linear-gradient-9"/><linearGradient id="linear-gradient-17" x1="2239.2" y1="-2103.3" x2="2239.2" y2="-2104.1" gradientTransform="translate(-2177.4 -2060.1) scale(1 -1)" xlink:href="#linear-gradient-9"/><linearGradient id="linear-gradient-18" x1="2242.5" y1="-2103.3" x2="2242.5" y2="-2104.1" gradientTransform="translate(-2180.7 -2056.8) scale(1 -1)" xlink:href="#linear-gradient-9"/><linearGradient id="linear-gradient-19" x1="2245.8" y1="-2103.3" x2="2245.8" y2="-2104.1" gradientTransform="translate(-2184 -2053.5) scale(1 -1)" xlink:href="#linear-gradient-9"/><linearGradient id="linear-gradient-20" x1="2249.1" y1="-2103.3" x2="2249.1" y2="-2104.1" gradientTransform="translate(-2187.3 -2050.2) scale(1 -1)" xlink:href="#linear-gradient-9"/><linearGradient id="linear-gradient-21" x1="2252.3" y1="-2103.3" x2="2252.3" y2="-2104.1" gradientTransform="translate(-2190.6 -2046.9) scale(1 -1)" xlink:href="#linear-gradient-9"/><linearGradient id="linear-gradient-22" x1="2244.3" y1="-2971.2" x2="2244.3" y2="-2959.1" gradientTransform="translate(-2239.3 3015.4)" xlink:href="#linear-gradient-8"/><linearGradient id="linear-gradient-23" x1="2235.9" y1="-2963.6" x2="2235.9" y2="-2964.4" gradientTransform="translate(-2233.5 3004.6)" xlink:href="#linear-gradient-9"/><linearGradient id="linear-gradient-24" x1="2239.2" y1="-2963.6" x2="2239.2" y2="-2964.4" gradientTransform="translate(-2236.8 3007.9)" xlink:href="#linear-gradient-9"/><linearGradient id="linear-gradient-25" x1="2242.5" y1="-2963.6" x2="2242.5" y2="-2964.4" gradientTransform="translate(-2240.1 3011.1)" xlink:href="#linear-gradient-9"/><linearGradient id="linear-gradient-26" x1="2245.8" y1="-2963.6" x2="2245.8" y2="-2964.4" gradientTransform="translate(-2243.4 3014.4)" xlink:href="#linear-gradient-9"/><linearGradient id="linear-gradient-27" x1="2249.1" y1="-2963.6" x2="2249.1" y2="-2964.4" gradientTransform="translate(-2246.6 3017.7)" xlink:href="#linear-gradient-9"/><linearGradient id="linear-gradient-28" x1="2252.3" y1="-2963.6" x2="2252.3" y2="-2964.4" gradientTransform="translate(-2249.9 3021)" xlink:href="#linear-gradient-9"/><linearGradient id="linear-gradient-29" x1="2244.3" y1="-2152.5" x2="2244.3" y2="-2140.3" gradientTransform="translate(-2138.7 -2099.1) scale(1 -1)" xlink:href="#linear-gradient-8"/><linearGradient id="linear-gradient-30" x1="2235.9" y1="-2144.9" x2="2235.9" y2="-2145.7" gradientTransform="translate(-2127.8 -2104.9) scale(1 -1)" xlink:href="#linear-gradient-9"/><linearGradient id="linear-gradient-31" x1="2239.2" y1="-2144.9" x2="2239.2" y2="-2145.7" gradientTransform="translate(-2131.1 -2101.7) scale(1 -1)" xlink:href="#linear-gradient-9"/><linearGradient id="linear-gradient-32" x1="2242.5" y1="-2144.9" x2="2242.5" y2="-2145.7" gradientTransform="translate(-2134.4 -2098.4) scale(1 -1)" xlink:href="#linear-gradient-9"/><linearGradient id="linear-gradient-33" x1="2245.8" y1="-2144.9" x2="2245.8" y2="-2145.7" gradientTransform="translate(-2137.7 -2095.1) scale(1 -1)" xlink:href="#linear-gradient-9"/><linearGradient id="linear-gradient-34" x1="2249.1" y1="-2144.9" x2="2249.1" y2="-2145.7" gradientTransform="translate(-2141 -2091.8) scale(1 -1)" xlink:href="#linear-gradient-9"/><linearGradient id="linear-gradient-35" x1="2252.3" y1="-2144.9" x2="2252.3" y2="-2145.7" gradientTransform="translate(-2144.2 -2088.5) scale(1 -1)" xlink:href="#linear-gradient-9"/><linearGradient id="linear-gradient-36" x1="1603.3" y1="55.8" x2="1609.2" y2="55.8" gradientTransform="translate(1634.5) rotate(-180) scale(1 -1)" gradientUnits="userSpaceOnUse"><stop offset="0" stop-color="#fff"/><stop offset="1" stop-color="#fff"/></linearGradient><linearGradient id="linear-gradient-37" x1="-1011.8" y1="61.5" x2="-1017.5" y2="60.5" gradientTransform="translate(1044.7)" xlink:href="#linear-gradient"/><linearGradient id="linear-gradient-38" x1="-1016.3" y1="65.1" x2="-1015.7" y2="67.1" gradientTransform="translate(1044.7)" xlink:href="#linear-gradient"/><linearGradient id="linear-gradient-39" x1="2240.2" y1="55.8" x2="2246.1" y2="55.8" gradientTransform="translate(-2158.6)" xlink:href="#linear-gradient-36"/><linearGradient id="linear-gradient-40" x1="-1648.6" y1="61.5" x2="-1654.4" y2="60.5" gradientTransform="translate(-1568.8) rotate(-180) scale(1 -1)" xlink:href="#linear-gradient"/><linearGradient id="linear-gradient-41" x1="-1653.2" y1="65.1" x2="-1652.6" y2="67.1" gradientTransform="translate(-1568.8) rotate(-180) scale(1 -1)" xlink:href="#linear-gradient"/></defs><path d="M100,12.6c-1.9,1.4-3.5,2.6-6.5,3h-2.8c-3-.2-4.7-1.6-6.5-3-2.1-1.6-4.7-3.5-9.1-3.7h-2.8c-4.4.2-6.8,2.1-9.1,3.7-1.9,1.4-3.5,2.6-6.5,3h-2.8c-3-.2-4.7-1.6-6.5-3-2.1-1.6-4.7-3.5-9.1-3.7h-2.8c-4.4.2-6.8,2.1-9.1,3.7-1.9,1.4-3.5,2.6-6.5,3h-2.8c-3-.2-4.7-1.6-6.5-3-2.1-1.6-4.7-3.5-9.1-3.7H0v4.2c4,0,5.8,1.4,7.9,3,2.3,1.9,5.1,4,10.5,4s8.2-2.1,10.5-4c2.1-1.6,4-3,7.9-3s5.8,1.4,7.9,3c2.3,1.9,5.1,4,10.5,4s8.2-2.1,10.5-4c2.1-1.6,4-3,7.9-3s5.8,1.4,7.9,3c2.3,1.9,5.1,4,10.5,4s8.2-2.1,10.5-4c2.1-1.6,4-3,7.9-3v-4.2h-1.4c-4.4.2-6.8,2.1-9.1,3.7Z" fill="url(#linear-gradient)" stroke-width="0"/><path d="M110.5,0v4.2c-4,0-5.8,1.4-7.9,3-2.3,1.9-5.1,4-10.5,4s-8.2-2.1-10.5-4c-2.1-1.6-4-3-7.9-3s-3.2.3-4.4.8c-1.4.6-2.4,1.4-3.5,2.2-2.3,1.9-5.1,4-10.5,4s-8.2-2.1-10.5-4c-1.1-.9-2.2-1.7-3.5-2.2-1.2-.5-2.6-.8-4.4-.8-4,0-5.8,1.4-7.9,3-2.3,1.9-5.1,4-10.5,4s-8.2-2.1-10.5-4c-2.1-1.6-4-3-7.9-3V0h1.4c4.4.2,7,2.1,9.1,3.7,1.9,1.4,3.5,2.8,6.5,3h2.8c3-.5,4.7-1.6,6.5-3,2.3-1.6,4.7-3.5,9.1-3.7h2.8c1.1,0,2.1.2,3,.4,2.7.7,4.5,2.1,6.1,3.3,1.9,1.4,3.5,2.8,6.5,3h2.8c3-.5,4.7-1.6,6.5-3,1.7-1.2,3.5-2.6,6.1-3.3.9-.2,1.9-.4,3-.5h2.8c4.4.2,7,2.1,9.1,3.7,1.9,1.4,3.5,2.8,6.5,3h2.8c3-.5,4.7-1.6,6.5-3,2.3-1.6,4.7-3.5,9.1-3.7h1.4Z" fill="url(#linear-gradient-2)" stroke-width="0"/><circle cx="37.7" cy="21.6" r="1.8" fill="url(#linear-gradient-3)" stroke-width="0"/><circle cx="105.7" cy="22.1" r="1.6" fill="url(#linear-gradient-4)" stroke-width="0"/><circle cx="10.8" cy="27.7" r="1.6" fill="url(#linear-gradient-5)" stroke-width="0"/><circle cx="72.1" cy="29" r="1.4" fill="url(#linear-gradient-6)" stroke-width="0"/><rect x="46.3" y=".7" width="17.9" height="96.1" transform="translate(6.5 104) rotate(-90)" fill="url(#linear-gradient-7)" stroke-width="0"/><rect x="42.8" y="46.5" width="21.4" height="4.5" rx=".8" ry=".8" transform="translate(102.3 -4.7) rotate(90)" fill="url(#linear-gradient-8)" stroke-width="0"/><path d="M50.3,40.2h1.3v.4c0,0,0,0,0,0h-1.1c0,0,0,0,0,0v-.4h0Z" transform="translate(91.4 -10.5) rotate(90)" fill="url(#linear-gradient-9)" stroke-width="0"/><path d="M50.3,43.5h1.3v.4c0,0,0,0,0,0h-1.1c0,0,0,0,0,0v-.4h0Z" transform="translate(94.7 -7.2) rotate(90)" fill="url(#linear-gradient-10)" stroke-width="0"/><path d="M50.3,46.8h1.3v.4c0,0,0,0,0,0h-1.1c0,0,0,0,0,0v-.4h0Z" transform="translate(98 -3.9) rotate(90)" fill="url(#linear-gradient-11)" stroke-width="0"/><path d="M50.3,50h1.3v.4c0,0,0,0,0,0h-1.1c0,0,0,0,0,0v-.4h0Z" transform="translate(101.3 -.7) rotate(90)" fill="url(#linear-gradient-12)" stroke-width="0"/><path d="M50.3,53.3h1.3v.4c0,0,0,0,0,0h-1.1c0,0,0,0,0,0v-.4h0Z" transform="translate(104.5 2.6) rotate(90)" fill="url(#linear-gradient-13)" stroke-width="0"/><path d="M50.3,56.6h1.3v.4c0,0,0,0,0,0h-1.1c0,0,0,0,0,0v-.4h0Z" transform="translate(107.8 5.9) rotate(90)" fill="url(#linear-gradient-14)" stroke-width="0"/><rect x="48.5" y="46.5" width="21.4" height="4.5" rx=".8" ry=".8" transform="translate(108 -10.5) rotate(90)" fill="url(#linear-gradient-15)" stroke-width="0"/><path d="M61.2,40.2h1.1c0,0,0,0,0,0v.4h-1.3v-.4c0,0,0,0,0,0Z" transform="translate(102.2 -21.3) rotate(90)" fill="url(#linear-gradient-16)" stroke-width="0"/><path d="M61.2,43.5h1.1c0,0,0,0,0,0v.4h-1.3v-.4c0,0,0,0,0,0Z" transform="translate(105.5 -18) rotate(90)" fill="url(#linear-gradient-17)" stroke-width="0"/><path d="M61.2,46.8h1.1c0,0,0,0,0,0v.4h-1.3v-.4c0,0,0,0,0,0Z" transform="translate(108.8 -14.8) rotate(90)" fill="url(#linear-gradient-18)" stroke-width="0"/><path d="M61.2,50h1.1c0,0,0,0,0,0v.4h-1.3v-.4c0,0,0,0,0,0Z" transform="translate(112.1 -11.5) rotate(90)" fill="url(#linear-gradient-19)" stroke-width="0"/><path d="M61.2,53.3h1.1c0,0,0,0,0,0v.4h-1.3v-.4c0,0,0,0,0,0Z" transform="translate(115.4 -8.2) rotate(90)" fill="url(#linear-gradient-20)" stroke-width="0"/><path d="M61.2,56.6h1.1c0,0,0,0,0,0v.4h-1.3v-.4c0,0,0,0,0,0Z" transform="translate(118.6 -4.9) rotate(90)" fill="url(#linear-gradient-21)" stroke-width="0"/><rect x="-5.7" y="46.5" width="21.4" height="4.5" rx=".8" ry=".8" transform="translate(53.7 43.8) rotate(90)" fill="url(#linear-gradient-22)" stroke-width="0"/><path d="M1.8,40.2h1.3v.4c0,0,0,0,0,0h-1.1c0,0,0,0,0,0v-.4h0Z" transform="translate(42.9 38) rotate(90)" fill="url(#linear-gradient-23)" stroke-width="0"/><path d="M1.8,43.5h1.3v.4c0,0,0,0,0,0h-1.1c0,0,0,0,0,0v-.4h0Z" transform="translate(46.2 41.3) rotate(90)" fill="url(#linear-gradient-24)" stroke-width="0"/><path d="M1.8,46.8h1.3v.4c0,0,0,0,0,0h-1.1c0,0,0,0,0,0v-.4h0Z" transform="translate(49.4 44.6) rotate(90)" fill="url(#linear-gradient-25)" stroke-width="0"/><path d="M1.8,50h1.3v.4c0,0,0,0,0,0h-1.1c0,0,0,0,0,0v-.4h0Z" transform="translate(52.7 47.9) rotate(90)" fill="url(#linear-gradient-26)" stroke-width="0"/><path d="M1.8,53.3h1.3v.4c0,0,0,0,0,0h-1.1c0,0,0,0,0,0v-.4h0Z" transform="translate(56 51.2) rotate(90)" fill="url(#linear-gradient-27)" stroke-width="0"/><path d="M1.8,56.6h1.3v.4c0,0,0,0,0,0h-1.1c0,0,0,0,0,0v-.4h0Z" transform="translate(59.3 54.4) rotate(90)" fill="url(#linear-gradient-28)" stroke-width="0"/><rect x="94.9" y="46.5" width="21.4" height="4.5" rx=".8" ry=".8" transform="translate(154.4 -56.8) rotate(90)" fill="url(#linear-gradient-29)" stroke-width="0"/><path d="M107.5,40.2h1.1c0,0,0,0,0,0v.4h-1.3v-.4c0,0,0,0,0,0Z" transform="translate(148.6 -67.7) rotate(90)" fill="url(#linear-gradient-30)" stroke-width="0"/><path d="M107.5,43.5h1.1c0,0,0,0,0,0v.4h-1.3v-.4c0,0,0,0,0,0Z" transform="translate(151.8 -64.4) rotate(90)" fill="url(#linear-gradient-31)" stroke-width="0"/><path d="M107.5,46.8h1.1c0,0,0,0,0,0v.4h-1.3v-.4c0,0,0,0,0,0Z" transform="translate(155.1 -61.1) rotate(90)" fill="url(#linear-gradient-32)" stroke-width="0"/><path d="M107.5,50h1.1c0,0,0,0,0,0v.4h-1.3v-.4c0,0,0,0,0,0Z" transform="translate(158.4 -57.8) rotate(90)" fill="url(#linear-gradient-33)" stroke-width="0"/><path d="M107.5,53.3h1.1c0,0,0,0,0,0v.4h-1.3v-.4c0,0,0,0,0,0Z" transform="translate(161.7 -54.5) rotate(90)" fill="url(#linear-gradient-34)" stroke-width="0"/><path d="M107.5,56.6h1.1c0,0,0,0,0,0v.4h-1.3v-.4c0,0,0,0,0,0Z" transform="translate(165 -51.2) rotate(90)" fill="url(#linear-gradient-35)" stroke-width="0"/><path d="M31.2,57.7v5.2l-3,2.8h-3v-19.8s0,0,0,0h2.2s0,0,0,0c0,.7,0,7.4,1.4,10.7s.4.9.9,1.1c0,0,.1,0,.2,0,0,0,.2,0,.3,0h.9Z" fill="url(#linear-gradient-36)" stroke-width="0"/><path d="M31.2,57.7v5.4l-3.1,2.7v-10.3c0-.3.2,0,.3.4.5,1.7,1,1.9,1.4,2,.5,0,.8-.2.8-.2h.6Z" fill="url(#linear-gradient-37)" stroke-width="0"/><polygon points="28.3 65.7 31.2 62.9 31.2 63.1 28.3 65.9 25.2 65.9 25.2 65.7 28.3 65.7" fill="url(#linear-gradient-38)" stroke-width="0"/><path d="M81.5,57.7v5.2s3,2.8,3,2.8h3s0-19.8,0-19.8c0,0,0,0,0,0h-2.2s0,0,0,0c0,.7,0,7.4-1.4,10.7-.2.4-.4.9-.9,1.1,0,0-.1,0-.2,0,0,0-.2,0-.3,0h-.9Z" fill="url(#linear-gradient-39)" stroke-width="0"/><path d="M81.5,57.7v5.4s3.1,2.7,3.1,2.7v-10.3c0-.3-.2,0-.3.4-.5,1.7-1,1.9-1.4,2-.5,0-.8-.2-.8-.2h-.6Z" fill="url(#linear-gradient-40)" stroke-width="0"/><polygon points="84.5 65.7 81.5 62.9 81.5 63.1 84.5 65.9 87.5 65.9 87.5 65.7 84.5 65.7" fill="url(#linear-gradient-41)" stroke-width="0"/></svg>