<?xml version="1.0" encoding="UTF-8"?><svg id="Layer_1" xmlns="http://www.w3.org/2000/svg" width="110.8" height="84.6" xmlns:xlink="http://www.w3.org/1999/xlink" viewBox="0 0 110.8 84.6"><defs><linearGradient id="linear-gradient" x1="-16.6" y1="81.9" x2="123.5" y2="83.2" gradientUnits="userSpaceOnUse"><stop offset="0" stop-color="#fff"/><stop offset="1" stop-color="#fff"/></linearGradient><linearGradient id="linear-gradient-2" x1="31.6" y1="11.4" x2="134.3" y2="116.3" gradientUnits="userSpaceOnUse"><stop offset="0" stop-color="#fff"/><stop offset="1" stop-color="#fff"/></linearGradient><linearGradient id="linear-gradient-3" x1="36" y1="7.1" x2="138.8" y2="112" xlink:href="#linear-gradient-2"/><linearGradient id="linear-gradient-4" x1="21.6" y1="61" x2="26" y2="65.5" xlink:href="#linear-gradient-2"/><linearGradient id="linear-gradient-5" x1="85.5" y1="59.2" x2="89.9" y2="63.7" xlink:href="#linear-gradient-2"/><linearGradient id="linear-gradient-6" x1="104.8" y1="49.4" x2="108.7" y2="53.3" xlink:href="#linear-gradient-2"/><linearGradient id="linear-gradient-7" x1="4.1" y1="47.4" x2="8.1" y2="51.5" xlink:href="#linear-gradient-2"/><linearGradient id="linear-gradient-8" x1="67.8" y1="46.8" x2="71.3" y2="50.4" xlink:href="#linear-gradient-2"/><linearGradient id="linear-gradient-9" x1="12.8" y1=".5" x2="111.6" y2="98.8" gradientUnits="userSpaceOnUse"><stop offset="0" stop-color="#fff"/><stop offset="0" stop-color="#fff"/><stop offset="1" stop-color="#fff"/></linearGradient><linearGradient id="linear-gradient-10" x1="19.1" y1="-9.9" x2="88.3" y2="100.7" gradientUnits="userSpaceOnUse"><stop offset="0" stop-color="#fff"/><stop offset="1" stop-color="#fff"/></linearGradient><linearGradient id="linear-gradient-11" x1="21.5" y1="-4.2" x2="29.4" y2="20.4" gradientTransform="translate(34.8 -16.7) rotate(90)" gradientUnits="userSpaceOnUse"><stop offset="0" stop-color="#fff"/><stop offset="1" stop-color="#fff"/></linearGradient><linearGradient id="linear-gradient-12" x1="-2526" y1="-2566.4" x2="-2526" y2="-2567.1" gradientTransform="translate(2553.9 2582.9)" gradientUnits="userSpaceOnUse"><stop offset="0" stop-color="#fff"/><stop offset="1" stop-color="#fff"/></linearGradient><linearGradient id="linear-gradient-13" x1="-2523.3" y1="-2566.4" x2="-2523.3" y2="-2567.1" gradientTransform="translate(2551.2 2580.1)" xlink:href="#linear-gradient-12"/><linearGradient id="linear-gradient-14" x1="-2520.5" y1="-2566.4" x2="-2520.5" y2="-2567.1" gradientTransform="translate(2548.4 2577.3)" xlink:href="#linear-gradient-12"/><linearGradient id="linear-gradient-15" x1="-2517.7" y1="-2566.4" x2="-2517.7" y2="-2567.1" gradientTransform="translate(2545.6 2574.5)" xlink:href="#linear-gradient-12"/><linearGradient id="linear-gradient-16" x1="-2515" y1="-2566.4" x2="-2515" y2="-2567.1" gradientTransform="translate(2542.8 2571.8)" xlink:href="#linear-gradient-12"/><linearGradient id="linear-gradient-17" x1="-2512.2" y1="-2566.4" x2="-2512.2" y2="-2567.1" gradientTransform="translate(2540.1 2569)" xlink:href="#linear-gradient-12"/><linearGradient id="linear-gradient-18" x1="16.3" y1="-2.5" x2="24.3" y2="22.1" gradientTransform="translate(29.1 -11) rotate(90)" gradientUnits="userSpaceOnUse"><stop offset="0" stop-color="#fff"/><stop offset="1" stop-color="#fff"/></linearGradient><linearGradient id="linear-gradient-19" x1="-2526" y1="-2523.1" x2="-2526" y2="-2523.8" gradientTransform="translate(2544 -2507.5) scale(1 -1)" xlink:href="#linear-gradient-12"/><linearGradient id="linear-gradient-20" x1="-2523.3" y1="-2523.1" x2="-2523.3" y2="-2523.8" gradientTransform="translate(2541.2 -2510.3) scale(1 -1)" xlink:href="#linear-gradient-12"/><linearGradient id="linear-gradient-21" x1="-2520.5" y1="-2523.1" x2="-2520.5" y2="-2523.8" gradientTransform="translate(2538.4 -2513.1) scale(1 -1)" xlink:href="#linear-gradient-12"/><linearGradient id="linear-gradient-22" x1="-2517.7" y1="-2523.1" x2="-2517.7" y2="-2523.8" gradientTransform="translate(2535.7 -2515.8) scale(1 -1)" xlink:href="#linear-gradient-12"/><linearGradient id="linear-gradient-23" x1="-2515" y1="-2523.1" x2="-2515" y2="-2523.8" gradientTransform="translate(2532.9 -2518.6) scale(1 -1)" xlink:href="#linear-gradient-12"/><linearGradient id="linear-gradient-24" x1="-2512.2" y1="-2523.1" x2="-2512.2" y2="-2523.8" gradientTransform="translate(2530.1 -2521.4) scale(1 -1)" xlink:href="#linear-gradient-12"/><linearGradient id="linear-gradient-25" x1="2749.6" y1="-2503.2" x2="2749.6" y2="-2493" gradientTransform="translate(-2678.4 2572.5)" gradientUnits="userSpaceOnUse"><stop offset="0" stop-color="#fff"/><stop offset=".9" stop-color="#fff"/><stop offset="1" stop-color="#fff"/></linearGradient><linearGradient id="linear-gradient-26" x1="2742.5" y1="-2496.8" x2="2742.5" y2="-2497.5" gradientTransform="translate(-2673.5 2563.3)" xlink:href="#linear-gradient-12"/><linearGradient id="linear-gradient-27" x1="2745.3" y1="-2496.8" x2="2745.3" y2="-2497.5" gradientTransform="translate(-2676.3 2566.1)" xlink:href="#linear-gradient-12"/><linearGradient id="linear-gradient-28" x1="2748.1" y1="-2496.8" x2="2748.1" y2="-2497.5" gradientTransform="translate(-2679.1 2568.9)" xlink:href="#linear-gradient-12"/><linearGradient id="linear-gradient-29" x1="2750.9" y1="-2496.8" x2="2750.9" y2="-2497.5" gradientTransform="translate(-2681.8 2571.6)" xlink:href="#linear-gradient-12"/><linearGradient id="linear-gradient-30" x1="2753.6" y1="-2496.8" x2="2753.6" y2="-2497.5" gradientTransform="translate(-2684.6 2574.4)" xlink:href="#linear-gradient-12"/><linearGradient id="linear-gradient-31" x1="2756.4" y1="-2496.8" x2="2756.4" y2="-2497.5" gradientTransform="translate(-2687.4 2577.2)" xlink:href="#linear-gradient-12"/><linearGradient id="linear-gradient-32" x1="2749.6" y1="-2599.1" x2="2749.6" y2="-2588.9" gradientTransform="translate(-2672.7 -2522.1) scale(1 -1)" xlink:href="#linear-gradient-25"/><linearGradient id="linear-gradient-33" x1="2742.5" y1="-2592.7" x2="2742.5" y2="-2593.4" gradientTransform="translate(-2663.6 -2527) scale(1 -1)" xlink:href="#linear-gradient-12"/><linearGradient id="linear-gradient-34" x1="2745.3" y1="-2592.7" x2="2745.3" y2="-2593.4" gradientTransform="translate(-2666.3 -2524.3) scale(1 -1)" xlink:href="#linear-gradient-12"/><linearGradient id="linear-gradient-35" x1="2748.1" y1="-2592.7" x2="2748.1" y2="-2593.4" gradientTransform="translate(-2669.1 -2521.5) scale(1 -1)" xlink:href="#linear-gradient-12"/><linearGradient id="linear-gradient-36" x1="2750.9" y1="-2592.7" x2="2750.9" y2="-2593.4" gradientTransform="translate(-2671.9 -2518.7) scale(1 -1)" xlink:href="#linear-gradient-12"/><linearGradient id="linear-gradient-37" x1="2753.6" y1="-2592.7" x2="2753.6" y2="-2593.4" gradientTransform="translate(-2674.6 -2516) scale(1 -1)" xlink:href="#linear-gradient-12"/><linearGradient id="linear-gradient-38" x1="2756.4" y1="-2592.7" x2="2756.4" y2="-2593.4" gradientTransform="translate(-2677.4 -2513.2) scale(1 -1)" xlink:href="#linear-gradient-12"/><linearGradient id="linear-gradient-39" x1="2749.6" y1="-2577.3" x2="2749.6" y2="-2567" gradientTransform="translate(-2650.9 -2500.3) scale(1 -1)" xlink:href="#linear-gradient-25"/><linearGradient id="linear-gradient-40" x1="2742.5" y1="-2570.8" x2="2742.5" y2="-2571.5" gradientTransform="translate(-2641.7 -2505.2) scale(1 -1)" xlink:href="#linear-gradient-12"/><linearGradient id="linear-gradient-41" x1="2745.3" y1="-2570.8" x2="2745.3" y2="-2571.5" gradientTransform="translate(-2644.5 -2502.4) scale(1 -1)" xlink:href="#linear-gradient-12"/><linearGradient id="linear-gradient-42" x1="2748.1" y1="-2570.8" x2="2748.1" y2="-2571.5" gradientTransform="translate(-2647.3 -2499.6) scale(1 -1)" xlink:href="#linear-gradient-12"/><linearGradient id="linear-gradient-43" x1="2750.9" y1="-2570.8" x2="2750.9" y2="-2571.5" gradientTransform="translate(-2650 -2496.9) scale(1 -1)" xlink:href="#linear-gradient-12"/><linearGradient id="linear-gradient-44" x1="2753.6" y1="-2570.8" x2="2753.6" y2="-2571.5" gradientTransform="translate(-2652.8 -2494.1) scale(1 -1)" xlink:href="#linear-gradient-12"/><linearGradient id="linear-gradient-45" x1="2756.4" y1="-2570.8" x2="2756.4" y2="-2571.5" gradientTransform="translate(-2655.6 -2491.3) scale(1 -1)" xlink:href="#linear-gradient-12"/><linearGradient id="linear-gradient-46" x1="-1.4" x2="6.6" y2="22.1" gradientTransform="translate(11.4 6.7) rotate(90)" xlink:href="#linear-gradient-18"/><linearGradient id="linear-gradient-47" x1="-2526" y1="-2505.4" x2="-2526" y2="-2506.1" gradientTransform="translate(2526.2 -2489.8) scale(1 -1)" xlink:href="#linear-gradient-12"/><linearGradient id="linear-gradient-48" x1="-2523.3" y1="-2505.4" x2="-2523.3" y2="-2506.1" gradientTransform="translate(2523.5 -2492.6) scale(1 -1)" xlink:href="#linear-gradient-12"/><linearGradient id="linear-gradient-49" x1="-2520.5" y1="-2505.4" x2="-2520.5" y2="-2506.1" gradientTransform="translate(2520.7 -2495.3) scale(1 -1)" xlink:href="#linear-gradient-12"/><linearGradient id="linear-gradient-50" x1="-2517.7" y1="-2505.4" x2="-2517.7" y2="-2506.1" gradientTransform="translate(2517.9 -2498.1) scale(1 -1)" xlink:href="#linear-gradient-12"/><linearGradient id="linear-gradient-51" x1="-2515" y1="-2505.4" x2="-2515" y2="-2506.1" gradientTransform="translate(2515.2 -2500.9) scale(1 -1)" xlink:href="#linear-gradient-12"/><linearGradient id="linear-gradient-52" x1="-2512.2" y1="-2505.4" x2="-2512.2" y2="-2506.1" gradientTransform="translate(2512.4 -2503.7) scale(1 -1)" xlink:href="#linear-gradient-12"/></defs><rect x=".4" y="80.6" width="110.4" height="4" rx="2" ry="2" fill="url(#linear-gradient)" stroke-width="0"/><path d="M100.3,37.5c-1.9,1.4-3.5,2.6-6.5,3h-2.8c-3-.2-4.7-1.6-6.5-3-2.1-1.6-4.7-3.5-9.1-3.7h-2.8c-4.4.2-6.8,2.1-9.1,3.7-1.9,1.4-3.5,2.6-6.5,3h-2.8c-3-.2-4.7-1.6-6.5-3-2.1-1.6-4.7-3.5-9.1-3.7h-2.8c-4.4.2-6.8,2.1-9.1,3.7-1.9,1.4-3.5,2.6-6.5,3h-2.8c-3-.2-4.7-1.6-6.5-3-2.1-1.6-4.7-3.5-9.1-3.7H.3v4.2c4,0,5.8,1.4,7.9,3,2.3,1.9,5.1,4,10.5,4s8.2-2.1,10.5-4c2.1-1.6,4-3,7.9-3s5.8,1.4,7.9,3c2.3,1.9,5.1,4,10.5,4s8.2-2.1,10.5-4c2.1-1.6,4-3,7.9-3s5.8,1.4,7.9,3c2.3,1.9,5.1,4,10.5,4s8.2-2.1,10.5-4c2.1-1.6,4-3,7.9-3v-4.2h-1.4c-4.4.2-6.8,2.1-9.1,3.7Z" fill="url(#linear-gradient-2)" stroke-width="0"/><path d="M110.8,25v4.2c-4,0-5.8,1.4-7.9,3-2.3,1.9-5.1,4-10.5,4s-8.2-2.1-10.5-4c-2.1-1.6-4-3-7.9-3s-3.2.3-4.4.8c-1.4.6-2.4,1.4-3.5,2.2-2.3,1.9-5.1,4-10.5,4s-8.2-2.1-10.5-4c-1.1-.9-2.2-1.7-3.5-2.2-1.2-.5-2.6-.8-4.4-.8-4,0-5.8,1.4-7.9,3-2.3,1.9-5.1,4-10.5,4s-8.2-2.1-10.5-4c-2.1-1.6-4-3-7.9-3v-4.2h1.4c4.4.2,7,2.1,9.1,3.7,1.9,1.4,3.5,2.8,6.5,3h2.8c3-.5,4.7-1.6,6.5-3,2.3-1.6,4.7-3.5,9.1-3.7h2.8c1.1,0,2.1.2,3,.4,2.7.7,4.5,2.1,6.1,3.3,1.9,1.4,3.5,2.8,6.5,3h2.8c3-.5,4.7-1.6,6.5-3,1.7-1.2,3.5-2.6,6.1-3.3.9-.2,1.9-.4,3-.5h2.8c4.4.2,7,2.1,9.1,3.7,1.9,1.4,3.5,2.8,6.5,3h2.8c3-.5,4.7-1.6,6.5-3,2.3-1.6,4.7-3.5,9.1-3.7h1.4Z" fill="url(#linear-gradient-3)" stroke-width="0"/><circle cx="22.9" cy="62.3" r="1.8" fill="url(#linear-gradient-4)" stroke-width="0"/><circle cx="86.8" cy="60.6" r="1.8" fill="url(#linear-gradient-5)" stroke-width="0"/><circle cx="106" cy="50.5" r="1.6" fill="url(#linear-gradient-6)" stroke-width="0"/><circle cx="5.3" cy="48.6" r="1.6" fill="url(#linear-gradient-7)" stroke-width="0"/><circle cx="68.9" cy="47.8" r="1.4" fill="url(#linear-gradient-8)" stroke-width="0"/><path d="M36.6,22.7c0-3.7-3-6.7-6.7-6.7H4.3V2h25.7c11.4,0,20.7,9.3,20.7,20.7v8c-1.1-.6-2-1.3-3-2-1.6-1.2-3.4-2.6-6.1-3.3-.9-.2-1.9-.4-3-.5h-1.9v-2.2Z" fill="url(#linear-gradient-9)" stroke-width="0"/><path d="M96.8,66.6v14h-39.5c-11.4,0-20.7-9.3-20.7-20.7v-26.1h1.9c4.4.2,7,2.1,9.1,3.7,1,.7,1.9,1.5,3,2v20.3c0,3.7,3,6.7,6.7,6.7h39.5Z" fill="url(#linear-gradient-10)" stroke-width="0"/><rect x="16.7" y="7.1" width="18.1" height="3.8" rx=".7" ry=".7" transform="translate(16.7 34.8) rotate(-90)" fill="url(#linear-gradient-11)" stroke-width="0"/><path d="M27.3,15.8h1.1v.4s0,0,0,0h-.9s0,0,0,0v-.4h0Z" transform="translate(11.8 43.9) rotate(-90)" fill="url(#linear-gradient-12)" stroke-width="0"/><path d="M27.3,13.1h1.1v.4s0,0,0,0h-.9s0,0,0,0v-.4h0Z" transform="translate(14.6 41.2) rotate(-90)" fill="url(#linear-gradient-13)" stroke-width="0"/><path d="M27.3,10.3h1.1v.4s0,0,0,0h-.9s0,0,0,0v-.4h0Z" transform="translate(17.4 38.4) rotate(-90)" fill="url(#linear-gradient-14)" stroke-width="0"/><path d="M27.3,7.5h1.1v.4s0,0,0,0h-.9s0,0,0,0v-.4h0Z" transform="translate(20.1 35.6) rotate(-90)" fill="url(#linear-gradient-15)" stroke-width="0"/><path d="M27.3,4.8h1.1v.4s0,0,0,0h-.9s0,0,0,0v-.4h0Z" transform="translate(22.9 32.9) rotate(-90)" fill="url(#linear-gradient-16)" stroke-width="0"/><path d="M27.3,2h1.1v.4s0,0,0,0h-.9s0,0,0,0v-.4h0Z" transform="translate(25.7 30.1) rotate(-90)" fill="url(#linear-gradient-17)" stroke-width="0"/><rect x="11" y="7.1" width="18.1" height="3.8" rx=".7" ry=".7" transform="translate(11 29.1) rotate(-90)" fill="url(#linear-gradient-18)" stroke-width="0"/><path d="M17.5,15.8h.9s0,0,0,0v.4h-1.1v-.4s0,0,0,0Z" transform="translate(1.9 34) rotate(-90)" fill="url(#linear-gradient-19)" stroke-width="0"/><path d="M17.5,13.1h.9s0,0,0,0v.4h-1.1v-.4s0,0,0,0Z" transform="translate(4.6 31.2) rotate(-90)" fill="url(#linear-gradient-20)" stroke-width="0"/><path d="M17.5,10.3h.9s0,0,0,0v.4h-1.1v-.4s0,0,0,0Z" transform="translate(7.4 28.4) rotate(-90)" fill="url(#linear-gradient-21)" stroke-width="0"/><path d="M17.5,7.5h.9s0,0,0,0v.4h-1.1v-.4s0,0,0,0Z" transform="translate(10.2 25.7) rotate(-90)" fill="url(#linear-gradient-22)" stroke-width="0"/><path d="M17.5,4.8h.9s0,0,0,0v.4h-1.1v-.4s0,0,0,0Z" transform="translate(13 22.9) rotate(-90)" fill="url(#linear-gradient-23)" stroke-width="0"/><path d="M17.5,2h.9s0,0,0,0v.4h-1.1v-.4s0,0,0,0Z" transform="translate(15.7 20.1) rotate(-90)" fill="url(#linear-gradient-24)" stroke-width="0"/><rect x="62.1" y="71.2" width="18.1" height="3.8" rx=".7" ry=".7" transform="translate(144.3 2) rotate(90)" fill="url(#linear-gradient-25)" stroke-width="0"/><path d="M68.5,65.9h1.1v.4s0,0,0,0h-.9s0,0,0,0v-.4h0Z" transform="translate(135.1 -2.9) rotate(90)" fill="url(#linear-gradient-26)" stroke-width="0"/><path d="M68.5,68.6h1.1v.4s0,0,0,0h-.9s0,0,0,0v-.4h0Z" transform="translate(137.9 -.2) rotate(90)" fill="url(#linear-gradient-27)" stroke-width="0"/><path d="M68.5,71.4h1.1v.4s0,0,0,0h-.9s0,0,0,0v-.4h0Z" transform="translate(140.7 2.6) rotate(90)" fill="url(#linear-gradient-28)" stroke-width="0"/><path d="M68.5,74.2h1.1v.4s0,0,0,0h-.9s0,0,0,0v-.4h0Z" transform="translate(143.4 5.4) rotate(90)" fill="url(#linear-gradient-29)" stroke-width="0"/><path d="M68.5,77h1.1v.4s0,0,0,0h-.9s0,0,0,0v-.4h0Z" transform="translate(146.2 8.2) rotate(90)" fill="url(#linear-gradient-30)" stroke-width="0"/><path d="M68.5,79.7h1.1v.4s0,0,0,0h-.9s0,0,0,0v-.4h0Z" transform="translate(149 10.9) rotate(90)" fill="url(#linear-gradient-31)" stroke-width="0"/><rect x="67.8" y="71.2" width="18.1" height="3.8" rx=".7" ry=".7" transform="translate(150 -3.7) rotate(90)" fill="url(#linear-gradient-32)" stroke-width="0"/><path d="M78.5,65.9h.9s0,0,0,0v.4h-1.1v-.4s0,0,0,0Z" transform="translate(145.1 -12.9) rotate(90)" fill="url(#linear-gradient-33)" stroke-width="0"/><path d="M78.5,68.6h.9s0,0,0,0v.4h-1.1v-.4s0,0,0,0Z" transform="translate(147.8 -10.1) rotate(90)" fill="url(#linear-gradient-34)" stroke-width="0"/><path d="M78.5,71.4h.9s0,0,0,0v.4h-1.1v-.4s0,0,0,0Z" transform="translate(150.6 -7.3) rotate(90)" fill="url(#linear-gradient-35)" stroke-width="0"/><path d="M78.5,74.2h.9s0,0,0,0v.4h-1.1v-.4s0,0,0,0Z" transform="translate(153.4 -4.6) rotate(90)" fill="url(#linear-gradient-36)" stroke-width="0"/><path d="M78.5,77h.9s0,0,0,0v.4h-1.1v-.4s0,0,0,0Z" transform="translate(156.2 -1.8) rotate(90)" fill="url(#linear-gradient-37)" stroke-width="0"/><path d="M78.5,79.7h.9s0,0,0,0v.4h-1.1v-.4s0,0,0,0Z" transform="translate(158.9 1) rotate(90)" fill="url(#linear-gradient-38)" stroke-width="0"/><rect x="89.7" y="71.2" width="18.1" height="3.8" rx=".7" ry=".7" transform="translate(171.8 -25.6) rotate(90)" fill="url(#linear-gradient-39)" stroke-width="0"/><path d="M100.4,65.9h.9s0,0,0,0v.4h-1.1v-.4s0,0,0,0Z" transform="translate(166.9 -34.7) rotate(90)" fill="url(#linear-gradient-40)" stroke-width="0"/><path d="M100.4,68.6h.9s0,0,0,0v.4h-1.1v-.4s0,0,0,0Z" transform="translate(169.7 -32) rotate(90)" fill="url(#linear-gradient-41)" stroke-width="0"/><path d="M100.4,71.4h.9s0,0,0,0v.4h-1.1v-.4s0,0,0,0Z" transform="translate(172.5 -29.2) rotate(90)" fill="url(#linear-gradient-42)" stroke-width="0"/><path d="M100.4,74.2h.9s0,0,0,0v.4h-1.1v-.4s0,0,0,0Z" transform="translate(175.2 -26.4) rotate(90)" fill="url(#linear-gradient-43)" stroke-width="0"/><path d="M100.4,77h.9s0,0,0,0v.4h-1.1v-.4s0,0,0,0Z" transform="translate(178 -23.7) rotate(90)" fill="url(#linear-gradient-44)" stroke-width="0"/><path d="M100.4,79.7h.9s0,0,0,0v.4h-1.1v-.4s0,0,0,0Z" transform="translate(180.8 -20.9) rotate(90)" fill="url(#linear-gradient-45)" stroke-width="0"/><rect x="-6.7" y="7.1" width="18.1" height="3.8" rx=".7" ry=".7" transform="translate(-6.7 11.4) rotate(-90)" fill="url(#linear-gradient-46)" stroke-width="0"/><path d="M-.3,15.8h.9s0,0,0,0v.4H-.3v-.4s0,0,0,0Z" transform="translate(-15.8 16.3) rotate(-90)" fill="url(#linear-gradient-47)" stroke-width="0"/><path d="M-.3,13.1h.9s0,0,0,0v.4H-.3v-.4s0,0,0,0Z" transform="translate(-13.1 13.5) rotate(-90)" fill="url(#linear-gradient-48)" stroke-width="0"/><path d="M-.3,10.3h.9s0,0,0,0v.4H-.3v-.4s0,0,0,0Z" transform="translate(-10.3 10.7) rotate(-90)" fill="url(#linear-gradient-49)" stroke-width="0"/><path d="M-.3,7.5h.9s0,0,0,0v.4H-.3v-.4s0,0,0,0Z" transform="translate(-7.5 8) rotate(-90)" fill="url(#linear-gradient-50)" stroke-width="0"/><path d="M-.3,4.8h.9s0,0,0,0v.4H-.3v-.4s0,0,0,0Z" transform="translate(-4.8 5.2) rotate(-90)" fill="url(#linear-gradient-51)" stroke-width="0"/><path d="M-.3,2h.9s0,0,0,0v.4H-.3v-.4s0,0,0,0Z" transform="translate(-2 2.4) rotate(-90)" fill="url(#linear-gradient-52)" stroke-width="0"/></svg>