<?xml version="1.0" encoding="UTF-8"?><svg id="Layer_1" xmlns="http://www.w3.org/2000/svg" width="108.9" height="64.8" xmlns:xlink="http://www.w3.org/1999/xlink" viewBox="0 0 108.9 64.8"><defs><linearGradient id="linear-gradient" x1="37.4" y1="-18.7" x2="95.2" y2="74.6" gradientUnits="userSpaceOnUse"><stop offset="0" stop-color="#fff"/><stop offset="1" stop-color="#fff"/></linearGradient><linearGradient id="linear-gradient-2" x1="18.7" y1="14.7" x2="72.4" y2="101.5" xlink:href="#linear-gradient"/><linearGradient id="linear-gradient-3" x1="37.5" y1="-17.3" x2="93.3" y2="72.9" xlink:href="#linear-gradient"/><linearGradient id="linear-gradient-4" x1="43.1" y1="-24.6" x2="108.6" y2="81.2" xlink:href="#linear-gradient"/><linearGradient id="linear-gradient-5" x1="62.3" y1="-40.7" x2="119.4" y2="51.7" xlink:href="#linear-gradient"/><linearGradient id="linear-gradient-6" x1="-2.7" y1="2.8" x2="53.4" y2="93.4" xlink:href="#linear-gradient"/><linearGradient id="linear-gradient-7" x1="545.5" y1="-5467.6" x2="707.9" y2="-5467.6" gradientTransform="translate(5522.4 692.8) rotate(-90)" gradientUnits="userSpaceOnUse"><stop offset="0" stop-color="#fff"/><stop offset="1" stop-color="#fff"/></linearGradient><linearGradient id="linear-gradient-8" x1="2550.2" y1="-2714.5" x2="2550.2" y2="-2702.4" gradientTransform="translate(-2497.2 2757.6)" gradientUnits="userSpaceOnUse"><stop offset="0" stop-color="#fff"/><stop offset=".9" stop-color="#fff"/><stop offset="1" stop-color="#fff"/></linearGradient><linearGradient id="linear-gradient-9" x1="2541.9" y1="-2706.9" x2="2541.9" y2="-2707.7" gradientTransform="translate(-2491.4 2746.7)" gradientUnits="userSpaceOnUse"><stop offset="0" stop-color="#fff"/><stop offset="1" stop-color="#fff"/></linearGradient><linearGradient id="linear-gradient-10" x1="2545.2" x2="2545.2" gradientTransform="translate(-2494.6 2750)" xlink:href="#linear-gradient-9"/><linearGradient id="linear-gradient-11" x1="2548.5" y1="-2706.9" x2="2548.5" y2="-2707.7" gradientTransform="translate(-2497.9 2753.3)" xlink:href="#linear-gradient-9"/><linearGradient id="linear-gradient-12" x1="2551.8" y1="-2706.9" x2="2551.8" y2="-2707.7" gradientTransform="translate(-2501.2 2756.6)" xlink:href="#linear-gradient-9"/><linearGradient id="linear-gradient-13" x1="2555" y1="-2706.9" x2="2555" y2="-2707.7" gradientTransform="translate(-2504.5 2759.9)" xlink:href="#linear-gradient-9"/><linearGradient id="linear-gradient-14" x1="2558.3" y1="-2706.9" x2="2558.3" y2="-2707.7" gradientTransform="translate(-2507.8 2763.1)" xlink:href="#linear-gradient-9"/><linearGradient id="linear-gradient-15" x1="2550.2" y1="-2418.4" x2="2550.2" y2="-2406.3" gradientTransform="translate(-2491.4 -2366.3) scale(1 -1)" xlink:href="#linear-gradient-8"/><linearGradient id="linear-gradient-16" x1="2541.9" y1="-2410.8" x2="2541.9" y2="-2411.6" gradientTransform="translate(-2480.5 -2372.1) scale(1 -1)" xlink:href="#linear-gradient-9"/><linearGradient id="linear-gradient-17" x1="2545.2" y1="-2410.8" x2="2545.2" y2="-2411.6" gradientTransform="translate(-2483.8 -2368.8) scale(1 -1)" xlink:href="#linear-gradient-9"/><linearGradient id="linear-gradient-18" x1="2548.5" y1="-2410.8" x2="2548.5" y2="-2411.6" gradientTransform="translate(-2487.1 -2365.5) scale(1 -1)" xlink:href="#linear-gradient-9"/><linearGradient id="linear-gradient-19" x1="2551.8" y1="-2410.8" x2="2551.8" y2="-2411.6" gradientTransform="translate(-2490.4 -2362.2) scale(1 -1)" xlink:href="#linear-gradient-9"/><linearGradient id="linear-gradient-20" x1="2555" y1="-2410.8" x2="2555" y2="-2411.6" gradientTransform="translate(-2493.7 -2358.9) scale(1 -1)" xlink:href="#linear-gradient-9"/><linearGradient id="linear-gradient-21" x1="2558.3" y1="-2410.8" x2="2558.3" y2="-2411.6" gradientTransform="translate(-2497 -2355.6) scale(1 -1)" xlink:href="#linear-gradient-9"/><linearGradient id="linear-gradient-22" x1="2550.2" y1="-2666" x2="2550.2" y2="-2653.8" gradientTransform="translate(-2545.7 2709)" xlink:href="#linear-gradient-8"/><linearGradient id="linear-gradient-23" x1="2541.9" y1="-2658.4" x2="2541.9" y2="-2659.2" gradientTransform="translate(-2539.9 2698.2)" xlink:href="#linear-gradient-9"/><linearGradient id="linear-gradient-24" x1="2545.2" y1="-2658.4" x2="2545.2" y2="-2659.2" gradientTransform="translate(-2543.2 2701.5)" xlink:href="#linear-gradient-9"/><linearGradient id="linear-gradient-25" x1="2548.5" y1="-2658.4" x2="2548.5" y2="-2659.2" gradientTransform="translate(-2546.5 2704.7)" xlink:href="#linear-gradient-9"/><linearGradient id="linear-gradient-26" x1="2551.8" y1="-2658.4" x2="2551.8" y2="-2659.2" gradientTransform="translate(-2549.8 2708)" xlink:href="#linear-gradient-9"/><linearGradient id="linear-gradient-27" x1="2555" y1="-2658.4" x2="2555" y2="-2659.2" gradientTransform="translate(-2553 2711.3)" xlink:href="#linear-gradient-9"/><linearGradient id="linear-gradient-28" x1="2558.3" y1="-2658.4" x2="2558.3" y2="-2659.2" gradientTransform="translate(-2556.3 2714.6)" xlink:href="#linear-gradient-9"/><linearGradient id="linear-gradient-29" x1="2550.2" y1="-2460" x2="2550.2" y2="-2447.9" gradientTransform="translate(-2445.1 -2407.9) scale(1 -1)" xlink:href="#linear-gradient-8"/><linearGradient id="linear-gradient-30" x1="2541.9" y1="-2452.4" x2="2541.9" y2="-2453.2" gradientTransform="translate(-2434.2 -2413.7) scale(1 -1)" xlink:href="#linear-gradient-9"/><linearGradient id="linear-gradient-31" x1="2545.2" y1="-2452.4" x2="2545.2" y2="-2453.2" gradientTransform="translate(-2437.5 -2410.4) scale(1 -1)" xlink:href="#linear-gradient-9"/><linearGradient id="linear-gradient-32" x1="2548.5" y1="-2452.4" x2="2548.5" y2="-2453.2" gradientTransform="translate(-2440.8 -2407.1) scale(1 -1)" xlink:href="#linear-gradient-9"/><linearGradient id="linear-gradient-33" x1="2551.8" y1="-2452.4" x2="2551.8" y2="-2453.2" gradientTransform="translate(-2444.1 -2403.8) scale(1 -1)" xlink:href="#linear-gradient-9"/><linearGradient id="linear-gradient-34" x1="2555" y1="-2452.4" x2="2555" y2="-2453.2" gradientTransform="translate(-2447.4 -2400.5) scale(1 -1)" xlink:href="#linear-gradient-9"/><linearGradient id="linear-gradient-35" x1="2558.3" y1="-2452.4" x2="2558.3" y2="-2453.2" gradientTransform="translate(-2450.6 -2397.2) scale(1 -1)" xlink:href="#linear-gradient-9"/><linearGradient id="linear-gradient-36" x1="2215.7" y1="54.7" x2="2221.6" y2="54.7" gradientTransform="translate(2246.5) rotate(-180) scale(1 -1)" gradientUnits="userSpaceOnUse"><stop offset="0" stop-color="#fff"/><stop offset="1" stop-color="#fff"/></linearGradient><linearGradient id="linear-gradient-37" x1="-1012.2" y1="60.3" x2="-1017.9" y2="59.3" gradientTransform="translate(1044.7)" gradientUnits="userSpaceOnUse"><stop offset="0" stop-color="#fff"/><stop offset="1" stop-color="#fff"/></linearGradient><linearGradient id="linear-gradient-38" x1="-1016.7" y1="63.9" x2="-1016.2" y2="65.9" xlink:href="#linear-gradient-37"/><linearGradient id="linear-gradient-39" x1="2239.8" y1="54.7" x2="2245.7" y2="54.7" gradientTransform="translate(-2158.6)" xlink:href="#linear-gradient-36"/><linearGradient id="linear-gradient-40" x1="-1036.3" y1="60.3" x2="-1042" y2="59.3" gradientTransform="translate(-956.9) rotate(-180) scale(1 -1)" xlink:href="#linear-gradient-37"/><linearGradient id="linear-gradient-41" x1="-1040.8" y1="63.9" x2="-1040.2" y2="65.9" gradientTransform="translate(-956.9) rotate(-180) scale(1 -1)" xlink:href="#linear-gradient-37"/></defs><path d="M25.8,11.2c-1.7,0-3.3-.7-4.4-2l-2.7-3c-.7-.8-1.8-.9-2.6-.3l-4.4,4.4c-2.3,1.8-5.6,1.6-7.7-.5s-1.4-.7-1.9-.7c-1.3,0-2.3-1.2-1.9-2.6s1.2-1.5,2.2-1.4c1.5,0,3.3.8,4.3,1.8s1.8.8,2.6.2l4.4-4.4c2.5-1.9,6-1.5,8.1.8l2.7,3c.6.7,1.6.9,2.4.4l4.4-2.4c1.6-.9,3.5-1,5.1-.3l5.3,2.2c.7.3,1.5.2,2.1-.4s.3-.2.4-.3l6.5-4.3s0,0,0,0c1.9-1.6,4.6-1.9,6.8-.6l9,5.1c.3.2.5.2.8.3l7.8-2.7c1.2-.4,2.4-.4,3.6,0l7,4.5c.7.3,1.4.1,2-.3,0,0,.1-.1.2-.2l4.4-2.8c2.1-1.7,5.1-1.8,7.3-.1l4.6,3.5c.2.2.5.4,2.7.4s2.2.9,2.1,2-.9,2-2,2c-2.9,0-4.1-.3-5.3-1.2l-4.7-3.5c-.7-.5-1.7-.4-2.3.2s-.2.1-.2.2l-4.4,2.8c-1.7,1.4-3.9,1.7-6,.9l-7-4.5c-.2,0-.5,0-.7,0l-8.2,2.9c-.2,0-.4.1-.7.1-1,0-2.1-.3-3-.8l-9-5.1c-.8-.4-1.7-.4-2.3.2s-7,4.7-7,4.7c-1.7,1.4-4.1,1.8-6.1.9l-5.3-2.2c-.5-.2-1.2-.2-1.7,0l-4.4,2.4c-.9.5-1.9.7-2.9.7Z" fill="url(#linear-gradient)" stroke-width="0"/><path d="M29.6,31.8h-2.6c-.8,0-1.5-.7-1.5-1.5s.7-1.5,1.5-1.5h2.6c.8,0,1.5.7,1.5,1.5s-.7,1.5-1.5,1.5Z" fill="url(#linear-gradient-2)" stroke-width="0"/><path d="M57.6,14.5h-2.7c-.8,0-1.5-.7-1.5-1.5s.7-1.5,1.5-1.5h2.7c.8,0,1.5.7,1.5,1.5s-.7,1.5-1.5,1.5Z" fill="url(#linear-gradient-3)" stroke-width="0"/><path d="M76.5,29.2h-2.1c-.8,0-1.5-.7-1.5-1.5s.7-1.5,1.5-1.5h2.1c.8,0,1.5.7,1.5,1.5s-.7,1.5-1.5,1.5Z" fill="url(#linear-gradient-4)" stroke-width="0"/><path d="M100.3,20.4h-2.3c-.8,0-1.5-.7-1.5-1.5s.7-1.5,1.5-1.5h2.3c.8,0,1.5.7,1.5,1.5s-.7,1.5-1.5,1.5Z" fill="url(#linear-gradient-5)" stroke-width="0"/><path d="M7.9,19.6h-2.1c-.8,0-1.5-.7-1.5-1.5s.7-1.5,1.5-1.5h2.1c.8,0,1.5.7,1.5,1.5s-.7,1.5-1.5,1.5Z" fill="url(#linear-gradient-6)" stroke-width="0"/><rect x="45.9" y="-.4" width="17.9" height="96.1" transform="translate(7.2 102.5) rotate(-90)" fill="url(#linear-gradient-7)" stroke-width="0"/><rect x="42.4" y="45.3" width="21.4" height="4.5" rx=".8" ry=".8" transform="translate(100.7 -5.5) rotate(90)" fill="url(#linear-gradient-8)" stroke-width="0"/><path d="M49.9,39h1.3v.4c0,0,0,0,0,0h-1.1c0,0,0,0,0,0v-.4h0Z" transform="translate(89.8 -11.3) rotate(90)" fill="url(#linear-gradient-9)" stroke-width="0"/><path d="M49.9,42.3h1.3v.4c0,0,0,0,0,0h-1.1c0,0,0,0,0,0v-.4h0Z" transform="translate(93.1 -8) rotate(90)" fill="url(#linear-gradient-10)" stroke-width="0"/><path d="M49.9,45.6h1.3v.4c0,0,0,0,0,0h-1.1c0,0,0,0,0,0v-.4h0Z" transform="translate(96.4 -4.7) rotate(90)" fill="url(#linear-gradient-11)" stroke-width="0"/><path d="M49.9,48.9h1.3v.4c0,0,0,0,0,0h-1.1c0,0,0,0,0,0v-.4h0Z" transform="translate(99.7 -1.4) rotate(90)" fill="url(#linear-gradient-12)" stroke-width="0"/><path d="M49.9,52.2h1.3v.4c0,0,0,0,0,0h-1.1c0,0,0,0,0,0v-.4h0Z" transform="translate(103 1.9) rotate(90)" fill="url(#linear-gradient-13)" stroke-width="0"/><path d="M49.9,55.4h1.3v.4c0,0,0,0,0,0h-1.1c0,0,0,0,0,0v-.4h0Z" transform="translate(106.3 5.2) rotate(90)" fill="url(#linear-gradient-14)" stroke-width="0"/><rect x="48.1" y="45.3" width="21.4" height="4.5" rx=".8" ry=".8" transform="translate(106.5 -11.2) rotate(90)" fill="url(#linear-gradient-15)" stroke-width="0"/><path d="M60.8,39h1.1c0,0,0,0,0,0v.4h-1.3v-.4c0,0,0,0,0,0Z" transform="translate(100.7 -22.1) rotate(90)" fill="url(#linear-gradient-16)" stroke-width="0"/><path d="M60.8,42.3h1.1c0,0,0,0,0,0v.4h-1.3v-.4c0,0,0,0,0,0Z" transform="translate(103.9 -18.8) rotate(90)" fill="url(#linear-gradient-17)" stroke-width="0"/><path d="M60.8,45.6h1.1c0,0,0,0,0,0v.4h-1.3v-.4c0,0,0,0,0,0Z" transform="translate(107.2 -15.5) rotate(90)" fill="url(#linear-gradient-18)" stroke-width="0"/><path d="M60.8,48.9h1.1c0,0,0,0,0,0v.4h-1.3v-.4c0,0,0,0,0,0Z" transform="translate(110.5 -12.2) rotate(90)" fill="url(#linear-gradient-19)" stroke-width="0"/><path d="M60.8,52.2h1.1c0,0,0,0,0,0v.4h-1.3v-.4c0,0,0,0,0,0Z" transform="translate(113.8 -8.9) rotate(90)" fill="url(#linear-gradient-20)" stroke-width="0"/><path d="M60.8,55.4h1.1c0,0,0,0,0,0v.4h-1.3v-.4c0,0,0,0,0,0Z" transform="translate(117.1 -5.7) rotate(90)" fill="url(#linear-gradient-21)" stroke-width="0"/><rect x="-6.2" y="45.3" width="21.4" height="4.5" rx=".8" ry=".8" transform="translate(52.2 43.1) rotate(90)" fill="url(#linear-gradient-22)" stroke-width="0"/><path d="M1.3,39h1.3v.4c0,0,0,0,0,0h-1.1c0,0,0,0,0,0v-.4h0Z" transform="translate(41.3 37.3) rotate(90)" fill="url(#linear-gradient-23)" stroke-width="0"/><path d="M1.3,42.3h1.3v.4c0,0,0,0,0,0h-1.1c0,0,0,0,0,0v-.4h0Z" transform="translate(44.6 40.6) rotate(90)" fill="url(#linear-gradient-24)" stroke-width="0"/><path d="M1.3,45.6h1.3v.4c0,0,0,0,0,0h-1.1c0,0,0,0,0,0v-.4h0Z" transform="translate(47.9 43.8) rotate(90)" fill="url(#linear-gradient-25)" stroke-width="0"/><path d="M1.3,48.9h1.3v.4c0,0,0,0,0,0h-1.1c0,0,0,0,0,0v-.4h0Z" transform="translate(51.1 47.1) rotate(90)" fill="url(#linear-gradient-26)" stroke-width="0"/><path d="M1.3,52.2h1.3v.4c0,0,0,0,0,0h-1.1c0,0,0,0,0,0v-.4h0Z" transform="translate(54.4 50.4) rotate(90)" fill="url(#linear-gradient-27)" stroke-width="0"/><path d="M1.3,55.4h1.3v.4c0,0,0,0,0,0h-1.1c0,0,0,0,0,0v-.4h0Z" transform="translate(57.7 53.7) rotate(90)" fill="url(#linear-gradient-28)" stroke-width="0"/><rect x="94.5" y="45.3" width="21.4" height="4.5" rx=".8" ry=".8" transform="translate(152.8 -57.5) rotate(90)" fill="url(#linear-gradient-29)" stroke-width="0"/><path d="M107.1,39h1.1c0,0,0,0,0,0v.4h-1.3v-.4c0,0,0,0,0,0Z" transform="translate(147 -68.4) rotate(90)" fill="url(#linear-gradient-30)" stroke-width="0"/><path d="M107.1,42.3h1.1c0,0,0,0,0,0v.4h-1.3v-.4c0,0,0,0,0,0Z" transform="translate(150.3 -65.1) rotate(90)" fill="url(#linear-gradient-31)" stroke-width="0"/><path d="M107.1,45.6h1.1c0,0,0,0,0,0v.4h-1.3v-.4c0,0,0,0,0,0Z" transform="translate(153.5 -61.8) rotate(90)" fill="url(#linear-gradient-32)" stroke-width="0"/><path d="M107.1,48.9h1.1c0,0,0,0,0,0v.4h-1.3v-.4c0,0,0,0,0,0Z" transform="translate(156.8 -58.6) rotate(90)" fill="url(#linear-gradient-33)" stroke-width="0"/><path d="M107.1,52.2h1.1c0,0,0,0,0,0v.4h-1.3v-.4c0,0,0,0,0,0Z" transform="translate(160.1 -55.3) rotate(90)" fill="url(#linear-gradient-34)" stroke-width="0"/><path d="M107.1,55.4h1.1c0,0,0,0,0,0v.4h-1.3v-.4c0,0,0,0,0,0Z" transform="translate(163.4 -52) rotate(90)" fill="url(#linear-gradient-35)" stroke-width="0"/><path d="M30.8,56.6v5.2l-3,2.8h-3v-19.8s0,0,0,0h2.2s0,0,0,0c0,.7,0,7.4,1.4,10.7s.4.9.9,1.1c0,0,.1,0,.2,0,0,0,.2,0,.3,0h.9Z" fill="url(#linear-gradient-36)" stroke-width="0"/><path d="M30.8,56.6v5.4l-3.1,2.7v-10.3c0-.3.2,0,.3.4.5,1.7,1,1.9,1.4,2,.5,0,.8-.2.8-.2h.6Z" fill="url(#linear-gradient-37)" stroke-width="0"/><polygon points="27.8 64.6 30.8 61.8 30.8 62 27.8 64.8 24.8 64.8 24.8 64.6 27.8 64.6" fill="url(#linear-gradient-38)" stroke-width="0"/><path d="M81.1,56.6v5.2s3,2.8,3,2.8h3s0-19.8,0-19.8c0,0,0,0,0,0h-2.2s0,0,0,0c0,.7,0,7.4-1.4,10.7-.2.4-.4.9-.9,1.1,0,0-.1,0-.2,0,0,0-.2,0-.3,0h-.9Z" fill="url(#linear-gradient-39)" stroke-width="0"/><path d="M81.1,56.6v5.4s3.1,2.7,3.1,2.7v-10.3c0-.3-.2,0-.3.4-.5,1.7-1,1.9-1.4,2-.5,0-.8-.2-.8-.2h-.6Z" fill="url(#linear-gradient-40)" stroke-width="0"/><polygon points="84.1 64.6 81.1 61.8 81.1 62 84.1 64.8 87.1 64.8 87.1 64.6 84.1 64.6" fill="url(#linear-gradient-41)" stroke-width="0"/></svg>