<?xml version="1.0" encoding="UTF-8"?>
<svg id="Layer_1" data-name="Layer 1" xmlns="http://www.w3.org/2000/svg" width="107.13" height="69.09" viewBox="0 0 107.13 69.09">
  <path d="m18.42,28.93c-9.05,0-16.39,8.99-16.39,20.08s7.34,20.08,16.39,20.08c.42,0,.83-.02,1.23-.06.23-.02.44-.04.66-.07.12-.02.24-.04.35-.06.18-.03.35-.06.52-.1.15-.02.29-.06.43-.1.86-.2,1.68-.48,2.48-.85.15-.06.29-.13.44-.21.21-.1.42-.21.62-.32.02-.01.04-.02.06-.04.28-.15.56-.32.84-.5.07-.05.15-.1.22-.15.04-.03.09-.06.13-.1h.01s.01,0,.02-.01c.27-.18.53-.37.79-.58.2-.15.39-.31.58-.47.08-.07.16-.13.23-.2.24-.21.47-.43.7-.66.49-.48.95-1,1.38-1.54.15-.18.29-.37.43-.56.18-.24.36-.48.52-.73.16-.25.32-.5.48-.76.15-.25.3-.5.44-.76.02-.03.04-.06.04-.08.3-.52.56-1.05.8-1.6.12-.27.24-.55.35-.83.01,0,.01-.02.01-.04.12-.29.23-.59.33-.89.21-.6.39-1.21.55-1.84.17-.66.31-1.33.42-2.01.05-.3.09-.6.13-.9s.07-.6.1-.9c.06-.71.09-1.43.09-2.16,0-11.09-7.34-20.08-16.38-20.08Zm12.75,12.38c.6,0,1.09.49,1.09,1.09s-.49,1.09-1.09,1.09-1.09-.49-1.09-1.09.49-1.09,1.09-1.09Zm-7.37-9.03c.6,0,1.09.49,1.09,1.09s-.49,1.09-1.09,1.09-1.09-.49-1.09-1.09.49-1.09,1.09-1.09Zm-5.39-1.33c.6,0,1.09.49,1.09,1.09s-.49,1.09-1.09,1.09-1.09-.49-1.09-1.09.49-1.09,1.09-1.09Zm-5.39,1.33c.6,0,1.09.49,1.09,1.09s-.49,1.09-1.09,1.09-1.09-.49-1.09-1.09.49-1.09,1.09-1.09Zm-4.4,3.64c.6,0,1.09.49,1.09,1.09s-.49,1.09-1.09,1.09-1.09-.49-1.09-1.09.49-1.09,1.09-1.09Zm-5.15,13.09c0-.6.49-1.09,1.09-1.09s1.09.49,1.09,1.09-.49,1.09-1.09,1.09-1.09-.49-1.09-1.09Zm2.18,7.7c-.6,0-1.09-.49-1.09-1.09s.49-1.09,1.09-1.09,1.09.49,1.09,1.09-.49,1.09-1.09,1.09Zm0-13.21c-.6,0-1.09-.49-1.09-1.09s.49-1.09,1.09-1.09,1.09.49,1.09,1.09-.49,1.09-1.09,1.09Zm2.97,18.6c-.6,0-1.09-.49-1.09-1.09s.49-1.09,1.09-1.09,1.09.49,1.09,1.09-.49,1.09-1.09,1.09Zm4.4,3.64c-.6,0-1.09-.49-1.09-1.09s.49-1.09,1.09-1.09,1.09.49,1.09,1.09-.49,1.09-1.09,1.09Zm5.39,1.33c-.6,0-1.09-.49-1.09-1.09s.49-1.09,1.09-1.09,1.09.49,1.09,1.09-.49,1.09-1.09,1.09Zm5.39-1.33c-.6,0-1.09-.49-1.09-1.09s.49-1.09,1.09-1.09,1.09.49,1.09,1.09-.49,1.09-1.09,1.09Zm-5.38-2.65c-5.63,0-10.39-6.45-10.39-14.08s4.76-14.08,10.39-14.08,10.08,6.05,10.37,13.37c.01.23.01.47.01.71,0,.19,0,.38-.01.57-.23,7.38-4.89,13.51-10.37,13.51Zm9.79-.99c-.6,0-1.09-.49-1.09-1.09s.49-1.09,1.09-1.09,1.09.49,1.09,1.09-.49,1.09-1.09,1.09Zm0-23.99c-.6,0-1.09-.49-1.09-1.09s.49-1.09,1.09-1.09,1.09.49,1.09,1.09-.49,1.09-1.09,1.09Zm2.97,18.6c-.6,0-1.09-.49-1.09-1.09s.49-1.09,1.09-1.09,1.09.49,1.09,1.09-.49,1.09-1.09,1.09Zm1.09-6.6c-.6,0-1.09-.49-1.09-1.09s.49-1.09,1.09-1.09,1.09.49,1.09,1.09-.49,1.09-1.09,1.09Z" fill="#fff" stroke-width="0"/>
  <path d="m93.19,15.87l-55.6-6.51,7.59-1.51c.24-.67.37-1.43.37-2.23,0-2-.81-3.74-2.01-4.68l1.3-.15c1.06,1.18,1.72,2.91,1.72,4.83,0,.7-.09,1.38-.26,2.01l5.08-1.01c.78-.17,1.44-.59,1.91-1.17.47-.58.74-1.31.74-2.1,0-2-1.74-3.55-3.72-3.33L6.18,5.1c-1.76.21-3.3,1.06-4.41,2.31-1.11,1.24-1.77,2.88-1.77,4.65,0,3.16,2.12,5.94,5.18,6.76l10.71,2.57,17.49,4.2,1.63.39s0,0,0,0l.34.08-13.78,2.23c8.08,1.8,14.22,10.41,14.22,20.72,0,.75-.03,1.51-.09,2.24-.04.36-.07.66-.11.95-.04.32-.08.63-.13.93-.12.71-.27,1.42-.44,2.1-.17.68-.36,1.31-.58,1.92-.08.25-.17.5-.27.75v.22l-.15.17c-.09.23-.19.47-.3.7-.22.52-.46,1-.71,1.45v.04l-.21.34c-.1.19-.25.45-.41.71-.17.28-.33.53-.5.79-.17.26-.35.51-.54.77-.17.22-.32.42-.48.62-.47.58-.96,1.13-1.45,1.61-.14.14-.28.28-.43.42l25.46-7.69,4.28-1.3,6.2-1.88.49-.15s0,0,0,0l4.07-1.22h0s.02,0,.02,0l.57-.17h0s25.97-7.87,25.97-7.87c3.33-1.02,6.1-2.3,8.03-4.42,1.94-2.12,3.04-5.07,3.04-9.43,0-8.01-5.98-14.77-13.94-15.74ZM35.12,1.91c.58.49,1.08,1.13,1.45,1.86.51.99.81,2.17.81,3.43,0,.65-.08,1.28-.23,1.88-.03.11-.06.22-.09.32l-1.05-.13c.22-.64.33-1.34.33-2.07,0-2.35-1.18-4.35-2.82-5.11l1.6-.18Zm-16.38,6.34c-1.75,1.76-2.88,4.56-2.88,7.7,0,2.09.51,4.03,1.38,5.61l-1.4-.34c-.68-1.55-1.08-3.36-1.08-5.27,0-3.09,1.02-5.89,2.65-7.86.26-.32.54-.61.84-.89l1.53.18c-.36.25-.7.54-1.03.87Zm6.29.75l-.99-.12c.02-.14.02-.27.02-.41,0-.2-.01-.39-.03-.58-.21-2.12-1.53-3.84-3.26-4.33l1.81-.21c1.38.99,2.34,2.7,2.46,4.66.01.15.02.3.02.46,0,.18-.01.36-.03.53Zm9.44,10.56c0,2.51.72,4.79,1.91,6.51.03.05.05.07.06.1l-1.52-.36c-.99-1.76-1.56-3.92-1.56-6.24,0-4.47,2.13-8.32,5.16-9.95l1.5.18c-3.76,1.96-5.55,4.69-5.55,9.77Zm23.27,2.91c-.05.33-.1.67-.13,1.02l-1.46.25c.02-.34.05-.68.1-1.02.63-4.61,3.02-8.45,6.26-10.3l1.88.22c-2.74,1.16-5.83,4.79-6.65,9.83Zm11.97,30.81l-3.83,1.15c4.76-3.04,7.95-8.57,7.95-14.89,0-7.73-4.76-14.3-11.35-16.56-.2-.07-.61-.2-.61-.2l2.34-.49s1.07.49,1.23.57c5.98,3.05,9.89,9.19,9.89,16.68,0,5.41-2.16,10.28-5.62,13.74Z" fill="#fff" stroke-width="0"/>
</svg>