<?xml version="1.0" encoding="utf-8"?>
<!-- Generator: Adobe Illustrator 27.8.1, SVG Export Plug-In . SVG Version: 6.00 Build 0)  -->
<svg version="1.1" id="Layer_1" xmlns="http://www.w3.org/2000/svg" xmlns:xlink="http://www.w3.org/1999/xlink" x="0px" y="0px"
	 viewBox="0 0 143 67.4" style="enable-background:new 0 0 143 67.4;" xml:space="preserve">
<style type="text/css">
	.st0{fill:#FFFFFF;}
</style>
<rect x="45.3" y="23.3" class="st0" width="56" height="22.7"/>
<path class="st0" d="M143,55.4v12h-22.8v-12c0-5.7-3.7-9.3-9.3-9.3h-8.4V23.3h8.4C128.7,23.3,143,37.7,143,55.4z"/>
<rect x="60.3" y="18.8" class="st0" width="26.6" height="33.7"/>
<g>
	<path class="st0" d="M44.1,19.2v30.8h-3c-0.6,0-1.1-0.5-1.1-1.2V20.4c0-0.7,0.5-1.2,1.1-1.2C41.1,19.2,44.1,19.2,44.1,19.2z"/>
	<path class="st0" d="M49.3,20.4v28.5c0,0.7-0.5,1.2-1.1,1.2h-3V19.2h3C48.8,19.2,49.3,19.8,49.3,20.4z"/>
	<g>
		<g>
			<path class="st0" d="M39.5,21.3H40v2h-0.6c0,0-0.1,0-0.1-0.1L39.5,21.3C39.4,21.3,39.4,21.3,39.5,21.3L39.5,21.3z"/>
			<path class="st0" d="M39.1,21.6h0.3v1.3h-0.3c0,0-0.1,0-0.1-0.1L39.1,21.6C39,21.7,39,21.6,39.1,21.6L39.1,21.6z"/>
		</g>
		<g>
			<path class="st0" d="M49.9,23.3h-0.6v-2h0.6c0,0,0.1,0,0.1,0.1L49.9,23.3C50,23.2,49.9,23.3,49.9,23.3L49.9,23.3z"/>
			<path class="st0" d="M50.3,22.9H50v-1.3h0.3c0,0,0.1,0,0.1,0.1L50.3,22.9C50.4,22.8,50.3,22.9,50.3,22.9L50.3,22.9z"/>
		</g>
		<g>
			<path class="st0" d="M39.5,46.7H40v2h-0.6c0,0-0.1,0-0.1-0.1L39.5,46.7C39.4,46.8,39.4,46.7,39.5,46.7L39.5,46.7z"/>
			<path class="st0" d="M39.1,47h0.3v1.3h-0.3c0,0-0.1,0-0.1-0.1L39.1,47C39,47.1,39,47,39.1,47L39.1,47z"/>
		</g>
		<g>
			<path class="st0" d="M49.9,48.7h-0.6v-2h0.6c0,0,0.1,0,0.1,0.1L49.9,48.7C50,48.6,49.9,48.7,49.9,48.7L49.9,48.7z"/>
			<path class="st0" d="M50.3,48.3H50V47h0.3c0,0,0.1,0,0.1,0.1L50.3,48.3C50.4,48.3,50.3,48.4,50.3,48.3L50.3,48.3z"/>
		</g>
	</g>
</g>
<g>
	<path class="st0" d="M101.5,19.2v30.8h-3c-0.6,0-1.1-0.5-1.1-1.2V20.4c0-0.7,0.5-1.2,1.1-1.2C98.5,19.2,101.5,19.2,101.5,19.2z"/>
	<path class="st0" d="M106.6,20.4v28.5c0,0.7-0.5,1.2-1.1,1.2h-3V19.2h3C106.2,19.2,106.6,19.8,106.6,20.4z"/>
	<g>
		<g>
			<path class="st0" d="M96.8,21.3h0.6v2h-0.6c0,0-0.1,0-0.1-0.1L96.8,21.3C96.7,21.3,96.7,21.3,96.8,21.3L96.8,21.3z"/>
			<path class="st0" d="M96.4,21.6h0.3v1.3h-0.3c0,0-0.1,0-0.1-0.1L96.4,21.6C96.3,21.7,96.4,21.6,96.4,21.6L96.4,21.6z"/>
		</g>
		<g>
			<path class="st0" d="M107.2,23.3h-0.6v-2h0.6c0,0,0.1,0,0.1,0.1L107.2,23.3C107.3,23.2,107.3,23.3,107.2,23.3L107.2,23.3z"/>
			<path class="st0" d="M107.6,22.9h-0.3v-1.3h0.3c0,0,0.1,0,0.1,0.1L107.6,22.9C107.7,22.8,107.7,22.9,107.6,22.9L107.6,22.9z"/>
		</g>
		<g>
			<path class="st0" d="M96.8,46.7h0.6v2h-0.6c0,0-0.1,0-0.1-0.1L96.8,46.7C96.7,46.8,96.7,46.7,96.8,46.7L96.8,46.7z"/>
			<path class="st0" d="M96.4,47h0.3v1.3h-0.3c0,0-0.1,0-0.1-0.1L96.4,47C96.3,47.1,96.4,47,96.4,47L96.4,47z"/>
		</g>
		<g>
			<path class="st0" d="M107.2,48.7h-0.6v-2h0.6c0,0,0.1,0,0.1,0.1L107.2,48.7C107.3,48.6,107.3,48.7,107.2,48.7L107.2,48.7z"/>
			<path class="st0" d="M107.6,48.3h-0.3V47h0.3c0,0,0.1,0,0.1,0.1L107.6,48.3C107.7,48.3,107.7,48.4,107.6,48.3L107.6,48.3z"/>
		</g>
	</g>
</g>
<g>
	<polygon class="st0" points="78,2.1 74.4,5.7 74.4,2.1 72.8,2.1 72.8,5.7 69.2,2.1 67,2.1 72.5,7.7 72.8,8 72.8,9.1 72.8,10.7 
		74.4,10.7 74.4,9.1 74.4,8 74.8,7.7 80.3,2.1 	"/>
	<g>
		<path class="st0" d="M91.7,11.8v2.3H55.1v-2.3c0-0.6,0.5-1.1,1.1-1.1h34.4C91.2,10.7,91.7,11.2,91.7,11.8z"/>
		<path class="st0" d="M55.1,15.4h36.6v2.3c0,0.6-0.5,1.1-1.1,1.1H56.3c-0.6,0-1.1-0.5-1.1-1.1C55.1,17.6,55.1,15.4,55.1,15.4z"/>
		<g>
			<path class="st0" d="M61,10v0.7h-2.3V10c0,0,0-0.1,0.1-0.1L61,10C60.9,10,61,10,61,10L61,10z"/>
			<path class="st0" d="M60.6,9.6V10h-1.5V9.6c0,0,0-0.1,0.1-0.1h1.3C60.5,9.5,60.6,9.6,60.6,9.6L60.6,9.6z"/>
		</g>
		<g>
			<path class="st0" d="M67.5,10.1v0.7h-2.3v-0.7c0,0,0-0.1,0.1-0.1L67.5,10.1C67.5,10,67.5,10,67.5,10.1L67.5,10.1z"/>
			<path class="st0" d="M67.1,9.7V10h-1.5V9.7c0,0,0-0.1,0.1-0.1H67C67,9.5,67.2,9.6,67.1,9.7L67.1,9.7z"/>
		</g>
		<g>
			<path class="st0" d="M81.3,10.1v0.7H79v-0.7c0,0,0-0.1,0.1-0.1L81.3,10.1C81.2,10,81.3,10,81.3,10.1L81.3,10.1z"/>
			<path class="st0" d="M80.9,9.6V10h-1.5V9.6c0,0,0-0.1,0.1-0.1h1.3C80.8,9.5,80.9,9.6,80.9,9.6L80.9,9.6z"/>
		</g>
		<g>
			<path class="st0" d="M87.8,10.1v0.7h-2.3v-0.7c0,0,0-0.1,0.1-0.1L87.8,10.1C87.7,10,87.8,10,87.8,10.1L87.8,10.1z"/>
			<path class="st0" d="M87.4,9.6V10H86V9.6c0,0,0-0.1,0.1-0.1h1.3C87.3,9.5,87.4,9.6,87.4,9.6L87.4,9.6z"/>
		</g>
	</g>
	<path class="st0" d="M66,0h15.3c0.3,0,0.6,0.3,0.6,0.6v0.9c0,0.3-0.3,0.6-0.6,0.6H66c-0.3,0-0.6-0.3-0.6-0.6V0.6
		C65.4,0.3,65.6,0,66,0z"/>
</g>
<path class="st0" d="M0,14V5.6h22.8V14c0,5.7,3.7,9.3,9.3,9.3h12v22.8h-12C14.4,46.1,0,31.7,0,14z"/>
</svg>
