<?xml version="1.0" encoding="UTF-8"?><svg id="Layer_1" xmlns="http://www.w3.org/2000/svg" width="118.8" height="89.7" xmlns:xlink="http://www.w3.org/1999/xlink" viewBox="0 0 118.8 89.7"><defs><linearGradient id="linear-gradient" x1="56.6" y1="86.2" x2="56.6" y2="3" gradientUnits="userSpaceOnUse"><stop offset="0" stop-color="#fff"/><stop offset="1" stop-color="#fff"/></linearGradient><linearGradient id="linear-gradient-2" x1="12.9" y1="46.9" x2="12.9" y2="69.5" gradientUnits="userSpaceOnUse"><stop offset="0" stop-color="#fff"/><stop offset=".9" stop-color="#fff"/><stop offset="1" stop-color="#fff"/></linearGradient><linearGradient id="linear-gradient-3" x1="12.9" y1="77" x2="12.9" y2="99.6" xlink:href="#linear-gradient-2"/><linearGradient id="linear-gradient-4" x1="32.4" y1="23" x2="45.6" y2="23" gradientTransform="translate(15.8 61.8) rotate(-90)" gradientUnits="userSpaceOnUse"><stop offset="0" stop-color="#fff"/><stop offset=".9" stop-color="#fff"/><stop offset="1" stop-color="#fff"/></linearGradient><linearGradient id="linear-gradient-5" x1="70.3" x2="83.5" gradientTransform="translate(53.7 99.7) rotate(-90)" xlink:href="#linear-gradient-4"/><linearGradient id="linear-gradient-6" x1="108.2" x2="121.5" gradientTransform="translate(91.6 137.6) rotate(-90)" xlink:href="#linear-gradient-4"/><linearGradient id="linear-gradient-7" x1="68.7" y1="7.7" x2="76.6" y2="7.7" gradientUnits="userSpaceOnUse"><stop offset="0" stop-color="#fff"/><stop offset="0" stop-color="#fff"/><stop offset="1" stop-color="#fff"/></linearGradient><linearGradient id="linear-gradient-8" x1="76.8" y1="15.8" x2="84.7" y2="15.8" xlink:href="#linear-gradient-7"/><linearGradient id="linear-gradient-9" x1="-1580" y1="-557.2" x2="-1576.4" y2="-557.2" gradientTransform="translate(1645.8 -570.7) rotate(-39.8)" gradientUnits="userSpaceOnUse"><stop offset="0" stop-color="#fdfeff"/><stop offset="1" stop-color="#fff"/></linearGradient><linearGradient id="linear-gradient-10" x1="76.7" y1="0" x2="76.7" y2="23.4" gradientUnits="userSpaceOnUse"><stop offset="0" stop-color="#fff"/><stop offset="1" stop-color="#fff"/></linearGradient></defs><path d="M110.4,13.7H32.4c-16.3,0-29.5,13.2-29.5,29.5v38h20v-38c0-5.2,4.3-9.5,9.5-9.5h78V13.7Z" fill="url(#linear-gradient)" stroke-width="0"/><rect y="51.1" width="25.8" height="8.5" rx="1" ry="1" fill="url(#linear-gradient-2)" stroke-width="0"/><rect y="81.2" width="25.8" height="8.5" rx="1" ry="1" fill="url(#linear-gradient-3)" stroke-width="0"/><rect x="25.9" y="18.8" width="25.8" height="8.5" rx="1" ry="1" transform="translate(61.8 -15.8) rotate(90)" fill="url(#linear-gradient-4)" stroke-width="0"/><rect x="63.8" y="18.8" width="25.8" height="8.5" rx="1" ry="1" transform="translate(99.7 -53.7) rotate(90)" fill="url(#linear-gradient-5)" stroke-width="0"/><rect x="101.7" y="18.8" width="25.8" height="8.5" rx="1" ry="1" transform="translate(137.6 -91.6) rotate(90)" fill="url(#linear-gradient-6)" stroke-width="0"/><path d="M76.3,10.3l.3.3c-.2,0-.5.1-.7.3-.2.2-.4.5-.4.8l-.3-.3-.3-.3-5.5-5.5-.8-.8,1.1-1.1.8.8,5.5,5.5.3.3Z" fill="url(#linear-gradient-7)" stroke-width="0"/><path d="M84.7,18.7l-1.1,1.1-.8-.8-5.8-5.8-.3-.3c.2,0,.5-.1.6-.3.2-.2.4-.5.4-.8l.3.3,5.8,5.8.8.8Z" fill="url(#linear-gradient-8)" stroke-width="0"/><path d="M76.6,12.9h0l-.3.3-.3.3-5.5,5.5-.8.8-1.1-1.1.8-.8,5.5-5.5.2-.3.3-.3c0,.2,0,.5.3.7.2.2.5.4.8.4Z" fill="#fff" stroke-width="0"/><path d="M84.7,4.8l-6.9,6.9c0-.2,0-.5-.3-.6-.2-.3-.5-.4-.8-.4l.3-.3.2-.3,6.3-6.3,1.1,1.1Z" fill="#fff" stroke-width="0"/><path d="M78.1,11.4c0-.2-.1-.4-.3-.6-.2-.2-.5-.4-.8-.5-.2,0-.5,0-.7,0-.2,0-.4.1-.6.3-.2.2-.4.5-.5.8,0,.2,0,.5,0,.7,0,.2.2.4.3.6.2.2.5.4.8.5.2,0,.5,0,.7,0,.2,0,.4-.2.6-.3.2-.2.4-.5.5-.8,0-.2,0-.5,0-.7ZM77.4,12.6c-.2.2-.4.2-.6.3,0,0-.1,0-.2,0h0c-.3,0-.6-.2-.8-.4-.2-.2-.2-.4-.3-.7,0,0,0-.1,0-.2,0-.3.2-.6.4-.8.2-.2.4-.2.7-.3,0,0,0,0,0,0s0,0,0,0c.3,0,.6.2.8.4.2.2.2.4.3.6,0,0,0,.1,0,.2,0,.3-.2.6-.4.8Z" fill="#fff" stroke-width="0"/><path d="M78.4,11.1c0-.2-.2-.4-.3-.5-.2-.2-.5-.4-.8-.5-.4-.2-.8-.2-1.2,0-.2,0-.4.2-.5.3-.2.2-.4.5-.5.8-.1.4-.2.8,0,1.3,0,.2.2.4.3.5.2.2.5.4.8.5.2,0,.4.1.6.1s.4,0,.6-.1c.2,0,.4-.2.5-.3.2-.2.4-.5.5-.8,0-.2.1-.4.1-.6s0-.4-.1-.6ZM77.8,11.8c0,.3-.2.6-.4.8-.2.2-.4.2-.6.3,0,0-.1,0-.2,0h0c-.3,0-.6-.2-.8-.4-.2-.2-.2-.4-.3-.7,0,0,0-.1,0-.2,0-.3.2-.6.4-.8.2-.2.4-.2.7-.3,0,0,0,0,0,0s0,0,0,0c.3,0,.6.2.8.4.2.2.2.4.3.6,0,0,0,.1,0,.2Z" fill="url(#linear-gradient-9)" stroke-width="0"/><path d="M76.7,0c-6.5,0-11.7,5.3-11.7,11.7s5.2,11.7,11.7,11.7,11.7-5.3,11.7-11.7S83.1,0,76.7,0ZM83.9,17.9c-.3.4-.7.7-1.1,1.1-1.7,1.4-3.8,2.3-6.1,2.3s-4.5-.8-6.1-2.3c-.4-.3-.7-.7-1.1-1.1-1.4-1.7-2.3-3.8-2.3-6.1s.8-4.5,2.3-6.1c.3-.4.7-.7,1.1-1.1,1.6-1.4,3.8-2.3,6.1-2.3s4.5.9,6.1,2.3c.4.3.7.7,1.1,1.1,1.4,1.7,2.3,3.8,2.3,6.1s-.8,4.5-2.3,6.1Z" fill="url(#linear-gradient-10)" stroke-width="0"/></svg>