<?xml version="1.0" encoding="UTF-8"?><svg id="Layer_1" xmlns="http://www.w3.org/2000/svg" width="56.7" height="119.7" xmlns:xlink="http://www.w3.org/1999/xlink" viewBox="0 0 56.7 119.7"><defs><linearGradient id="linear-gradient" x1="19.8" y1="54" x2="20.7" y2="69.7" gradientUnits="userSpaceOnUse"><stop offset="0" stop-color="#fff"/><stop offset="1" stop-color="#fff"/></linearGradient><linearGradient id="linear-gradient-2" x1="20.3" y1="111" x2="21" y2="86.7" xlink:href="#linear-gradient"/><linearGradient id="linear-gradient-3" x1="16.6" y1="89.8" x2="21.9" y2="112.7" xlink:href="#linear-gradient"/><linearGradient id="linear-gradient-4" x1="17.1" y1="112.9" x2="28.7" y2="130.8" xlink:href="#linear-gradient"/><linearGradient id="linear-gradient-5" x1="20.5" y1="59.4" x2="20.7" y2="96.3" xlink:href="#linear-gradient"/><linearGradient id="linear-gradient-6" x1="13.1" y1="48.2" x2="32.9" y2="78.8" xlink:href="#linear-gradient"/><linearGradient id="linear-gradient-7" x1="10.2" y1="3.5" x2="30" y2="25.2" xlink:href="#linear-gradient"/><linearGradient id="linear-gradient-8" x1="15.8" y1="-1.7" x2="35.7" y2="20.1" xlink:href="#linear-gradient"/><linearGradient id="linear-gradient-9" x1="19" y1="82.7" x2="57.8" y2="82.7" xlink:href="#linear-gradient"/><linearGradient id="linear-gradient-10" x1="-2546.3" y1="-3085.7" x2="-2546.3" y2="-3086.7" gradientTransform="translate(2602.6 3179.4)" gradientUnits="userSpaceOnUse"><stop offset="0" stop-color="#fff"/><stop offset="1" stop-color="#fff"/></linearGradient><linearGradient id="linear-gradient-11" x1="-2542.2" y1="-3085.7" x2="-2542.2" y2="-3086.7" gradientTransform="translate(2598.6 3175.3)" xlink:href="#linear-gradient-10"/><linearGradient id="linear-gradient-12" x1="-2538.2" y1="-3085.7" x2="-2538.2" y2="-3086.7" gradientTransform="translate(2594.5 3171.3)" xlink:href="#linear-gradient-10"/><linearGradient id="linear-gradient-13" x1="-2534.1" y1="-3085.7" x2="-2534.1" y2="-3086.7" gradientTransform="translate(2590.5 3167.2)" xlink:href="#linear-gradient-10"/><linearGradient id="linear-gradient-14" x1="-2530.1" y1="-3085.7" x2="-2530.1" y2="-3086.7" gradientTransform="translate(2586.4 3163.2)" xlink:href="#linear-gradient-10"/><linearGradient id="linear-gradient-15" x1="-2526" y1="-3085.7" x2="-2526" y2="-3086.7" gradientTransform="translate(2582.4 3159.1)" xlink:href="#linear-gradient-10"/></defs><path d="M9.9,64.6h21.5c2.3,0,4.2,1.9,4.2,4.2H5.7c0-2.3,1.9-4.2,4.2-4.2Z" fill="url(#linear-gradient)" stroke-width="0"/><rect x="10.5" y="111.6" width="20.3" height=".7" fill="#fff" stroke-width="0"/><rect x="5.7" y="96.6" width="29.9" height="5.2" fill="url(#linear-gradient-2)" stroke-width="0"/><path d="M37.6,103.6v6.9c0,.2,0,.3-.2.4l-1.6,1.3c-.1,0-.2.1-.3.1H5.8c-.1,0-.2,0-.3-.1l-1.7-1.3c-.1,0-.2-.3-.2-.4v-6.9c0-.2,0-.3.2-.4l1.8-1.4h30l1.8,1.4c.1,0,.2.3.2.4Z" fill="url(#linear-gradient-3)" stroke-width="0"/><rect x="6.6" y="116.9" width="28" height="2.9" rx=".6" ry=".6" fill="url(#linear-gradient-4)" stroke-width="0"/><path d="M31.3,46.5c-7.1,0-14.2,0-21.3,0,.6.8.6,1.7,0,2.5,7.1,0,14.2,0,21.3,0-.6-.8-.6-1.7,0-2.5Z" fill="#d7d7d7" stroke-width="0"/><path d="M41.3,74.1v17.2c0,.8-.4,1.6-1.1,2.1l-4,2.7c-.4.3-.9.4-1.4.4H6.5c-.5,0-1-.1-1.4-.4l-4-2.7c-.7-.5-1.1-1.2-1.1-2.1v-17.2c0-.8.4-1.6,1.1-2.1l4-2.7c.4-.3.9-.4,1.4-.4h28.3c.5,0,1,.1,1.4.4l4,2.7c.7.5,1.1,1.2,1.1,2.1Z" fill="url(#linear-gradient-5)" stroke-width="0"/><path d="M10.4,54.7h20.6c.2,0,.4.2.4.4v9.5H10v-9.5c0-.2.2-.4.4-.4Z" fill="url(#linear-gradient-6)" stroke-width="0"/><path d="M31.3,28.6c-7.1,0-14.2,0-21.3,0,.6.8.6,1.7,0,2.5,7.1,0,14.2,0,21.3,0-.6-.8-.6-1.7,0-2.5Z" fill="#fff" stroke-width="0"/><path d="M31.3,22.7c-7.1,0-14.2,0-21.3,0,.6.8.6,1.7,0,2.5,7.1,0,14.2,0,21.3,0-.6-.8-.6-1.7,0-2.5Z" fill="#fff" stroke-width="0"/><path d="M31.3,43c.3.3.5.6.6.9H9.4c.1-.3.3-.6.6-.9,7.1-.2,14.2-.2,21.3,0Z" fill="#fff" stroke-width="0"/><path d="M9.4,45.6h22.5c-.1.3-.3.6-.6.9h0s0,0,0,0c-.1,0-.2,0-.4,0-1.6,0-3.3,0-4.9,0-3.5,0-7.1,0-10.6,0-1.7,0-3.3,0-4.9,0-.1,0-.2,0-.4,0h0c-.3-.3-.5-.6-.6-.9Z" fill="#fff" stroke-width="0"/><path d="M31.3,31.1c.3.3.5.6.6.9H9.4c.1-.3.3-.6.6-.9,7.1-.2,14.2-.2,21.3,0Z" fill="#fff" stroke-width="0"/><path d="M9.4,33.7h22.5c-.1.3-.3.6-.6.9h0c-7.1.2-14.2.2-21.2,0h0c-.3-.3-.5-.6-.6-.9Z" fill="#fff" stroke-width="0"/><path d="M31.3,25.2c.3.3.5.6.6.9H9.4c.1-.3.3-.6.6-.9,7.1-.2,14.2-.2,21.3,0Z" fill="#fff" stroke-width="0"/><path d="M9.4,27.7h22.5c-.1.3-.3.6-.6.9h0s0,0,0,0c-7.1.2-14.2.2-21.2,0h0c-.3-.3-.5-.6-.6-.9Z" fill="#fff" stroke-width="0"/><path d="M31.3,22.7s-.9-3.5-4.3-3.5h-12.6c-3.4,0-4.3,3.5-4.3,3.5h10.6c0,0,10.6,0,10.6,0Z" fill="#fff" stroke-width="0"/><path d="M31.3,40.5c-7.1,0-14.2,0-21.3,0,.6.8.6,1.7,0,2.5,7.1,0,14.2,0,21.3,0-.6-.8-.6-1.7,0-2.5Z" fill="#fff" stroke-width="0"/><path d="M31.3,34.6c-7.1,0-14.2,0-21.3,0,.6.8.6,1.7,0,2.5,7.1,0,14.2,0,21.3,0-.6-.8-.6-1.7,0-2.5Z" fill="#fff" stroke-width="0"/><path d="M31.3,37.1c.3.3.5.6.6.9H9.4c.1-.3.3-.6.6-.9,7.1-.2,14.2-.2,21.3,0Z" fill="#fff" stroke-width="0"/><path d="M9.4,39.6h22.5c-.1.3-.3.6-.6.9h0s0,0,0,0c-7.1.2-14.2.2-21.2,0h0c-.3-.3-.5-.6-.6-.9Z" fill="#fff" stroke-width="0"/><path d="M31.3,52.5c-7.1,0-14.2,0-21.3,0,.6.8.6,1.7,0,2.5,7.1,0,14.2,0,21.3,0-.6-.8-.6-1.7,0-2.5Z" fill="#fff" stroke-width="0"/><path d="M31.9,49.9H9.4c.1-.3.3-.6.6-.9.2,0,.5,0,.8,0,6.6-.2,13.2-.2,19.7,0,.2,0,.5,0,.8,0,.3.3.5.6.6.9Z" fill="#fff" stroke-width="0"/><path d="M9.4,51.5h22.5c-.1.3-.3.6-.6.9h0s0,0,0,0c-7.1.2-14.2.2-21.2,0h0c-.3-.3-.5-.6-.6-.9Z" fill="#fff" stroke-width="0"/><path d="M31.3,46.5c-7.1,0-14.2,0-21.3,0,.6.8.6,1.7,0,2.5,7.1,0,14.2,0,21.3,0-.6-.8-.6-1.7,0-2.5Z" fill="#fff" stroke-width="0"/><path d="M31.3,43c.3.3.5.6.6.9H9.4c.1-.3.3-.6.6-.9,7.1-.2,14.2-.2,21.3,0Z" fill="#fff" stroke-width="0"/><path d="M9.4,45.6h22.5c-.1.3-.3.6-.6.9h0s0,0,0,0c-.1,0-.2,0-.4,0-1.6,0-3.3,0-4.9,0-3.5,0-7.1,0-10.6,0-1.7,0-3.3,0-4.9,0-.1,0-.2,0-.4,0h0c-.3-.3-.5-.6-.6-.9Z" fill="#fff" stroke-width="0"/><rect x="14.9" y="12" width="11.4" height="5.9" fill="url(#linear-gradient-7)" stroke-width="0"/><rect x="14.9" y="2.1" width="11.4" height="3" fill="url(#linear-gradient-8)" stroke-width="0"/><polygon points="26.2 11.9 14.8 11.9 15.7 10.9 25.6 10.9 26.2 11.9" fill="#fff" stroke-width="0"/><polygon points="26.2 5 14.8 5 15.6 7.1 25.4 7.1 26.2 5" fill="#fff" stroke-width="0"/><path d="M26.3,2.1h-11.4l.5-1.3c.2-.5.6-.8,1.1-.8h8.2c.5,0,1,.3,1.1.8l.5,1.3Z" fill="#fff" stroke-width="0"/><rect x="14.3" y="17.7" width="12.5" height="1.3" fill="#fff" stroke-width="0"/><rect x="41.3" y="74" width="9.9" height="17.5" fill="url(#linear-gradient-9)" stroke-width="0"/><rect x="40.4" y="80.3" width="26.4" height="4.9" rx=".7" ry=".7" transform="translate(-29.1 136.4) rotate(-90)" fill="#fff" stroke-width="0"/><path d="M55.6,92.7h1.6v.5c0,0,0,.1-.1.1h-1.4c0,0-.1,0-.1-.1v-.5h0Z" transform="translate(-36.6 149.4) rotate(-90)" fill="url(#linear-gradient-10)" stroke-width="0"/><path d="M55.6,88.7h1.6v.5c0,0,0,.1-.1.1h-1.4c0,0-.1,0-.1-.1v-.5h0Z" transform="translate(-32.6 145.4) rotate(-90)" fill="url(#linear-gradient-11)" stroke-width="0"/><path d="M55.6,84.6h1.6v.5c0,0,0,.1-.1.1h-1.4c0,0-.1,0-.1-.1v-.5h0Z" transform="translate(-28.5 141.3) rotate(-90)" fill="url(#linear-gradient-12)" stroke-width="0"/><path d="M55.6,80.5h1.6v.5c0,0,0,.1-.1.1h-1.4c0,0-.1,0-.1-.1v-.5h0Z" transform="translate(-24.5 137.2) rotate(-90)" fill="url(#linear-gradient-13)" stroke-width="0"/><path d="M55.6,76.5h1.6v.5c0,0,0,.1-.1.1h-1.4c0,0-.1,0-.1-.1v-.5h0Z" transform="translate(-20.4 133.2) rotate(-90)" fill="url(#linear-gradient-14)" stroke-width="0"/><path d="M55.6,72.4h1.6v.5c0,0,0,.1-.1.1h-1.4c0,0-.1,0-.1-.1v-.5h0Z" transform="translate(-16.4 129.1) rotate(-90)" fill="url(#linear-gradient-15)" stroke-width="0"/></svg>