<?xml version="1.0" encoding="UTF-8"?><svg id="Layer_1" xmlns="http://www.w3.org/2000/svg" width="142.9" height="74.3" xmlns:xlink="http://www.w3.org/1999/xlink" viewBox="0 0 142.9 74.3"><defs><linearGradient id="linear-gradient" x1="71.4" y1="69.2" x2="71.4" y2="12.3" gradientUnits="userSpaceOnUse"><stop offset="0" stop-color="#fff"/><stop offset="1" stop-color="#fff"/></linearGradient><linearGradient id="linear-gradient-2" x1="12.9" y1="61.6" x2="12.9" y2="84.2" gradientUnits="userSpaceOnUse"><stop offset="0" stop-color="#fff"/><stop offset=".9" stop-color="#fff"/><stop offset="1" stop-color="#fff"/></linearGradient><linearGradient id="linear-gradient-3" x1="130" y1="61.6" x2="130" y2="84.2" xlink:href="#linear-gradient-2"/><linearGradient id="linear-gradient-4" x1="34.1" y1="28.9" x2="47.4" y2="28.9" gradientTransform="translate(11.6 69.4) rotate(-90)" gradientUnits="userSpaceOnUse"><stop offset="0" stop-color="#fff"/><stop offset=".9" stop-color="#fff"/><stop offset="1" stop-color="#fff"/></linearGradient><linearGradient id="linear-gradient-5" x1="3148.9" y1="-2123.4" x2="3159.7" y2="-2123.4" gradientTransform="translate(2194.8 3171.9) rotate(-90)" gradientUnits="userSpaceOnUse"><stop offset="0" stop-color="#fff"/><stop offset="1" stop-color="#fff"/></linearGradient><linearGradient id="linear-gradient-6" x1="68.1" y1="4.6" x2="74" y2="4.6" gradientTransform="translate(142.8 9.1) rotate(180)" gradientUnits="userSpaceOnUse"><stop offset="0" stop-color="#fff"/><stop offset=".6" stop-color="#fff"/><stop offset="1" stop-color="#fff"/></linearGradient><linearGradient id="linear-gradient-7" x1="71.2" y1="4.4" x2="71.2" y2="14.3" gradientTransform="translate(142.5 19.9) rotate(180)" gradientUnits="userSpaceOnUse"><stop offset="0" stop-color="#fff"/><stop offset=".1" stop-color="#fff"/><stop offset="1" stop-color="#fff"/></linearGradient><linearGradient id="linear-gradient-8" x1="71.2" y1="-.9" x2="71.2" y2="2.9" gradientTransform="translate(142.5 2.4) rotate(-180)" xlink:href="#linear-gradient-7"/><linearGradient id="linear-gradient-9" x1="95.7" x2="108.9" gradientTransform="translate(73.2 131) rotate(-90)" xlink:href="#linear-gradient-4"/><linearGradient id="linear-gradient-10" x1="60.4" y1="6.1" x2="60.4" y2="6.8" gradientUnits="userSpaceOnUse"><stop offset="0" stop-color="#fff"/><stop offset="1" stop-color="#fff"/></linearGradient><linearGradient id="linear-gradient-11" x1="63.7" x2="63.7" y2="6.8" xlink:href="#linear-gradient-10"/><linearGradient id="linear-gradient-12" x1="66.9" x2="66.9" y2="6.8" xlink:href="#linear-gradient-10"/><linearGradient id="linear-gradient-13" x1="75.9" x2="75.9" y2="6.8" xlink:href="#linear-gradient-10"/><linearGradient id="linear-gradient-14" x1="79.1" x2="79.1" y2="6.8" xlink:href="#linear-gradient-10"/><linearGradient id="linear-gradient-15" x1="82.3" x2="82.3" y2="6.8" xlink:href="#linear-gradient-10"/></defs><path d="M139.9,65.9h-20v-16.8c0-5.2-4.3-9.5-9.5-9.5H32.4c-5.2,0-9.5,4.3-9.5,9.5v16.8H2.9v-16.8c0-16.3,13.2-29.5,29.5-29.5h78c16.3,0,29.5,13.2,29.5,29.5v16.8Z" fill="url(#linear-gradient)" stroke-width="0"/><rect y="65.9" width="25.8" height="8.5" rx="1" ry="1" fill="url(#linear-gradient-2)" stroke-width="0"/><rect x="117.1" y="65.9" width="25.8" height="8.5" rx="1" ry="1" fill="url(#linear-gradient-3)" stroke-width="0"/><rect x="27.7" y="24.7" width="25.8" height="8.5" rx="1" ry="1" transform="translate(69.4 -11.6) rotate(90)" fill="url(#linear-gradient-4)" stroke-width="0"/><rect x="60.6" y="13.2" width="21.5" height="6.4" transform="translate(142.8 32.8) rotate(-180)" fill="url(#linear-gradient-5)" stroke-width="0"/><rect x="69.5" y="2.4" width="3.7" height="4.3" transform="translate(142.8 9.1) rotate(-180)" fill="url(#linear-gradient-6)" stroke-width="0"/><rect x="56.4" y="6.7" width="29.6" height="6.5" rx=".9" ry=".9" transform="translate(142.5 19.9) rotate(-180)" fill="url(#linear-gradient-7)" stroke-width="0"/><rect x="64.4" y="0" width="13.7" height="2.4" rx="1.2" ry="1.2" transform="translate(142.5 2.4) rotate(180)" fill="url(#linear-gradient-8)" stroke-width="0"/><rect x="89.2" y="24.7" width="25.8" height="8.5" rx="1" ry="1" transform="translate(131 -73.2) rotate(90)" fill="url(#linear-gradient-9)" stroke-width="0"/><path d="M59.9,6.3h1c0,0,0,0,0,0v.4h-1.2v-.4c0,0,0,0,0,0Z" fill="url(#linear-gradient-10)" stroke-width="0"/><path d="M63.1,6.3h1c0,0,0,0,0,0v.4h-1.2v-.4c0,0,0,0,0,0Z" fill="url(#linear-gradient-11)" stroke-width="0"/><path d="M66.3,6.3h1c0,0,0,0,0,0v.4h-1.2v-.4c0,0,0,0,0,0Z" fill="url(#linear-gradient-12)" stroke-width="0"/><path d="M75.4,6.3h1c0,0,0,0,0,0v.4h-1.2v-.4c0,0,0,0,0,0Z" fill="url(#linear-gradient-13)" stroke-width="0"/><path d="M78.6,6.3h1c0,0,0,0,0,0v.4h-1.2v-.4c0,0,0,0,0,0Z" fill="url(#linear-gradient-14)" stroke-width="0"/><path d="M81.8,6.3h1c0,0,0,0,0,0v.4h-1.2v-.4c0,0,0,0,0,0Z" fill="url(#linear-gradient-15)" stroke-width="0"/></svg>