<?xml version="1.0" encoding="utf-8"?>
<!-- Generator: Adobe Illustrator 27.8.1, SVG Export Plug-In . SVG Version: 6.00 Build 0)  -->
<svg version="1.1" id="Layer_1" xmlns="http://www.w3.org/2000/svg" xmlns:xlink="http://www.w3.org/1999/xlink" x="0px" y="0px"
	 viewBox="0 0 110 101.5" style="enable-background:new 0 0 110 101.5;" xml:space="preserve">
<style type="text/css">
	.st0{fill:#FFFFFF;}
</style>
<rect x="36.9" y="92.9" class="st0" width="20.3" height="4.7"/>
<rect x="34.7" y="76.2" class="st0" width="24.7" height="6.3"/>
<path class="st0" d="M64,84.3v6.8c0,0.2,0,0.3-0.2,0.4l-1.7,1.3c0,0-0.2,0.1-0.3,0.1H32.2c-0.1,0-0.2,0-0.3-0.1l-1.7-1.3
	c-0.1-0.1-0.2-0.3-0.2-0.4v-6.8c0-0.2,0-0.3,0.2-0.4l1.8-1.4h30l1.8,1.4C63.9,84,64,84.2,64,84.3z"/>
<path class="st0" d="M33.6,97.6h26.8c0.3,0,0.6,0.3,0.6,0.6v2.7c0,0.3-0.3,0.6-0.6,0.6H33.6c-0.3,0-0.6-0.3-0.6-0.6v-2.7
	C33,97.9,33.3,97.6,33.6,97.6z"/>
<g>
	<rect x="67.7" y="58.3" class="st0" width="9.9" height="15.7"/>
	<path class="st0" d="M78.3,53h3.5c0.4,0,0.7,0.3,0.7,0.7v25c0,0.4-0.3,0.7-0.7,0.7h-3.5c-0.4,0-0.7-0.3-0.7-0.7v-25
		C77.6,53.3,77.9,53,78.3,53z"/>
	<g>
		<path class="st0" d="M82.4,58.3v-3.1h1c0,0,0.2,0,0.2,0.2v2.7c0,0,0,0.2-0.2,0.2L82.4,58.3L82.4,58.3z"/>
		<path class="st0" d="M82.4,77v-3.1h1c0,0,0.2,0,0.2,0.2v2.7c0,0,0,0.2-0.2,0.2L82.4,77L82.4,77z"/>
		<path class="st0" d="M82.4,67.6v-3.1h1c0,0,0.2,0,0.2,0.2v2.7c0,0,0,0.2-0.2,0.2L82.4,67.6L82.4,67.6z"/>
	</g>
</g>
<g>
	<g>
		<path class="st0" d="M55.2,11.1H39c-1.5,0-2.6,1.2-2.6,2.6v40.4h21.4V13.7C57.8,12.3,56.6,11.1,55.2,11.1z M39.4,13.9H45v6.1
			l-3.1,1c-0.9,0.3-1.4,1.3-1.1,2.1c0.2,0.7,0.9,1.1,1.6,1.1c0.2,0,0.4,0,0.5-0.1l2-0.7v7.5l-3.1,1c-0.9,0.3-1.4,1.2-1.1,2.1
			c0.2,0.7,0.9,1.2,1.6,1.2c0.2,0,0.4,0,0.5-0.1l2-0.7v7.5l-3.1,1c-0.9,0.3-1.4,1.3-1.1,2.1c0.2,0.7,0.9,1.2,1.6,1.2
			c0.2,0,0.4,0,0.5-0.1l2-0.7v5h-5.5V13.9z M54.5,50.7H49v-6.4l3.3-1.1c0.9-0.3,1.4-1.3,1.1-2.1c-0.3-0.9-1.3-1.4-2.1-1.1L49,40.8
			v-7.5l3.3-1.1c0.9-0.3,1.4-1.3,1.1-2.1c-0.3-0.9-1.3-1.4-2.1-1.1L49,29.8v-7.5l3.3-1.1c0.9-0.3,1.4-1.3,1.1-2.1
			c-0.3-0.9-1.3-1.4-2.1-1.1L49,18.7v-4.8h5.5C54.5,13.9,54.5,50.7,54.5,50.7z"/>
		<path class="st0" d="M55.2,11.1H39c-1.5,0-2.6,1.2-2.6,2.6v40.4h21.4V13.7C57.8,12.3,56.6,11.1,55.2,11.1z M39.4,13.9H45v6.1
			l-3.1,1c-0.9,0.3-1.4,1.3-1.1,2.1c0.2,0.7,0.9,1.1,1.6,1.1c0.2,0,0.4,0,0.5-0.1l2-0.7v7.5l-3.1,1c-0.9,0.3-1.4,1.2-1.1,2.1
			c0.2,0.7,0.9,1.2,1.6,1.2c0.2,0,0.4,0,0.5-0.1l2-0.7v7.5l-3.1,1c-0.9,0.3-1.4,1.3-1.1,2.1c0.2,0.7,0.9,1.2,1.6,1.2
			c0.2,0,0.4,0,0.5-0.1l2-0.7v5h-5.5V13.9z M54.5,50.7H49v-6.4l3.3-1.1c0.9-0.3,1.4-1.3,1.1-2.1c-0.3-0.9-1.3-1.4-2.1-1.1L49,40.8
			v-7.5l3.3-1.1c0.9-0.3,1.4-1.3,1.1-2.1c-0.3-0.9-1.3-1.4-2.1-1.1L49,29.8v-7.5l3.3-1.1c0.9-0.3,1.4-1.3,1.1-2.1
			c-0.3-0.9-1.3-1.4-2.1-1.1L49,18.7v-4.8h5.5C54.5,13.9,54.5,50.7,54.5,50.7z"/>
		<path class="st0" d="M55.2,11.1H39c-1.5,0-2.6,1.2-2.6,2.6v40.4h21.4V13.7C57.8,12.3,56.6,11.1,55.2,11.1z M39.4,13.9H45v6.1
			l-3.1,1c-0.9,0.3-1.4,1.3-1.1,2.1c0.2,0.7,0.9,1.1,1.6,1.1c0.2,0,0.4,0,0.5-0.1l2-0.7v7.5l-3.1,1c-0.9,0.3-1.4,1.2-1.1,2.1
			c0.2,0.7,0.9,1.2,1.6,1.2c0.2,0,0.4,0,0.5-0.1l2-0.7v7.5l-3.1,1c-0.9,0.3-1.4,1.3-1.1,2.1c0.2,0.7,0.9,1.2,1.6,1.2
			c0.2,0,0.4,0,0.5-0.1l2-0.7v5h-5.5V13.9z M54.5,50.7H49v-6.4l3.3-1.1c0.9-0.3,1.4-1.3,1.1-2.1c-0.3-0.9-1.3-1.4-2.1-1.1L49,40.8
			v-7.5l3.3-1.1c0.9-0.3,1.4-1.3,1.1-2.1c-0.3-0.9-1.3-1.4-2.1-1.1L49,29.8v-7.5l3.3-1.1c0.9-0.3,1.4-1.3,1.1-2.1
			c-0.3-0.9-1.3-1.4-2.1-1.1L49,18.7v-4.8h5.5C54.5,13.9,54.5,50.7,54.5,50.7z"/>
	</g>
	<path class="st0" d="M42.4,6.3h9.2c0.5,0,0.9,0.4,0.9,0.9v6.6h-11V7.2C41.5,6.7,41.9,6.3,42.4,6.3z"/>
	<path class="st0" d="M45.2,0h3.5c0.5,0,0.9,0.4,0.9,0.9v5.3h-5.4V0.9C44.3,0.4,44.7,0,45.2,0L45.2,0z"/>
	<path class="st0" d="M32.4,27.2h-2v-15c0-3.2,2.6-5.9,5.9-5.9h6.1v2h-6.1c-2.1,0-3.9,1.7-3.9,3.9V27.2z"/>
	<path class="st0" d="M32.4,25.9c-0.3-0.1-0.6-0.2-1-0.2s-0.7,0.1-1,0.2c-1.3,0.4-2.3,1.7-2.3,3.1c0,1.8,1.5,3.3,3.3,3.3
		s3.3-1.5,3.3-3.3C34.7,27.6,33.7,26.3,32.4,25.9z M31.4,30.2c-0.6,0-1.2-0.5-1.2-1.2s0.5-1.2,1.2-1.2c0.7,0,1.2,0.5,1.2,1.2
		S32,30.2,31.4,30.2z"/>
	<path class="st0" d="M49,33.3v7.5l2.2-0.8c0.9-0.3,1.8,0.2,2.1,1.1c0.3,0.9-0.2,1.8-1.1,2.1L49,44.3v6.4h-4v-5l-2,0.7
		c-0.2,0.1-0.4,0.1-0.5,0.1c-0.7,0-1.4-0.5-1.6-1.2c-0.3-0.9,0.2-1.8,1.1-2.1l3.1-1v-7.5l-2,0.7c-0.2,0.1-0.4,0.1-0.5,0.1
		c-0.7,0-1.4-0.5-1.6-1.2c-0.3-0.9,0.2-1.8,1.1-2.1l3.1-1v-7.5l-2,0.7c-0.2,0.1-0.4,0.1-0.5,0.1c-0.7,0-1.4-0.4-1.6-1.1
		c-0.3-0.9,0.2-1.8,1.1-2.1l3.1-1v-6.1h4v4.8l2.2-0.8c0.9-0.3,1.8,0.2,2.1,1.1c0.3,0.9-0.2,1.9-1.1,2.1L49,22.3v7.4l2.2-0.8
		c0.9-0.3,1.8,0.2,2.1,1.1c0.3,0.9-0.2,1.8-1.1,2.1C52.3,32.2,49,33.3,49,33.3z"/>
	<rect x="45" y="13.7" class="st0" width="4" height="37.2"/>
	<path class="st0" d="M52.3,21.2L49,22.3l-4,1.3l-2,0.7c-0.2,0.1-0.4,0.1-0.5,0.1c-0.7,0-1.4-0.4-1.6-1.1c-0.3-0.9,0.2-1.8,1.1-2.1
		l3.1-1l4-1.3l2.2-0.8c0.9-0.3,1.8,0.2,2.1,1.1C53.7,19.9,53.2,20.9,52.3,21.2z"/>
	<path class="st0" d="M52.3,32.2L49,33.3l-4,1.3l-2,0.7c-0.2,0.1-0.4,0.1-0.5,0.1c-0.7,0-1.4-0.5-1.6-1.2c-0.3-0.9,0.2-1.8,1.1-2.1
		l3.1-1l4-1.3l2.2-0.8c0.9-0.3,1.8,0.2,2.1,1.1C53.7,30.9,53.2,31.9,52.3,32.2z"/>
	<path class="st0" d="M52.3,43.2L49,44.3l-4,1.3l-2,0.7c-0.2,0.1-0.4,0.1-0.5,0.1c-0.7,0-1.4-0.5-1.6-1.2c-0.3-0.9,0.2-1.8,1.1-2.1
		l3.1-1l4-1.3l2.2-0.8c0.9-0.3,1.8,0.2,2.1,1.1C53.7,42,53.2,42.9,52.3,43.2z"/>
</g>
<path class="st0" d="M32.9,54.1c-0.5,0-1,0.1-1.4,0.4l-4,2.7c-0.7,0.5-1.1,1.3-1.1,2.1V72c0,0.9,0.4,1.6,1.1,2.1l4,2.7
	c0.4,0.3,0.9,0.4,1.4,0.4h33c1.5,0,2.6-1.2,2.6-2.6V56.8c0-1.5-1.2-2.6-2.6-2.6L32.9,54.1L32.9,54.1z"/>
</svg>
