<?xml version="1.0" encoding="UTF-8"?><svg id="Layer_1" xmlns="http://www.w3.org/2000/svg" width="140.1" height="87.1" xmlns:xlink="http://www.w3.org/1999/xlink" viewBox="0 0 140.1 87.1"><defs><linearGradient id="linear-gradient" x1=".5" y1="40.1" x2="34.2" y2="47.5" gradientUnits="userSpaceOnUse"><stop offset="0" stop-color="#fff"/><stop offset="1" stop-color="#fff"/></linearGradient><linearGradient id="linear-gradient-2" x1="91" y1="39.2" x2="93.8" y2="39.9" xlink:href="#linear-gradient"/><linearGradient id="linear-gradient-3" x1="28.6" y1="37.1" x2="109.3" y2="54.9" xlink:href="#linear-gradient"/><linearGradient id="linear-gradient-4" x1="103.7" y1="44.3" x2="139.5" y2="52.2" xlink:href="#linear-gradient"/><linearGradient id="linear-gradient-5" x1="74.5" y1="12.6" x2="67.3" y2="12.5" gradientUnits="userSpaceOnUse"><stop offset="0" stop-color="#fff"/><stop offset=".5" stop-color="#fff"/><stop offset="1" stop-color="#fff"/></linearGradient><linearGradient id="linear-gradient-6" x1="69.9" y1="20.7" x2="70.1" y2="5.5" gradientUnits="userSpaceOnUse"><stop offset="0" stop-color="#fff"/><stop offset="0" stop-color="#fff"/><stop offset="1" stop-color="#fff"/></linearGradient><linearGradient id="linear-gradient-7" x1="71.8" y1="6.7" x2="68.3" y2="6.7" gradientUnits="userSpaceOnUse"><stop offset="0" stop-color="#fff"/><stop offset="1" stop-color="#fff"/></linearGradient><linearGradient id="linear-gradient-8" x1="47.8" y1="80.7" x2="33.6" y2="70.5" gradientUnits="userSpaceOnUse"><stop offset="0" stop-color="#fff"/><stop offset="1" stop-color="#fff"/></linearGradient><linearGradient id="linear-gradient-9" x1="47.7" y1="81.9" x2="40.9" y2="80.7" gradientUnits="userSpaceOnUse"><stop offset="0" stop-color="#fff"/><stop offset="1" stop-color="#fff"/></linearGradient><linearGradient id="linear-gradient-10" x1="42.4" y1="86.1" x2="43.1" y2="88.5" xlink:href="#linear-gradient-9"/><linearGradient id="linear-gradient-11" x1="92.3" y1="75.1" x2="99.3" y2="75.1" xlink:href="#linear-gradient-8"/><linearGradient id="linear-gradient-12" x1="-697.9" y1="81.9" x2="-704.7" y2="80.7" gradientTransform="translate(-607.7) rotate(-180) scale(1 -1)" xlink:href="#linear-gradient-9"/><linearGradient id="linear-gradient-13" x1="-703.3" y1="86.1" x2="-702.6" y2="88.5" gradientTransform="translate(-607.7) rotate(-180) scale(1 -1)" xlink:href="#linear-gradient-9"/><linearGradient id="linear-gradient-14" x1="70.5" y1="3" x2="69.7" y2="3" xlink:href="#linear-gradient-6"/><linearGradient id="linear-gradient-15" x1="43.5" y1="39.5" x2="46.4" y2="39.5" xlink:href="#linear-gradient"/><linearGradient id="linear-gradient-16" x1="90.9" y1="39.5" x2="93.8" y2="39.5" xlink:href="#linear-gradient"/></defs><path d="M9.2,23.8c4.9-4.9,11.3-8.1,18.5-9v62.3C12.1,75.3,0,62.1,0,46s3.5-16.5,9.2-22.2Z" fill="url(#linear-gradient)" stroke-width="0"/><path d="M93.8,39.5c0,.8-.6,1.4-1.4,1.4s-1.4-.7-1.4-1.4.6-1.4,1.4-1.4,1.4.6,1.4,1.4Z" fill="url(#linear-gradient-2)" stroke-width="0"/><path d="M33.6,14.6v62.8h70.8V14.6H33.6ZM44.9,44c-2.4,0-4.4-2-4.4-4.4s2-4.4,4.4-4.4,4.4,2,4.4,4.4-2,4.4-4.4,4.4ZM92.4,44c-2.4,0-4.4-2-4.4-4.4s2-4.4,4.4-4.4,4.4,2,4.4,4.4-2,4.4-4.4,4.4ZM44.9,38.1c-.8,0-1.4.6-1.4,1.4s.6,1.4,1.4,1.4,1.4-.7,1.4-1.4-.6-1.4-1.4-1.4Z" fill="url(#linear-gradient-3)" stroke-width="0"/><path d="M140.1,46c0,8.7-3.5,16.5-9.2,22.2-5.3,5.3-12.6,8.8-20.6,9.1V14.7c16.6.8,29.8,14.5,29.8,31.3Z" fill="url(#linear-gradient-4)" stroke-width="0"/><rect x="68.3" y="10.4" width="3.6" height="4.3" fill="url(#linear-gradient-5)" stroke-width="0"/><path d="M66.8,7.3h6.4v1.8c0,.7-.5,1.2-1.2,1.2h-4c-.7,0-1.2-.5-1.2-1.2v-1.8h0Z" fill="url(#linear-gradient-6)" stroke-width="0"/><path d="M71.8,6.4v.9h-3.6v-.9c0-.2.2-.3.3-.3h2.9c.2,0,.3.2.3.3Z" fill="url(#linear-gradient-7)" stroke-width="0"/><path d="M45.7,77.4v6.2l-3.5,3.3h-3.5v-23.5s0,0,0,0h2.6s0,0,0,0c0,.8,0,8.8,1.7,12.6s.5,1.1,1.1,1.3c0,0,.1,0,.2,0,.1,0,.2,0,.3,0h1Z" fill="url(#linear-gradient-8)" stroke-width="0"/><path d="M45.7,77.4v6.4l-3.6,3.2v-12.2c0-.3.2,0,.3.5.5,2,1.1,2.2,1.7,2.3.5,0,1-.3,1-.3h.7Z" fill="url(#linear-gradient-9)" stroke-width="0"/><polygon points="42.2 86.9 45.7 83.6 45.7 83.8 42.2 87.1 38.6 87.1 38.6 86.9 42.2 86.9" fill="url(#linear-gradient-10)" stroke-width="0"/><path d="M92.3,77.4v6.2s3.5,3.3,3.5,3.3h3.5s0-23.5,0-23.5c0,0,0,0,0,0h-2.6s0,0,0,0c0,.8,0,8.8-1.7,12.6s-.5,1.1-1.1,1.3c0,0-.1,0-.2,0-.1,0-.2,0-.3,0h-1Z" fill="url(#linear-gradient-11)" stroke-width="0"/><path d="M92.3,77.4v6.4s3.6,3.2,3.6,3.2v-12.2c0-.3-.2,0-.3.5-.5,2-1.1,2.2-1.7,2.3-.5,0-1-.3-1-.3h-.7Z" fill="url(#linear-gradient-12)" stroke-width="0"/><polygon points="95.8 86.9 92.3 83.6 92.3 83.8 95.8 87.1 99.4 87.1 99.4 86.9 95.8 86.9" fill="url(#linear-gradient-13)" stroke-width="0"/><path d="M70.3.3v5.8h-.5V.3c0-.1.1-.3.3-.3s.3.1.3.3Z" fill="url(#linear-gradient-14)" stroke-width="0"/><path d="M46.4,39.5c0,.8-.6,1.4-1.4,1.4s-1.4-.7-1.4-1.4.6-1.4,1.4-1.4,1.4.6,1.4,1.4Z" fill="url(#linear-gradient-15)" stroke-width="0"/><path d="M93.8,39.5c0,.8-.6,1.4-1.4,1.4s-1.4-.7-1.4-1.4.6-1.4,1.4-1.4,1.4.6,1.4,1.4Z" fill="url(#linear-gradient-16)" stroke-width="0"/></svg>