<?xml version="1.0" encoding="UTF-8"?><svg id="Layer_1" xmlns="http://www.w3.org/2000/svg" width="140.1" height="87.8" xmlns:xlink="http://www.w3.org/1999/xlink" viewBox="0 0 140.1 87.8"><defs><linearGradient id="linear-gradient" x1=".5" y1="40.8" x2="34.2" y2="48.2" gradientUnits="userSpaceOnUse"><stop offset="0" stop-color="#fff"/><stop offset="1" stop-color="#fff"/></linearGradient><linearGradient id="linear-gradient-2" x1="28.6" y1="37.8" x2="109.3" y2="55.6" xlink:href="#linear-gradient"/><linearGradient id="linear-gradient-3" x1="103.7" y1="45" x2="139.5" y2="52.9" xlink:href="#linear-gradient"/><linearGradient id="linear-gradient-4" x1="95.5" y1="14.3" x2="54.5" y2="13.8" gradientUnits="userSpaceOnUse"><stop offset="0" stop-color="#fff"/><stop offset=".5" stop-color="#fff"/><stop offset="1" stop-color="#fff"/></linearGradient><linearGradient id="linear-gradient-5" x1="70.3" y1="21.8" x2="70" y2="8.4" gradientUnits="userSpaceOnUse"><stop offset="0" stop-color="#fff"/><stop offset="0" stop-color="#fff"/><stop offset="1" stop-color="#fff"/></linearGradient><linearGradient id="linear-gradient-6" x1="69.9" y1="22.8" x2="70.1" y2="2" xlink:href="#linear-gradient-5"/><linearGradient id="linear-gradient-7" x1="71.1" y1="2.8" x2="69.1" y2="2.8" xlink:href="#linear-gradient"/><linearGradient id="linear-gradient-8" x1="67.8" y1="4.1" x2="71.8" y2="4.1" xlink:href="#linear-gradient"/><linearGradient id="linear-gradient-9" x1="70" y1=".3" x2="70.1" y2="2.6" gradientUnits="userSpaceOnUse"><stop offset="0" stop-color="#fff"/><stop offset="1" stop-color="#fff"/></linearGradient><linearGradient id="linear-gradient-10" x1="-1794" y1="-692.7" x2="-1793.9" y2="-689.4" gradientTransform="translate(1825.8 -778.5) rotate(-45)" xlink:href="#linear-gradient-9"/><linearGradient id="linear-gradient-11" x1="1877.3" y1="-829.8" x2="1877.4" y2="-826.5" gradientTransform="translate(-1841.5 -740.5) rotate(45)" xlink:href="#linear-gradient-9"/><linearGradient id="linear-gradient-12" x1="70" y1="0" x2="70.1" y2="2.8" gradientUnits="userSpaceOnUse"><stop offset="0" stop-color="#fff"/><stop offset=".9" stop-color="#fff"/><stop offset="1" stop-color="#fff"/></linearGradient><linearGradient id="linear-gradient-13" x1="47.8" y1="81.4" x2="33.6" y2="71.2" gradientUnits="userSpaceOnUse"><stop offset="0" stop-color="#fff"/><stop offset="1" stop-color="#fff"/></linearGradient><linearGradient id="linear-gradient-14" x1="47.7" y1="82.5" x2="40.9" y2="81.3" gradientUnits="userSpaceOnUse"><stop offset="0" stop-color="#fff"/><stop offset="1" stop-color="#fff"/></linearGradient><linearGradient id="linear-gradient-15" x1="42.4" y1="86.8" x2="43.1" y2="89.2" xlink:href="#linear-gradient-14"/><linearGradient id="linear-gradient-16" x1="92.3" y1="75.8" x2="99.3" y2="75.8" xlink:href="#linear-gradient-13"/><linearGradient id="linear-gradient-17" x1="-84.4" y1="82.5" x2="-91.2" y2="81.3" gradientTransform="translate(5.8) rotate(-180) scale(1 -1)" xlink:href="#linear-gradient-14"/><linearGradient id="linear-gradient-18" x1="-89.8" y1="86.8" x2="-89.1" y2="89.2" gradientTransform="translate(5.8) rotate(-180) scale(1 -1)" xlink:href="#linear-gradient-14"/></defs><path d="M9.2,24.5c4.9-4.9,11.3-8.1,18.5-9v62.3C12.1,76,0,62.8,0,46.7s3.5-16.5,9.2-22.2Z" fill="url(#linear-gradient)" stroke-width="0"/><rect x="33.6" y="15.3" width="70.8" height="62.8" fill="url(#linear-gradient-2)" stroke-width="0"/><path d="M140.1,46.7c0,8.7-3.5,16.5-9.2,22.2-5.3,5.3-12.6,8.8-20.6,9.1V15.4c16.6.8,29.8,14.5,29.8,31.3Z" fill="url(#linear-gradient-3)" stroke-width="0"/><rect x="59.6" y="12.7" width="20.9" height="2.7" fill="url(#linear-gradient-4)" stroke-width="0"/><path d="M57,9.7h26.1v2.6c0,.2-.1.3-.3.3h-25.5c-.2,0-.3-.1-.3-.3v-2.6h0Z" fill="url(#linear-gradient-5)" stroke-width="0"/><path d="M58.8,4.7h22.5c1,0,1.8.8,1.8,1.8v2.1h-26.1v-2.1c0-1,.8-1.8,1.8-1.8Z" fill="url(#linear-gradient-6)" stroke-width="0"/><rect x="69.4" y="2.1" width="1.3" height="1.4" fill="url(#linear-gradient-7)" stroke-width="0"/><path d="M68.6,3.4h2.9c.2,0,.3.2.3.3v.9h-3.6v-.9c0-.2.2-.3.3-.3Z" fill="url(#linear-gradient-8)" stroke-width="0"/><line x1="70.1" y1="2.6" x2="70.1" y2=".3" fill="none" stroke="url(#linear-gradient-9)" stroke-miterlimit="10" stroke-width=".8"/><line x1="70.1" y1="2.1" x2="67.2" y2=".6" fill="none" stroke="url(#linear-gradient-10)" stroke-miterlimit="10" stroke-width=".6"/><line x1="70.1" y1="2.1" x2="73" y2=".6" fill="none" stroke="url(#linear-gradient-11)" stroke-miterlimit="10" stroke-width=".6"/><ellipse cx="70.1" cy="1.4" rx="4.7" ry="1" fill="none" stroke="url(#linear-gradient-12)" stroke-miterlimit="10" stroke-width=".9"/><path d="M45.7,78.1v6.2l-3.5,3.3h-3.5v-23.5s0,0,0,0h2.6s0,0,0,0c0,.8,0,8.8,1.7,12.6s.5,1.1,1.1,1.3c0,0,.1,0,.2,0,.1,0,.2,0,.3,0h1Z" fill="url(#linear-gradient-13)" stroke-width="0"/><path d="M45.7,78.1v6.4l-3.6,3.2v-12.2c0-.3.2,0,.3.5.5,2,1.1,2.2,1.7,2.3.5,0,1-.3,1-.3h.7Z" fill="url(#linear-gradient-14)" stroke-width="0"/><polygon points="42.2 87.6 45.7 84.3 45.7 84.5 42.2 87.8 38.6 87.8 38.6 87.6 42.2 87.6" fill="url(#linear-gradient-15)" stroke-width="0"/><path d="M92.3,78.1v6.2s3.5,3.3,3.5,3.3h3.5s0-23.5,0-23.5c0,0,0,0,0,0h-2.6s0,0,0,0c0,.8,0,8.8-1.7,12.6s-.5,1.1-1.1,1.3c0,0-.1,0-.2,0-.1,0-.2,0-.3,0h-1Z" fill="url(#linear-gradient-16)" stroke-width="0"/><path d="M92.3,78.1v6.4s3.6,3.2,3.6,3.2v-12.2c0-.3-.2,0-.3.5-.5,2-1.1,2.2-1.7,2.3-.5,0-1-.3-1-.3h-.7Z" fill="url(#linear-gradient-17)" stroke-width="0"/><polygon points="95.8 87.6 92.3 84.3 92.3 84.5 95.8 87.8 99.4 87.8 99.4 87.6 95.8 87.6" fill="url(#linear-gradient-18)" stroke-width="0"/></svg>