<?xml version="1.0" encoding="UTF-8"?><svg id="Layer_1" xmlns="http://www.w3.org/2000/svg" width="188.5" height="101.4" xmlns:xlink="http://www.w3.org/1999/xlink" viewBox="0 0 188.5 101.4"><defs><linearGradient id="linear-gradient" x1="95.1" y1="67.2" x2="100.1" y2="119.2" gradientUnits="userSpaceOnUse"><stop offset="0" stop-color="#fff"/><stop offset="0" stop-color="#fff"/><stop offset="1" stop-color="#fff"/></linearGradient><linearGradient id="linear-gradient-2" x1="4.2" y1="25.6" x2="28.8" y2="2.5" gradientUnits="userSpaceOnUse"><stop offset="0" stop-color="#fff"/><stop offset="1" stop-color="#fff"/></linearGradient><linearGradient id="linear-gradient-3" x1="9.9" y1="7.9" x2="1" y2="6.8" xlink:href="#linear-gradient-2"/><linearGradient id="linear-gradient-4" x1="26.7" y1="101" x2="26.3" y2="81.7" xlink:href="#linear-gradient"/><linearGradient id="linear-gradient-5" x1="46" y1="29.5" x2="106.1" y2="77.7" xlink:href="#linear-gradient"/><linearGradient id="linear-gradient-6" x1="143.1" y1="8.3" x2="110.1" y2="36.8" gradientUnits="userSpaceOnUse"><stop offset="0" stop-color="#fff"/><stop offset="1" stop-color="#fff"/></linearGradient><linearGradient id="linear-gradient-7" x1="126.4" y1="14.9" x2="104.9" y2="38.5" gradientUnits="userSpaceOnUse"><stop offset="0" stop-color="#fff"/><stop offset="1" stop-color="#fff"/></linearGradient><linearGradient id="linear-gradient-8" x1="143.2" y1="44.2" x2="139.9" y2="48.7" gradientUnits="userSpaceOnUse"><stop offset="0" stop-color="#fff"/><stop offset="0" stop-color="#fff"/><stop offset="1" stop-color="#fff"/></linearGradient><linearGradient id="linear-gradient-9" x1="153.2" y1="28.4" x2="110.1" y2="86.7" xlink:href="#linear-gradient-8"/><linearGradient id="linear-gradient-10" x1="184" y1="54.4" x2="112.2" y2="65.9" gradientUnits="userSpaceOnUse"><stop offset="0" stop-color="#fff"/><stop offset="0" stop-color="#fff"/><stop offset="1" stop-color="#fff"/></linearGradient><linearGradient id="linear-gradient-11" x1="145.5" y1="43.9" x2="126.4" y2="56.2" gradientUnits="userSpaceOnUse"><stop offset="0" stop-color="#fff"/><stop offset="1" stop-color="#fff"/></linearGradient><linearGradient id="linear-gradient-12" x1="148.9" y1="40.6" x2="138.3" y2="49" xlink:href="#linear-gradient-8"/><linearGradient id="linear-gradient-13" x1="128" y1="52.7" x2="128.6" y2="92.8" xlink:href="#linear-gradient-11"/><linearGradient id="linear-gradient-14" x1="128.2" y1="53.2" x2="128.8" y2="93.3" xlink:href="#linear-gradient-11"/><linearGradient id="linear-gradient-15" x1="128.1" y1="52.9" x2="128.7" y2="93.1" xlink:href="#linear-gradient-11"/><linearGradient id="linear-gradient-16" x1="79.9" y1="28" x2="156" y2="89" xlink:href="#linear-gradient"/><linearGradient id="linear-gradient-17" x1="128.1" y1="52.4" x2="128.7" y2="92.6" xlink:href="#linear-gradient-11"/><linearGradient id="linear-gradient-18" x1="129.9" y1="58.9" x2="130.5" y2="98.6" xlink:href="#linear-gradient-11"/><linearGradient id="linear-gradient-19" x1="31.6" y1="39.5" x2="70.9" y2="71" xlink:href="#linear-gradient"/><linearGradient id="linear-gradient-20" x1="23.5" y1="46.8" x2="47.2" y2="65.9" xlink:href="#linear-gradient"/><linearGradient id="linear-gradient-21" x1="27.5" y1="45" x2="55.2" y2="67.2" xlink:href="#linear-gradient"/><linearGradient id="linear-gradient-22" x1="13.7" y1="20.3" x2="35.3" y2="37.7" xlink:href="#linear-gradient"/><linearGradient id="linear-gradient-23" x1="-4.3" y1="57.3" x2="60.5" y2="60" xlink:href="#linear-gradient"/><linearGradient id="linear-gradient-24" x1="236.9" y1="-174.8" x2="236.9" y2="-165.4" gradientTransform="translate(-210.5 208.1)" gradientUnits="userSpaceOnUse"><stop offset="0" stop-color="#fff"/><stop offset=".9" stop-color="#fff"/><stop offset="1" stop-color="#fff"/></linearGradient><linearGradient id="linear-gradient-25" x1="229.1" y1="-168.8" x2="229.1" y2="-169.6" gradientTransform="translate(-210.5 208.1)" gradientUnits="userSpaceOnUse"><stop offset="0" stop-color="#fff"/><stop offset="1" stop-color="#fff"/></linearGradient><linearGradient id="linear-gradient-26" x1="232.2" y1="-168.8" x2="232.2" y2="-169.6" xlink:href="#linear-gradient-25"/><linearGradient id="linear-gradient-27" x1="235.3" y1="-168.8" x2="235.3" y2="-169.6" xlink:href="#linear-gradient-25"/><linearGradient id="linear-gradient-28" x1="238.3" y1="-168.8" x2="238.3" y2="-169.6" xlink:href="#linear-gradient-25"/><linearGradient id="linear-gradient-29" x1="241.4" y1="-168.8" x2="241.4" y2="-169.6" xlink:href="#linear-gradient-25"/><linearGradient id="linear-gradient-30" x1="244.5" y1="-168.8" x2="244.5" y2="-169.6" xlink:href="#linear-gradient-25"/><linearGradient id="linear-gradient-31" x1="236.9" y1="-5326.1" x2="236.9" y2="-5316.8" gradientTransform="translate(-210.5 -5295) scale(1 -1)" xlink:href="#linear-gradient-24"/><linearGradient id="linear-gradient-32" x1="229.1" y1="-5320.1" x2="229.1" y2="-5320.9" gradientTransform="translate(-210.5 -5295) scale(1 -1)" xlink:href="#linear-gradient-25"/><linearGradient id="linear-gradient-33" x1="232.2" y1="-5320.1" x2="232.2" y2="-5320.9" gradientTransform="translate(-210.5 -5295) scale(1 -1)" xlink:href="#linear-gradient-25"/><linearGradient id="linear-gradient-34" x1="235.3" y1="-5320.1" x2="235.3" y2="-5320.9" gradientTransform="translate(-210.5 -5295) scale(1 -1)" xlink:href="#linear-gradient-25"/><linearGradient id="linear-gradient-35" x1="238.3" y1="-5320.1" x2="238.3" y2="-5320.9" gradientTransform="translate(-210.5 -5295) scale(1 -1)" xlink:href="#linear-gradient-25"/><linearGradient id="linear-gradient-36" x1="241.4" y1="-5320.1" x2="241.4" y2="-5320.9" gradientTransform="translate(-210.5 -5295) scale(1 -1)" xlink:href="#linear-gradient-25"/><linearGradient id="linear-gradient-37" x1="244.5" y1="-5320.1" x2="244.5" y2="-5320.9" gradientTransform="translate(-210.5 -5295) scale(1 -1)" xlink:href="#linear-gradient-25"/><linearGradient id="linear-gradient-38" x1="180.6" y1="100.6" x2="90.1" y2="89.9" gradientUnits="userSpaceOnUse"><stop offset="0" stop-color="#fff"/><stop offset=".9" stop-color="#fff"/><stop offset="1" stop-color="#fff"/></linearGradient><linearGradient id="linear-gradient-39" x1="114.6" y1="108" x2="114.4" y2="83.2" xlink:href="#linear-gradient-8"/><linearGradient id="linear-gradient-40" x1="160.6" y1="107.6" x2="160.4" y2="82.7" xlink:href="#linear-gradient-8"/><linearGradient id="linear-gradient-41" x1="21.4" y1="98.7" x2="33.5" y2="91.7" gradientUnits="userSpaceOnUse"><stop offset="0" stop-color="#fff"/><stop offset="1" stop-color="#fff"/></linearGradient></defs><rect x="7.9" y="96.9" width="180.6" height="4.4" rx="2.2" ry="2.2" fill="url(#linear-gradient)" stroke-width="0"/><path d="M31.3,16.1v9.8h-9.8v-10c0-2.5-2-4.5-4.5-4.5H2.3V1.6h14.5c8,0,14.5,6.5,14.5,14.5Z" fill="url(#linear-gradient-2)" stroke-width="0"/><rect x="0" y="0" width="2.3" height="13.7" rx="1.2" ry="1.2" fill="url(#linear-gradient-3)" stroke-width="0"/><rect x="23.6" y="82.3" width="5.8" height="12.2" fill="url(#linear-gradient-4)" stroke-width="0"/><path d="M96.2,45.1v25.9h-27.9c-2.2,0-4-1.8-4-4v-18c0-2.2,1.8-4,4-4h27.9Z" fill="url(#linear-gradient-5)" stroke-width="0"/><path d="M108.2,23.2v10.9h22.5v-10.9h-22.5ZM110.2,26.1c0-.3.2-.6.6-.6h8.6c.1,0,.3,0,.4.2l1.8,1.7c.1.1.2.3.2.4v3.8c0,.3-.2.6-.6.6h-10.4c-.3,0-.6-.3-.6-.6v-5.5Z" fill="url(#linear-gradient-6)" stroke-width="0"/><rect x="107.3" y="21.9" width="24.4" height="1.3" rx=".3" ry=".3" fill="url(#linear-gradient-7)" stroke-width="0"/><path d="M138.8,46.4c0-1.5,1.2-2.8,2.8-2.8s2.8,1.2,2.8,2.8-1.2,2.8-2.8,2.8-2.8-1.2-2.8-2.8Z" fill="url(#linear-gradient-8)" stroke-width="0"/><path d="M108.1,33.8c-3.3,0-6.3,1.3-8.4,3.5-2.2,2.2-3.5,5.1-3.5,8.4v11.7h64.1v3.1h-64.1v3.1h64.1v3.1h-64.1v3.1h64.1v3.1h-63.8v.4c.3,1,.7,1.9,1.2,2.8h62.6v3.1h-60.2c.1.1.3.2.4.4,1.3,1.1,2.9,2,4.7,2.4.1,0,.2,0,.4,0,.8.2,1.7.3,2.6.3h52.3v-48.6h-52.3ZM141.6,41.8c2.6,0,4.7,2.1,4.7,4.7s-2.1,4.7-4.7,4.7-4.7-2.1-4.7-4.7,2.1-4.7,4.7-4.7ZM132.8,45.1c.7,0,1.3.6,1.3,1.3v3c0,.7-.6,1.3-1.3,1.3h-5.7c-.6,0-1.1-.4-1.2-.9l-.9-3c-.2-.8.4-1.6,1.2-1.6h6.6Z" fill="url(#linear-gradient-9)" stroke-width="0"/><path d="M174.2,39.5c-3.5-3.5-8.4-5.7-13.7-5.7h-.2v48.6c.1,0,.2,0,.3,0,10.7-.2,19.3-8.9,19.3-19.6v-9.4c0-5.4-2.2-10.3-5.8-13.9ZM177,66.2c-.7,0-1.3-4-1.3-8.8s.6-8.8,1.3-8.8,1.3,3.9,1.3,8.8-.6,8.8-1.3,8.8Z" fill="url(#linear-gradient-10)" stroke-width="0"/><path d="M144.4,46.4c0,1.5-1.2,2.8-2.8,2.8s-2.8-1.2-2.8-2.8,1.2-2.8,2.8-2.8,2.8,1.2,2.8,2.8Z" fill="url(#linear-gradient-11)" stroke-width="0"/><path d="M144.4,46.4c0,1.5-1.2,2.8-2.8,2.8s-2.8-1.2-2.8-2.8,1.2-2.8,2.8-2.8,2.8,1.2,2.8,2.8Z" fill="url(#linear-gradient-12)" stroke-width="0"/><rect x="96.2" y="66.7" width="64.1" height="3.1" fill="url(#linear-gradient-13)" stroke-width="0"/><rect x="96.2" y="54.3" width="64.1" height="3.1" fill="url(#linear-gradient-14)" stroke-width="0"/><rect x="96.2" y="60.5" width="64.1" height="3.1" fill="url(#linear-gradient-15)" stroke-width="0"/><rect x="96.2" y="66.7" width="64.1" height="0" fill="url(#linear-gradient-16)" stroke-width="0"/><path d="M160.3,73v3.1h-62.6c-.5-.9-.8-1.8-1.1-2.8v-.4c0,0,63.7,0,63.7,0Z" fill="url(#linear-gradient-17)" stroke-width="0"/><path d="M160.3,79.2v3.1h-52.2c-.9,0-1.7,0-2.6-.3-.2,0-.3,0-.4,0-1.7-.4-3.3-1.3-4.7-2.4-.1-.1-.3-.2-.4-.4h60.2Z" fill="url(#linear-gradient-18)" stroke-width="0"/><rect x="45.2" y="49.4" width="19.2" height="17.3" fill="url(#linear-gradient-19)" stroke-width="0"/><path d="M40.5,49.4v17.3h-6.1v-2.9h3c.6,0,1.1-.6,1.1-1.3v-8.8c0-.7-.5-1.3-1.1-1.3h-3v-2.9h6.1Z" fill="url(#linear-gradient-20)" stroke-width="0"/><rect x="40.5" y="46.8" width="6.6" height="22.6" rx="1.3" ry="1.3" fill="url(#linear-gradient-21)" stroke-width="0"/><rect x="18.3" y="29.4" width="16.4" height="2.3" fill="url(#linear-gradient-22)" stroke-width="0"/><path d="M18.3,32.8h16.4v43.7c0,4.5-3.7,8.2-8.2,8.2h0c-4.5,0-8.2-3.7-8.2-8.2v-43.7Z" fill="url(#linear-gradient-23)" stroke-width="0"/><rect x="16.4" y="35" width="20" height="3.5" rx=".8" ry=".8" fill="url(#linear-gradient-24)" stroke-width="0"/><path d="M18,38.5h1.2v.4c0,0,0,0,0,0h-1.1c0,0,0,0,0,0v-.4h0Z" fill="url(#linear-gradient-25)" stroke-width="0"/><path d="M21.1,38.5h1.2v.4c0,0,0,0,0,0h-1.1c0,0,0,0,0,0v-.4h0Z" fill="url(#linear-gradient-26)" stroke-width="0"/><path d="M24.2,38.5h1.2v.4c0,0,0,0,0,0h-1.1c0,0,0,0,0,0v-.4h0Z" fill="url(#linear-gradient-27)" stroke-width="0"/><path d="M27.3,38.5h1.2v.4c0,0,0,0,0,0h-1.1c0,0,0,0,0,0v-.4h0Z" fill="url(#linear-gradient-28)" stroke-width="0"/><path d="M30.3,38.5h1.2v.4c0,0,0,0,0,0h-1.1c0,0,0,0,0,0v-.4h0Z" fill="url(#linear-gradient-29)" stroke-width="0"/><path d="M33.4,38.5h1.2v.4c0,0,0,0,0,0h-1.1c0,0,0,0,0,0v-.4h0Z" fill="url(#linear-gradient-30)" stroke-width="0"/><rect x="16.4" y="25.9" width="20" height="3.5" rx=".8" ry=".8" fill="url(#linear-gradient-31)" stroke-width="0"/><path d="M18.1,25.4h1.1c0,0,0,0,0,0v.4h-1.2v-.4c0,0,0,0,0,0Z" fill="url(#linear-gradient-32)" stroke-width="0"/><path d="M21.2,25.4h1.1c0,0,0,0,0,0v.4h-1.2v-.4c0,0,0,0,0,0Z" fill="url(#linear-gradient-33)" stroke-width="0"/><path d="M24.3,25.4h1.1c0,0,0,0,0,0v.4h-1.2v-.4c0,0,0,0,0,0Z" fill="url(#linear-gradient-34)" stroke-width="0"/><path d="M27.3,25.4h1.1c0,0,0,0,0,0v.4h-1.2v-.4c0,0,0,0,0,0Z" fill="url(#linear-gradient-35)" stroke-width="0"/><path d="M30.4,25.4h1.1c0,0,0,0,0,0v.4h-1.2v-.4c0,0,0,0,0,0Z" fill="url(#linear-gradient-36)" stroke-width="0"/><path d="M33.5,25.4h1.1c0,0,0,0,0,0v.4h-1.2v-.4c0,0,0,0,0,0Z" fill="url(#linear-gradient-37)" stroke-width="0"/><rect x="97.9" y="94.1" width="79.1" height="2.8" rx=".5" ry=".5" fill="url(#linear-gradient-38)" stroke-width="0"/><polygon points="115.4 94.6 111.3 94.6 113.6 82.3 117.6 82.3 115.4 94.6" fill="url(#linear-gradient-39)" stroke-width="0"/><polygon points="159.5 94.6 163.5 94.6 161.3 82.3 157.3 82.3 159.5 94.6" fill="url(#linear-gradient-40)" stroke-width="0"/><rect x="20.4" y="94.6" width="12" height="2.4" rx=".4" ry=".4" fill="url(#linear-gradient-41)" stroke-width="0"/></svg>