<?xml version="1.0" encoding="UTF-8"?>
<svg id="Layer_1" data-name="Layer 1" xmlns="http://www.w3.org/2000/svg" width="162.04" height="97.31" viewBox="0 0 162.04 97.31">
  <polygon points="127.42 22.85 127.42 19.23 35.58 19.23 35.58 91.39 127.42 91.39 127.42 87.77 38.73 87.77 38.73 81.81 127.42 81.81 127.42 77.94 38.73 77.94 38.73 71.98 127.42 71.98 127.42 68.12 38.73 68.12 38.73 62.15 127.42 62.15 127.42 58.29 38.73 58.29 38.73 52.33 127.42 52.33 127.42 48.46 38.73 48.46 38.73 42.5 127.42 42.5 127.42 38.64 38.73 38.64 38.73 32.67 127.42 32.67 127.42 28.81 38.73 28.81 38.73 22.85 127.42 22.85" fill="#fff" stroke-width="0"/>
  <g>
    <rect x="12.64" y="91.39" width="136.49" height="5.92" fill="#fff" stroke-width="0"/>
    <path d="m7.22,19.23h25.58v72.15H7.22c-1.93,0-3.49-1.57-3.49-3.49V22.73c0-1.93,1.57-3.49,3.49-3.49Z" fill="#fff" stroke-width="0"/>
    <path d="m127.42,16.08h24.72c5.46,0,9.89,4.43,9.89,9.89v58.18c0,5.46-4.43,9.89-9.89,9.89h-24.72V16.08h0Z" fill="#fff" stroke-width="0"/>
    <path d="m4.86,6.65h58.66l-2.29,7.79c-.45,1.53-1.86,2.59-3.46,2.59H10.6c-1.59,0-3-1.06-3.45-2.59l-2.29-7.79Z" fill="#fff" stroke-width="0"/>
    <path d="m64.12,4.62l-.09.3H4.35l-.09-.3C3.59,2.31,5.32,0,7.72,0h52.94c2.4,0,4.13,2.31,3.46,4.62Z" fill="#fff" stroke-width="0"/>
    <path d="m1.47,27.08h6.77v56.46H1.47c-.81,0-1.47-.66-1.47-1.47V28.55c0-.81.66-1.47,1.47-1.47Z" fill="#fff" stroke-width="0"/>
    <rect x="11.1" y="17.03" width="46.18" height="2.21" fill="#fff" stroke-width="0"/>
  </g>
</svg>