<?xml version="1.0" encoding="UTF-8"?><svg id="Layer_1" xmlns="http://www.w3.org/2000/svg" width="110.6" height="102.8" xmlns:xlink="http://www.w3.org/1999/xlink" viewBox="0 0 110.6 102.8"><defs><linearGradient id="linear-gradient" x1="19.6" y1="7.8" x2="19.9" y2="7.8" gradientUnits="userSpaceOnUse"><stop offset="0" stop-color="#fff"/><stop offset="1" stop-color="#fff"/></linearGradient><linearGradient id="linear-gradient-2" x1="90.1" x2="90.5" xlink:href="#linear-gradient"/><linearGradient id="linear-gradient-3" x1="28" y1="6.7" x2="28.4" y2="6.7" xlink:href="#linear-gradient"/><linearGradient id="linear-gradient-4" x1="80.4" y1="6.7" x2="80.7" y2="6.7" xlink:href="#linear-gradient"/><linearGradient id="linear-gradient-5" x1="37" y1="6.3" x2="37.4" y2="6.3" xlink:href="#linear-gradient"/><linearGradient id="linear-gradient-6" x1="71.2" y1="6.3" x2="71.6" y2="6.3" xlink:href="#linear-gradient"/><linearGradient id="linear-gradient-7" x1="49.6" y1="6.2" x2="50" y2="6.2" xlink:href="#linear-gradient"/><linearGradient id="linear-gradient-8" x1="54.9" y1="6" x2="55.2" y2="6" xlink:href="#linear-gradient"/><linearGradient id="linear-gradient-9" x1="59.8" y1="-3.3" x2="48.1" y2="32" gradientUnits="userSpaceOnUse"><stop offset="0" stop-color="#fff"/><stop offset="1" stop-color="#fff"/></linearGradient><linearGradient id="linear-gradient-10" x1="121.7" y1="28.1" x2="-11.5" y2="27.7" gradientUnits="userSpaceOnUse"><stop offset="0" stop-color="#fff"/><stop offset=".5" stop-color="#fff"/><stop offset="1" stop-color="#fff"/></linearGradient><linearGradient id="linear-gradient-11" x1="65.1" y1="40.3" x2="65.1" y2="53.7" xlink:href="#linear-gradient-9"/><linearGradient id="linear-gradient-12" x1="71.4" y1="40.3" x2="71.4" y2="53.5" xlink:href="#linear-gradient-9"/><linearGradient id="linear-gradient-13" x1="55" y1="3.5" x2="55" y2="46.3" xlink:href="#linear-gradient-9"/><clipPath id="clippath"><polygon points="110.6 11.8 110.6 34.1 0 34.1 0 11.8 19.6 11.8 19.6 18.6 90.5 18.6 90.5 11.8 110.6 11.8" fill="none" stroke-width="0"/></clipPath><linearGradient id="linear-gradient-14" x1="37.2" y1="-8.9" x2="72.9" y2="26.9" xlink:href="#linear-gradient"/><linearGradient id="linear-gradient-15" x1="37.2" y1="-14.2" x2="72.9" y2="21.5" xlink:href="#linear-gradient"/><linearGradient id="linear-gradient-16" x1="37.2" y1="-11.3" x2="72.9" y2="24.4" xlink:href="#linear-gradient"/><linearGradient id="linear-gradient-17" x1="61.3" y1="98.5" x2="68" y2="98.5" xlink:href="#linear-gradient-9"/><linearGradient id="linear-gradient-18" x1="68.1" y1="98.4" x2="74" y2="98.4" xlink:href="#linear-gradient-9"/><linearGradient id="linear-gradient-19" x1="62.7" y1="84.3" x2="67.1" y2="84.3" xlink:href="#linear-gradient-9"/><linearGradient id="linear-gradient-20" x1="69" y1="84.3" x2="73.4" y2="84.3" xlink:href="#linear-gradient-9"/><linearGradient id="linear-gradient-21" x1="62.7" y1="50" x2="67.1" y2="50" xlink:href="#linear-gradient-9"/><linearGradient id="linear-gradient-22" x1="62.7" y1="67.1" x2="67.1" y2="67.1" xlink:href="#linear-gradient-9"/><linearGradient id="linear-gradient-23" x1="69" y1="50" x2="73.4" y2="50" xlink:href="#linear-gradient-9"/><linearGradient id="linear-gradient-24" x1="69" y1="67.1" x2="73.4" y2="67.1" xlink:href="#linear-gradient-9"/><linearGradient id="linear-gradient-25" x1="-13.3" y1="65.4" x2="110.7" y2="65.4" xlink:href="#linear-gradient-9"/><linearGradient id="linear-gradient-26" x1="59.9" y1="24.9" x2="64.2" y2="24.9" gradientUnits="userSpaceOnUse"><stop offset="0" stop-color="#fff"/><stop offset=".9" stop-color="#fff"/><stop offset="1" stop-color="#fff"/></linearGradient><linearGradient id="linear-gradient-27" x1="66.2" x2="70.5" xlink:href="#linear-gradient-26"/><linearGradient id="linear-gradient-28" x1="72.5" x2="76.8" xlink:href="#linear-gradient-26"/><linearGradient id="linear-gradient-29" x1="67.8" y1="14.2" x2="73.1" y2="135.2" gradientUnits="userSpaceOnUse"><stop offset="0" stop-color="#fff"/><stop offset=".9" stop-color="#fff"/><stop offset="1" stop-color="#fff"/></linearGradient></defs><line x1="103.9" y1="28.8" x2="103.9" y2="17.8" fill="none" stroke="#fff" stroke-miterlimit="10" stroke-width=".6"/><line x1="6.3" y1="28.8" x2="6.3" y2="17.8" fill="none" stroke="#fff" stroke-miterlimit="10" stroke-width=".6"/><line x1="14.5" y1="26" x2="14.5" y2="15" fill="none" stroke="#fff" stroke-miterlimit="10" stroke-width=".6"/><line x1="19.8" y1="11.9" x2="19.8" y2="3.6" fill="none" stroke="url(#linear-gradient)" stroke-miterlimit="10" stroke-width=".4"/><line x1="90.3" y1="11.9" x2="90.3" y2="3.6" fill="none" stroke="url(#linear-gradient-2)" stroke-miterlimit="10" stroke-width=".4"/><line x1="28.2" y1="11.9" x2="28.2" y2="1.4" fill="none" stroke="url(#linear-gradient-3)" stroke-miterlimit="10" stroke-width=".4"/><line x1="80.6" y1="11.9" x2="80.6" y2="1.4" fill="none" stroke="url(#linear-gradient-4)" stroke-miterlimit="10" stroke-width=".4"/><line x1="37.2" y1="11.9" x2="37.2" y2=".6" fill="none" stroke="url(#linear-gradient-5)" stroke-miterlimit="10" stroke-width=".4"/><line x1="71.4" y1="11.9" x2="71.4" y2=".6" fill="none" stroke="url(#linear-gradient-6)" stroke-miterlimit="10" stroke-width=".4"/><line x1="49.8" y1="12.4" x2="49.8" y2="0" fill="none" stroke="url(#linear-gradient-7)" stroke-miterlimit="10" stroke-width=".4"/><line x1="55" y1="11.9" x2="55" y2="0" fill="none" stroke="url(#linear-gradient-8)" stroke-miterlimit="10" stroke-width=".4"/><line x1="95.8" y1="26" x2="95.8" y2="15" fill="none" stroke="#fff" stroke-miterlimit="10" stroke-width=".6"/><path d="M90.5,11.2c0,1.6-15.9,2.9-35.5,2.9s-35.5-1.3-35.5-2.9,15.9-2.9,35.5-2.9,35.5,1.3,35.5,2.9Z" fill="url(#linear-gradient-9)" stroke-width="0"/><path d="M104.2,27.9c0,2.6-22,4.6-49.2,4.6S5.9,30.5,5.9,27.9s22-4.7,49.2-4.7,49.2,2.1,49.2,4.7Z" fill="url(#linear-gradient-10)" stroke-width="0"/><path d="M63.3,42.7h3.5v14.3c-1.2,0-2.3,0-3.5,0v-14.4Z" fill="url(#linear-gradient-11)" stroke-width="0"/><path d="M69.7,42.7h3.5v14.1c-1.1,0-2.3.1-3.5.1v-14.2Z" fill="url(#linear-gradient-12)" stroke-width="0"/><path d="M90.5,11.2v43.1c0,1-5.7,1.8-14.5,2.3v-13.9h1.1c.7,0,1.3-.6,1.3-1.3s-.6-1.3-1.3-1.3h-17.7c-.7,0-1.3.6-1.3,1.3s.6,1.3,1.3,1.3h1.1v14.5c-1.8,0-3.6,0-5.5,0-19.6,0-35.5-1.3-35.5-2.9V11.2c0,.1,0,.2.2.3.2.2.7.4,1.4.5.1,0,.3,0,.4.1.1,0,.3,0,.5.1.3,0,.7.1,1,.2.1,0,.2,0,.4,0,.4,0,.8.1,1.3.2.1,0,.3,0,.4,0,.5,0,.9.1,1.4.2.5,0,1.1.1,1.6.2.6,0,1.1.1,1.7.2.3,0,.5,0,.8,0,.3,0,.5,0,.8,0,1.6.1,3.4.2,5.3.3.9,0,1.9,0,2.8.1,1.6,0,3.2.1,4.8.2.5,0,1.1,0,1.7,0,1.6,0,3.2,0,4.8,0,.7,0,1.3,0,2,0,.7,0,1.4,0,2,0s1.9,0,2.8,0c.8,0,1.6,0,2.4,0h.3c.9,0,1.9,0,2.8,0,1.2,0,2.4,0,3.5,0,1,0,1.9,0,2.8-.1.6,0,1.2,0,1.8,0,.6,0,1.2,0,1.7,0,.2,0,.4,0,.5,0,.4,0,.8,0,1.2,0,.4,0,.7,0,1.1,0,1,0,2-.1,2.9-.2.5,0,1,0,1.5-.1s1,0,1.4-.1c.4,0,.7,0,1.1,0s.7,0,1-.1c.3,0,.6,0,1-.1.3,0,.5,0,.8,0,.2,0,.4,0,.5,0,.3,0,.5,0,.7-.1,0,0,0,0,0,0,.2,0,.5,0,.7-.1h0c.1,0,.2,0,.4,0,1.1-.2,1.9-.5,2.2-.7,0,0,0,0,0,0,0,0,0,0,0,0,0,0,0-.1,0-.1Z" fill="url(#linear-gradient-13)" stroke-width="0"/><line x1="24.7" y1="32" x2="24.7" y2="20.9" fill="none" stroke="#fff" stroke-miterlimit="10" stroke-width=".6"/><line x1="85.6" y1="32" x2="85.6" y2="20.9" fill="none" stroke="#fff" stroke-miterlimit="10" stroke-width=".6"/><line x1="43.3" y1="33" x2="43.3" y2="22" fill="none" stroke="#fff" stroke-miterlimit="10" stroke-width=".6"/><line x1="61.6" y1="33" x2="61.6" y2="22" fill="none" stroke="#fff" stroke-miterlimit="10" stroke-width=".6"/><g clip-path="url(#clippath)"><path d="M89.8,17.7c8.9.8,14.4,2,14.4,3.3s-.9,1-2.7,1.5c-2.5.7-6.5,1.3-11.8,1.8" fill="none" stroke="#fff" stroke-miterlimit="10" stroke-width=".6"/><path d="M89.8,24.3c-8.9.8-21.2,1.4-34.7,1.4s-25.9-.5-34.8-1.4c-5.2-.5-9.3-1.1-11.8-1.8-1.7-.5-2.7-1-2.7-1.5,0-1.3,5.5-2.4,14.4-3.3" fill="none" stroke="#fff" stroke-miterlimit="10" stroke-width=".6"/><path d="M89.8,20.7c5.2.5,9.3,1.1,11.8,1.8,1.7.5,2.7,1,2.7,1.5,0,1.3-5.5,2.4-14.4,3.3-8.9.8-21.2,1.4-34.7,1.4s-25.9-.5-34.8-1.4c-8.9-.8-14.4-2-14.4-3.3s.9-1,2.7-1.5c2.5-.7,6.5-1.3,11.8-1.8" fill="none" stroke="#fff" stroke-miterlimit="10" stroke-width=".6"/><path d="M89.8,14c5.2.5,9.3,1.1,11.8,1.8,1.7.5,2.7,1,2.7,1.5,0,1.3-5.5,2.4-14.4,3.3-8.9.8-21.2,1.4-34.7,1.4s-25.9-.5-34.8-1.4c-8.9-.8-14.4-2-14.4-3.3s.9-1,2.7-1.5c2.5-.7,6.5-1.3,11.8-1.8" fill="none" stroke="#fff" stroke-miterlimit="10" stroke-width=".6"/></g><ellipse cx="55" cy="9" rx="35.3" ry="3.4" fill="none" stroke="url(#linear-gradient-14)" stroke-miterlimit="10" stroke-width=".4"/><path d="M55.1.2c19.5,0,35.3,1.5,35.3,3.4s-15.8,3.4-35.3,3.4-3.5,0-5.2,0c-17-.2-30-1.7-30-3.4S32.8.5,49.8.2" fill="none" stroke="url(#linear-gradient-15)" stroke-miterlimit="10" stroke-width=".4"/><ellipse cx="55" cy="6.6" rx="35.3" ry="3.4" fill="none" stroke="url(#linear-gradient-16)" stroke-miterlimit="10" stroke-width=".4"/><path d="M67.6,102.7c-1.7,0-3.5,0-5.3.1.6-.1,1-.7,1-1.3v-7.3h3.5v7.3c0,.5.3,1,.8,1.2Z" fill="url(#linear-gradient-17)" stroke-width="0"/><path d="M73.7,102.5c-1.5,0-3.1.1-4.7.2.4-.2.7-.7.7-1.2v-7.3h3.5v7.3c0,.4.2.8.5,1Z" fill="url(#linear-gradient-18)" stroke-width="0"/><rect x="63.3" y="77" width="3.5" height="14.6" fill="url(#linear-gradient-19)" stroke-width="0"/><rect x="69.7" y="77" width="3.5" height="14.6" fill="url(#linear-gradient-20)" stroke-width="0"/><rect x="63.3" y="42.7" width="3.5" height="14.6" fill="url(#linear-gradient-21)" stroke-width="0"/><rect x="63.3" y="59.8" width="3.5" height="14.6" fill="url(#linear-gradient-22)" stroke-width="0"/><rect x="69.7" y="42.7" width="3.5" height="14.6" fill="url(#linear-gradient-23)" stroke-width="0"/><rect x="69.7" y="59.8" width="3.5" height="14.6" fill="url(#linear-gradient-24)" stroke-width="0"/><path d="M104.2,27.9v70.2c0,1.9-11.7,3.5-28.6,4.2.2-.2.4-.6.4-.9v-7.3h1.1c.7,0,1.3-.6,1.3-1.3s-.6-1.3-1.3-1.3h-1.1v-14.6h1.1c.7,0,1.3-.6,1.3-1.3s-.6-1.3-1.3-1.3h-1.1v-14.6h1.1c.7,0,1.3-.6,1.3-1.3s-.6-1.3-1.3-1.3h-1.1v-14.6h1.1c.7,0,1.3-.6,1.3-1.3s-.6-1.3-1.3-1.3h-17.7c-.7,0-1.3.6-1.3,1.3s.6,1.3,1.3,1.3h1.1v14.6h-1.1c-.7,0-1.3.6-1.3,1.3s.6,1.3,1.3,1.3h1.1v14.6h-1.1c-.7,0-1.3.6-1.3,1.3s.6,1.3,1.3,1.3h1.1v14.6h-1.1c-.7,0-1.3.6-1.3,1.3s.6,1.3,1.3,1.3h1.1v7.3c0,.7.5,1.2,1.1,1.3-2.2,0-4.3,0-6.6,0-27.2,0-49.2-2.1-49.2-4.6V27.9s0,0,0,.1c0,0,0,0,0,0,0,0,0,0,0,0,0,.1.2.2.3.3,0,0,.2.1.3.2,0,0,.2.1.3.2,0,0,.2,0,.3.1.2.1.5.2.8.3.3,0,.6.2,1,.3.2,0,.5.1.8.2,0,0,0,0,.1,0,.2,0,.4,0,.7.1.3,0,.6.1.9.2s.4,0,.6.1c0,0,.2,0,.2,0,.2,0,.4,0,.6,0,1.3.2,2.8.4,4.4.6.8,0,1.5.2,2.3.2,0,0,0,0,.1,0,1,0,2,.2,3.1.3.7,0,1.3.1,2,.2,1.3.1,2.8.2,4.2.3.5,0,1.1,0,1.7,0,1.7,0,3.4.2,5.2.2.8,0,1.6,0,2.3,0h0c1.5,0,3,.1,4.5.1.2,0,.3,0,.5,0,.7,0,1.4,0,2.1,0,1.4,0,2.8,0,4.2,0,.5,0,1,0,1.5,0,.2,0,.4,0,.6,0,1.1,0,2.2,0,3.4,0s2.1,0,3.1,0h.5c.6,0,1.3,0,1.9,0,.3,0,.7,0,1,0,.6,0,1.2,0,1.8,0s.4,0,.5,0c1,0,2,0,3,0,.9,0,1.9,0,2.8,0,1.2,0,2.4,0,3.5-.1.9,0,1.9,0,2.8-.1,3.4-.1,6.7-.3,9.6-.6,1.3-.1,2.6-.2,3.8-.3.4,0,.8,0,1.2-.1,0,0,0,0,.1,0,.8,0,1.6-.2,2.3-.2.2,0,.4,0,.6,0,.2,0,.4,0,.6,0,0,0,0,0,0,0,.1,0,.3,0,.4,0,.4,0,.8-.1,1.2-.2.4,0,.8-.1,1.1-.2.2,0,.4,0,.6-.1.2,0,.5,0,.7-.1.4,0,.7-.1,1.1-.2.2,0,.4,0,.5-.1.2,0,.3,0,.5-.1.4,0,.7-.2,1-.2.1,0,.2,0,.3,0,.6-.2,1.1-.4,1.5-.5,0,0,.2,0,.2-.1,0,0,.1,0,.2-.1,0,0,.1,0,.2-.1,0,0,0,0,0,0,0,0,0,0,.1-.1,0,0,0,0,.1-.1,0,0,0-.2,0-.3Z" fill="url(#linear-gradient-25)" stroke-width="0"/><path d="M63.3,11.1v29h-2.8V11.1c0-.5.3-.9.7-1.2h0c.2-.1.4-.2.7-.2h0c.2,0,.5,0,.7.2.4.2.7.7.7,1.2Z" fill="url(#linear-gradient-26)" stroke-width="0"/><path d="M69.7,11.1v29h-2.8V11.1c0-.8.6-1.4,1.4-1.4h0c.8,0,1.4.6,1.4,1.4Z" fill="url(#linear-gradient-27)" stroke-width="0"/><path d="M76,11.1v29h-2.8V11.1c0-.8.6-1.4,1.4-1.4h0c.8,0,1.4.6,1.4,1.4Z" fill="url(#linear-gradient-28)" stroke-width="0"/><rect x="58.2" y="22.9" width="20.2" height="2.6" rx="1.3" ry="1.3" fill="url(#linear-gradient-29)" stroke-width="0"/></svg>