<?xml version="1.0" encoding="UTF-8"?><svg id="Layer_1" xmlns="http://www.w3.org/2000/svg" width="109.7" height="90.5" xmlns:xlink="http://www.w3.org/1999/xlink" viewBox="0 0 109.7 90.5"><defs><linearGradient id="linear-gradient" x1="59.7" y1="52.3" x2="60.3" y2="3.9" gradientUnits="userSpaceOnUse"><stop offset="0" stop-color="#fff"/><stop offset=".6" stop-color="#fff"/><stop offset="1" stop-color="#fff"/></linearGradient><linearGradient id="linear-gradient-2" x1="63" y1="20.4" x2="52.1" y2="3.2" gradientUnits="userSpaceOnUse"><stop offset="0" stop-color="#fff"/><stop offset=".5" stop-color="#fff"/><stop offset="1" stop-color="#fff"/></linearGradient><linearGradient id="linear-gradient-3" x1="63.8" y1="19.9" x2="52.8" y2="2.7" gradientUnits="userSpaceOnUse"><stop offset="0" stop-color="#fff"/><stop offset="0" stop-color="#fff"/><stop offset="1" stop-color="#fff"/></linearGradient><linearGradient id="linear-gradient-4" x1="64.8" y1="19.3" x2="53.8" y2="2.1" xlink:href="#linear-gradient-3"/><linearGradient id="linear-gradient-5" x1="-8.2" y1="53" x2="115.9" y2="53" gradientUnits="userSpaceOnUse"><stop offset="0" stop-color="#fff"/><stop offset="1" stop-color="#fff"/></linearGradient></defs><line x1="51.8" y1=".3" x2="51.8" y2="14.8" fill="none" stroke="#fff" stroke-miterlimit="10" stroke-width=".6"/><line x1="109" y1="16.5" x2="109" y2="5.5" fill="none" stroke="#fff" stroke-miterlimit="10" stroke-width=".6"/><line x1="11.4" y1="16.5" x2="11.4" y2="5.5" fill="none" stroke="#fff" stroke-miterlimit="10" stroke-width=".6"/><line x1="70.1" y1=".4" x2="70.1" y2="13.1" fill="none" stroke="#fff" stroke-miterlimit="10" stroke-width=".6"/><line x1="100.9" y1="13.7" x2="100.9" y2="2.6" fill="none" stroke="#fff" stroke-miterlimit="10" stroke-width=".6"/><path d="M109.4,8.6c0,2.6-22,4.6-49.2,4.6S11,11.2,11,8.6,33,3.9,60.2,3.9s49.2,2.1,49.2,4.7Z" fill="none" stroke="#fff" stroke-miterlimit="10" stroke-width=".6"/><line x1="34" y1=".8" x2="34" y2="16.6" fill="none" stroke="#fff" stroke-miterlimit="10" stroke-width=".6"/><path d="M109.4,15.6c0,2.6-22,4.6-49.2,4.6s-49.2-2.1-49.2-4.6,22-4.7,49.2-4.7,49.2,2.1,49.2,4.7Z" fill="url(#linear-gradient)" stroke-width="0"/><rect x="54.2" y="15.2" width="12" height="1.5" fill="url(#linear-gradient-2)" stroke-width="0"/><path d="M52.7,13.5h14.9v1.5c0,0,0,.2-.2.2h-14.6c0,0-.2,0-.2-.2v-1.5h0Z" fill="url(#linear-gradient-3)" stroke-width="0"/><path d="M53.7,10.6h12.9c.6,0,1,.5,1,1v1.2h-14.9v-1.2c0-.6.5-1,1-1Z" fill="url(#linear-gradient-4)" stroke-width="0"/><line x1="19.3" y1="2.4" x2="19.3" y2="18.2" fill="none" stroke="#fff" stroke-miterlimit="10" stroke-width=".6"/><path d="M2.6,79.7H0l1-3h1.6c.7,0,1.3-.6,1.3-1.3V29.1c0-2.6,2.1-4.7,4.7-4.7h3.5v3h-3.5c-.9,0-1.7.8-1.7,1.7v46.3c0,2.4-1.9,4.3-4.3,4.3Z" fill="#fff" stroke-width="0"/><path d="M109.4,11.9c0,2.6-22,4.6-49.2,4.6S11,14.5,11,11.9s22-4.7,49.2-4.7,49.2,2.1,49.2,4.7Z" fill="none" stroke="#fff" stroke-miterlimit="10" stroke-width=".6"/><path d="M109.4,5c0,2.6-22,4.6-49.2,4.6S11,7.5,11,5,33,.3,60.2.3s49.2,2.1,49.2,4.7Z" fill="none" stroke="#fff" stroke-miterlimit="10" stroke-width=".6"/><line x1="48.4" y1="20.7" x2="48.4" y2="9.6" fill="none" stroke="#fff" stroke-miterlimit="10" stroke-width=".6"/><line x1="90.7" y1="19.6" x2="90.7" y2="8.6" fill="none" stroke="#fff" stroke-miterlimit="10" stroke-width=".6"/><line x1="66.7" y1="20.7" x2="66.7" y2="9.6" fill="none" stroke="#fff" stroke-miterlimit="10" stroke-width=".6"/><line x1="87" y1="1.1" x2="87" y2="12.4" fill="none" stroke="#fff" stroke-miterlimit="10" stroke-width=".6"/><line x1="29.8" y1="19.6" x2="29.8" y2="8.6" fill="none" stroke="#fff" stroke-miterlimit="10" stroke-width=".6"/><path d="M109.4,15.6v70.2c0,2.6-22,4.6-49.2,4.6s-49.2-2.1-49.2-4.6V15.6c0,2.6,22,4.6,49.2,4.6s49.2-2.1,49.2-4.6Z" fill="url(#linear-gradient-5)" stroke-width="0"/></svg>