<?xml version="1.0" standalone="no"?>
<!DOCTYPE svg PUBLIC "-//W3C//DTD SVG 20010904//EN"
 "http://www.w3.org/TR/2001/REC-SVG-20010904/DTD/svg10.dtd">
<svg version="1.0" xmlns="http://www.w3.org/2000/svg"
 width="2048.000000pt" height="2048.000000pt" viewBox="0 0 2048.000000 2048.000000"
 preserveAspectRatio="xMidYMid meet">
<metadata>
Created by potrace 1.14, written by Peter Selinger 2001-2017
</metadata>
<g transform="translate(0.000000,2048.000000) scale(0.100000,-0.100000)"
fill="#000000" stroke="none">
<path d="M5725 20473 c-233 -3 -752 -21 -975 -34 -1100 -63 -1749 -212 -2333
-537 -419 -232 -765 -497 -1097 -838 -237 -243 -435 -495 -604 -766 -282 -451
-430 -824 -535 -1345 -104 -521 -150 -1089 -172 -2153 -14 -724 -7 -9279 9
-9610 30 -619 49 -880 88 -1190 82 -661 225 -1139 472 -1583 232 -419 497
-765 838 -1097 177 -173 273 -254 473 -403 172 -129 376 -259 572 -364 600
-324 1278 -466 2489 -523 607 -28 1350 -31 5655 -27 4347 4 4555 5 5115 37
1112 63 1762 213 2353 543 413 231 758 495 1087 833 173 177 254 273 403 473
263 353 476 745 593 1096 206 617 285 1299 314 2700 15 716 8 9220 -8 9580
-48 1075 -112 1582 -268 2107 -258 868 -940 1756 -1779 2315 -871 580 -1600
741 -3550 783 -377 8 -8533 11 -9140 3z m12885 -5690 c-1 -5 -312 -211 -693
-459 -381 -249 -1032 -674 -1447 -946 -663 -434 -912 -588 -2045 -1273 -709
-429 -1719 -1039 -2243 -1356 -525 -317 -954 -580 -953 -585 0 -5 188 -124
418 -264 230 -141 1088 -665 1906 -1164 l1488 -909 -3 -31 -3 -31 -740 0
c-738 0 -740 0 -850 23 -150 32 -299 84 -425 146 -58 29 -696 413 -1418 855
-722 441 -1319 804 -1326 807 -7 3 -134 -64 -282 -149 -791 -453 -1759 -978
-2819 -1527 -383 -198 -2146 -1081 -2665 -1335 -1060 -517 -1444 -700 -1535
-730 -243 -80 -622 -142 -980 -161 -84 -4 -126 -3 -120 3 6 6 179 116 385 245
206 129 944 593 1640 1030 696 437 1573 979 1950 1205 377 226 984 589 1350
808 1437 860 1770 1060 1770 1065 0 3 -181 115 -403 250 -3022 1842 -3858
2357 -3863 2378 -14 54 -37 52 692 52 541 0 695 -3 787 -15 196 -26 384 -83
557 -170 41 -21 768 -461 1615 -978 847 -517 1547 -942 1557 -944 9 -3 118 55
250 133 1078 635 2510 1414 4138 2249 223 114 473 242 555 285 598 310 2567
1294 2639 1319 241 85 617 152 956 171 74 4 141 8 148 8 6 1 12 -1 12 -5z"/>
</g>
</svg>
