<svg xmlns="http://www.w3.org/2000/svg" xmlns:xlink="http://www.w3.org/1999/xlink" width="880.6171875" height="165.453125" style="width:880.6171875px;height:165.453125px;font-family:Asana-Math, Asana;background:transparent;"><g><g><g><g transform="matrix(1,0,0,1,20,98.0565625)"><path transform="matrix(0.04233,0,0,-0.04233,0,0)" d="M108 471C108 386 146 339 230 319L325 296C379 283 406 248 406 191C406 96 335 30 232 30C178 30 140 42 96 73L96 172L66 172C60 117 53 72 42 20C91 -5 144 -18 197 -18C352 -18 485 99 485 234C485 313 442 355 341 377L276 391C210 405 180 442 180 508C180 595 247 658 339 658C388 658 421 645 451 613L451 537L481 537C485 591 492 629 506 672C461 696 421 706 374 706C250 706 108 614 108 471Z" stroke="rgb(0,0,0)" stroke-opacity="1" stroke-width="8" fill="rgb(0,0,0)" fill-opacity="1"></path></g></g><g><g><g><g><g transform="matrix(1,0,0,1,44.765625,106.0294375)"><path transform="matrix(0.029631,0,0,-0.029631,0,0)" d="M730 103L704 86C675 67 653 56 643 56C636 56 630 65 630 76C630 86 632 95 637 116L712 413C716 430 719 446 719 454C719 471 709 482 693 482C664 482 626 464 565 421C502 376 467 341 418 272L448 409C452 429 455 444 455 451C455 470 445 482 429 482C399 482 353 460 298 418C254 384 234 363 169 275L202 408C206 424 208 439 208 451C208 470 199 482 185 482C164 482 126 461 52 408L24 388L31 368C68 391 103 414 110 414C121 414 128 404 128 389C128 338 87 145 46 2L49 -9L117 6L139 108C163 219 190 278 245 338C287 384 332 414 360 414C367 414 371 406 371 393C371 358 349 244 308 69L292 2L297 -9L366 6L387 113C403 194 437 269 481 318C536 379 586 414 618 414C626 414 631 405 631 389C631 365 628 351 606 264C566 105 550 84 550 31C550 6 561 -9 580 -9C606 -9 642 12 740 85ZM1048 204L1019 77C1015 60 1013 42 1013 26C1013 4 1022 -9 1037 -9C1060 -9 1101 17 1183 85L1176 106C1152 86 1123 59 1101 59C1092 59 1086 68 1086 82C1086 87 1086 90 1087 93L1179 472L1169 481L1136 463C1095 478 1078 482 1051 482C1023 482 1003 477 976 464C914 433 881 403 856 354C812 265 781 145 781 67C781 23 796 -11 815 -11C852 -11 932 41 1048 204ZM1096 414C1074 305 1055 253 1021 201C964 117 903 59 871 59C859 59 853 72 853 99C853 163 881 280 916 360C940 415 963 433 1011 433C1034 433 1052 429 1096 414ZM1229 1C1244 -7 1260 -11 1272 -11C1305 -11 1344 18 1375 65L1451 182L1462 113C1475 28 1498 -11 1534 -11C1556 -11 1588 6 1620 35L1669 79L1660 98C1624 68 1599 53 1583 53C1568 53 1555 63 1545 83C1536 102 1525 139 1520 168L1502 269L1537 318C1584 383 1611 406 1642 406C1658 406 1670 398 1675 383L1689 387L1704 472C1692 479 1683 482 1674 482C1634 482 1594 446 1532 354L1495 299L1489 347C1477 446 1450 482 1391 482C1365 482 1343 474 1334 461L1276 378L1293 368C1323 402 1343 416 1362 416C1395 416 1417 375 1434 277L1445 215L1405 153C1362 86 1328 54 1300 54C1285 54 1274 58 1272 63L1261 91L1241 88C1241 53 1233 27 1229 1Z" stroke="rgb(0,0,0)" stroke-opacity="1" stroke-width="8" fill="rgb(0,0,0)" fill-opacity="1"></path></g></g></g></g></g><g><g transform="matrix(1,0,0,1,98.2421875,98.0565625)"><path transform="matrix(0.04233,0,0,-0.04233,0,0)" d="M204 123C177 114 159 108 106 93C99 17 74 -48 16 -144L30 -155L71 -136C152 -31 190 32 218 109Z" stroke="rgb(0,0,0)" stroke-opacity="1" stroke-width="8" fill="rgb(0,0,0)" fill-opacity="1"></path></g></g><g><g transform="matrix(1,0,0,1,117.25,98.0565625)"><path transform="matrix(0.04233,0,0,-0.04233,0,0)" d="M34 388L41 368L73 389C110 412 113 414 120 414C130 414 138 404 138 391C138 384 134 361 130 347L64 107C56 76 51 49 51 30C51 6 62 -9 81 -9C107 -9 143 12 241 85L231 103L205 86C176 67 153 56 144 56C137 56 131 66 131 76C131 86 133 95 138 116L215 420C219 437 221 448 221 456C221 473 212 482 196 482C174 482 137 461 62 408ZM228 712C199 712 170 679 170 645C170 620 185 604 209 604C240 604 264 633 264 671C264 695 249 712 228 712ZM301 388L308 368L340 389C377 412 380 414 387 414C398 414 405 404 405 389C405 338 364 145 323 2L330 -9C355 -2 378 4 400 8C419 134 440 199 486 268C540 352 615 414 660 414C671 414 677 405 677 390C677 372 674 351 666 319L614 107C605 70 601 47 601 31C601 6 612 -9 631 -9C657 -9 693 12 791 85L781 103L755 86C726 67 704 56 694 56C687 56 681 65 681 76C681 81 682 92 683 96L749 372C756 401 760 429 760 446C760 469 749 482 729 482C687 482 618 444 559 389C521 354 493 320 441 247L479 408C483 426 485 438 485 449C485 470 477 482 462 482C441 482 402 460 329 408Z" stroke="rgb(0,0,0)" stroke-opacity="1" stroke-width="8" fill="rgb(0,0,0)" fill-opacity="1"></path></g></g><g><g transform="matrix(1,0,0,1,175.7109375,98.0565625)"><path transform="matrix(0.04233,0,0,-0.04233,0,0)" d="M604 347L604 406L65 406L65 347ZM604 134L604 193L65 193L65 134Z" stroke="rgb(0,0,0)" stroke-opacity="1" stroke-width="8" fill="rgb(0,0,0)" fill-opacity="1"></path></g></g><g><g transform="matrix(1,0,0,1,216.6875,98.0565625)"><path transform="matrix(0.04233,0,0,-0.04233,0,0)" d="" stroke="rgb(0,0,0)" stroke-opacity="1" stroke-width="8" fill="rgb(0,0,0)" fill-opacity="1"></path></g></g><g><g><g transform="matrix(1,0,0,1,227.234375,98.0565625)"><path transform="matrix(0.04233,0,0,-0.04233,0,0)" d="M18 400L55 400C95 400 99 393 99 327L99 102C99 39 96 32 62 30L16 27L16 -3C112 0 115 0 143 0C171 0 197 -1 262 -3L262 27L220 30C186 32 183 39 183 102L183 314C183 359 249 408 309 408C363 408 400 357 400 281L400 102C400 39 397 32 363 30L317 27L317 -3C417 0 417 0 442 0C467 0 467 0 567 -3L567 27L521 30C487 32 484 39 484 102L484 314C484 359 550 408 610 408C664 408 701 357 701 281L701 -3C762 0 763 0 780 0C793 0 793 0 869 -3L869 27L822 30C788 32 785 39 785 102L785 308C785 407 727 469 635 469C600 469 571 460 553 444L477 376C445 442 404 469 335 469C298 469 270 460 252 444L183 380L183 465L174 469C123 448 71 434 18 428ZM1070 465L1061 469C1010 448 958 434 905 428L905 400L942 400C982 400 986 393 986 327L986 102C986 39 983 32 949 30L903 27L903 -3C1003 0 1003 0 1028 0C1053 0 1053 0 1153 -3L1153 27L1107 30C1073 32 1070 39 1070 102ZM1024 687C994 687 968 661 968 631C968 602 994 576 1023 576C1052 576 1079 602 1079 631C1079 659 1052 687 1024 687ZM1582 -3C1643 0 1644 0 1661 0C1675 0 1675 0 1744 -3L1744 27L1703 30C1669 32 1666 38 1666 102L1666 295C1666 412 1611 469 1499 469C1462 469 1441 462 1420 444L1344 378L1344 465L1335 469C1284 448 1232 434 1179 428L1179 400L1216 400C1256 400 1260 393 1260 327L1260 102C1260 39 1257 32 1223 30L1178 27L1178 -3C1246 -1 1273 0 1302 0C1331 0 1358 -1 1426 -3L1426 27L1381 30C1347 32 1344 39 1344 102L1344 314C1344 359 1410 408 1471 408C1538 408 1582 358 1582 281Z" stroke="rgb(0,0,0)" stroke-opacity="1" stroke-width="8" fill="rgb(0,0,0)" fill-opacity="1"></path></g></g></g><g><svg x="304.40625" overflow="visible" y="24.2265625" height="117" width="19.046875"><path d=" M 14.90 4.23 l -0.25 -0.25 q -2.71 0.08 -5.38 0.08 q -2.54 0.00 -5.33 -0.08 l -0.38 0.55 q 0.38 1.44 0.38 7.83 v 2.12 h 3.56 v -2.12 q 0.00 -3.26 0.17 -5.33 q 0.13 -1.48 2.96 -1.48 h 4.11 l 0.17 -0.21 v -1.10 z  M 3.94 14.01 v 88.98 h 3.56 v -88.98 z " style="fill:rgb(0,0,0);fill-opacity:1;stroke-width:1px;stroke:none;stroke-opacity:1;"></path><path d=" M 14.90 112.77 l -0.25 0.25 q -2.71 -0.08 -5.38 -0.08 q -2.54 0.00 -5.33 0.08 l -0.38 -0.55 q 0.38 -1.44 0.38 -7.83 v -2.12 h 3.56 v 2.12 q 0.00 3.26 0.17 5.33 q 0.13 1.48 2.96 1.48 h 4.11 l 0.17 0.21 v 1.10 z" style="fill:rgb(0,0,0);fill-opacity:1;stroke-width:1px;stroke:none;stroke-opacity:1;"></path></svg></g><g><g transform="matrix(1,0,0,1,323.453125,98.0565625)"><path transform="matrix(0.04233,0,0,-0.04233,0,0)" d="M371 664L374 692L350 692L260 689C244 689 226 689 183 690L119 692L116 664L163 662C187 661 198 653 198 635C198 621 195 592 189 559L116 125C99 33 98 32 58 28L17 25L13 -3L55 -2C103 -1 126 0 145 0L242 -3L268 -3L271 25L222 28C195 30 186 37 186 57C186 63 187 74 188 78L231 340C381 169 404 140 509 -3L578 0C614 -1 620 -2 646 -3L646 27L626 27C603 27 583 39 562 65L316 367L608 640C624 655 645 665 662 665L683 665L683 692L660 691C639 690 623 689 615 689C605 689 589 690 568 691L548 692L548 663C548 655 538 642 510 614C466 569 297 403 233 353L278 613C285 651 292 658 329 661Z" stroke="rgb(0,0,0)" stroke-opacity="1" stroke-width="8" fill="rgb(0,0,0)" fill-opacity="1"></path></g></g><g><g transform="matrix(1,0,0,1,370.6484375,98.0565625)"><path transform="matrix(0.04233,0,0,-0.04233,0,0)" d="M611 37L376 271L611 505L568 547L335 313L101 547L59 505L293 271L59 37L101 -5L335 229L568 -5Z" stroke="rgb(0,0,0)" stroke-opacity="1" stroke-width="8" fill="rgb(0,0,0)" fill-opacity="1"></path></g></g><g><g transform="matrix(1,0,0,1,407.390625,98.0565625)"><path transform="matrix(0.04233,0,0,-0.04233,0,0)" d="M357 471C357 386 395 339 479 319L574 296C628 283 655 248 655 191C655 96 584 30 481 30C427 30 389 42 345 73L345 172L315 172C309 117 302 72 291 20C340 -5 393 -18 446 -18C601 -18 734 99 734 234C734 313 691 355 590 377L525 391C459 405 429 442 429 508C429 595 496 658 588 658C637 658 670 645 700 613L700 537L730 537C734 591 741 629 755 672C710 696 670 706 623 706C499 706 357 614 357 471Z" stroke="rgb(0,0,0)" stroke-opacity="1" stroke-width="8" fill="rgb(0,0,0)" fill-opacity="1"></path></g></g><g><g><g><g><g transform="matrix(1,0,0,1,442.6953125,106.0294375)"><path transform="matrix(0.029631,0,0,-0.029631,0,0)" d="M271 204L242 77C238 60 236 42 236 26C236 4 245 -9 260 -9C283 -9 324 17 406 85L399 106C375 86 346 59 324 59C315 59 309 68 309 82C309 87 309 90 310 93L402 472L392 481L359 463C318 478 301 482 274 482C246 482 226 477 199 464C137 433 104 403 79 354C35 265 4 145 4 67C4 23 19 -11 38 -11C75 -11 155 41 271 204ZM319 414C297 305 278 253 244 201C187 117 126 59 94 59C82 59 76 72 76 99C76 163 104 280 139 360C163 415 186 433 234 433C257 433 275 429 319 414ZM811 365C814 403 819 435 827 476C816 481 812 482 807 482C776 482 745 458 709 407C670 351 631 291 615 256L647 408C651 425 653 438 653 450C653 470 645 482 630 482C609 482 571 461 497 408L469 388L476 368L508 389C536 407 547 412 556 412C566 412 573 403 573 390C573 332 530 126 490 -2L500 -9C515 -4 531 -1 554 4L567 6L593 126C611 209 634 262 678 319C712 363 739 384 761 384C776 384 786 379 797 365ZM1173 330L1196 330C1204 395 1211 432 1220 458C1196 473 1161 482 1124 482C1079 483 1006 463 949 400C895 352 856 241 856 136C856 40 898 -11 978 -11C1032 -11 1080 9 1135 54L1185 95L1177 115L1162 105C1090 57 1052 40 1017 40C961 40 932 80 932 159C932 267 967 371 1016 409C1037 425 1061 433 1092 433C1137 433 1173 414 1173 390Z" stroke="rgb(0,0,0)" stroke-opacity="1" stroke-width="8" fill="rgb(0,0,0)" fill-opacity="1"></path></g></g></g></g></g><g><g transform="matrix(1,0,0,1,481.890625,98.0565625)"><path transform="matrix(0.04233,0,0,-0.04233,0,0)" d="" stroke="rgb(0,0,0)" stroke-opacity="1" stroke-width="8" fill="rgb(0,0,0)" fill-opacity="1"></path></g></g><g><g transform="matrix(1,0,0,1,500.8984375,98.0565625)"><path transform="matrix(0.04233,0,0,-0.04233,0,0)" d="M611 37L376 271L611 505L568 547L335 313L101 547L59 505L293 271L59 37L101 -5L335 229L568 -5Z" stroke="rgb(0,0,0)" stroke-opacity="1" stroke-width="8" fill="rgb(0,0,0)" fill-opacity="1"></path></g></g><g><g transform="matrix(1,0,0,1,537.640625,98.0565625)"><path transform="matrix(0.04233,0,0,-0.04233,0,0)" d="" stroke="rgb(0,0,0)" stroke-opacity="1" stroke-width="8" fill="rgb(0,0,0)" fill-opacity="1"></path></g></g><g><g><g><g><g transform="matrix(1,0,0,1,552.4140625,68.7675)"><path transform="matrix(0.04233,0,0,-0.04233,0,0)" d="M146 266C146 526 243 632 301 700L282 726C225 675 60 542 60 266C60 159 85 58 133 -32C168 -99 200 -138 282 -215L301 -194C255 -137 146 -15 146 266Z" stroke="rgb(0,0,0)" stroke-opacity="1" stroke-width="8" fill="rgb(0,0,0)" fill-opacity="1"></path></g></g><g><g transform="matrix(1,0,0,1,566.46875,68.2675)"><path transform="matrix(0.04233,0,0,-0.04233,0,0)" d="M316 -3C388 -3 437 8 489 34C645 114 741 265 741 431C741 529 711 599 650 642C604 675 519 693 424 692L220 689L210 689C201 689 198 689 97 692L94 664L147 662C171 661 182 653 182 635C182 621 178 589 173 559L86 55C81 31 56 29 33 23L28 -3L121 0L176 0C211 0 282 -3 316 -3ZM384 655C566 655 649 579 649 415C649 225 549 41 329 41C285 41 236 46 168 56C168 68 169 75 172 93L268 650C291 650 349 655 384 655Z" stroke="rgb(0,0,0)" stroke-opacity="1" stroke-width="8" fill="rgb(0,0,0)" fill-opacity="1"></path></g></g><g><g transform="matrix(1,0,0,1,599.359375,68.7675)"><path transform="matrix(0.04233,0,0,-0.04233,0,0)" d="M51 726L32 700C87 636 187 526 187 266C187 -10 83 -131 32 -194L51 -215C104 -165 273 -23 273 265C273 542 108 675 51 726Z" stroke="rgb(0,0,0)" stroke-opacity="1" stroke-width="8" fill="rgb(0,0,0)" fill-opacity="1"></path></g></g></g></g><g><g><g><g transform="matrix(1,0,0,1,566.46875,131.84562499999998)"><path transform="matrix(0.04233,0,0,-0.04233,0,0)" d="M221 385L263 613C270 652 277 658 314 661L356 664L359 692L335 692L245 689C229 689 211 689 168 690L104 692L101 664L148 662C172 661 183 653 183 635C183 621 179 590 174 559L100 125C83 33 82 32 42 28L1 25L-3 -3L39 -2C87 -1 110 0 129 0L226 -3L252 -3L255 25L206 28C179 30 170 37 170 58C170 67 171 74 174 93L216 340L277 341C339 342 381 343 400 343C419 343 460 342 523 341L584 340L544 125C535 76 528 48 523 42C519 34 508 30 486 28L436 25L432 -3L488 -2C532 -1 562 0 573 0C589 0 620 -1 663 -2L705 -3L708 25L650 28C624 29 614 37 614 58C614 67 615 76 618 93L710 613C717 652 723 657 761 661L797 664L800 692L784 692L693 689C678 689 657 689 613 690L550 692L547 664L595 662C619 661 630 653 630 635C630 621 626 589 621 559L591 385Z" stroke="rgb(0,0,0)" stroke-opacity="1" stroke-width="8" fill="rgb(0,0,0)" fill-opacity="1"></path></g></g></g></g><line style="fill:none;stroke-width:2px;stroke:rgb(0, 0, 0);" x1="552.4140625" y1="87.6484375" x2="613.4140625" y2="87.6484375"></line></g><g><g transform="matrix(1,0,0,1,626.1015625,98.0565625)"><path transform="matrix(0.04233,0,0,-0.04233,0,0)" d="M611 37L376 271L611 505L568 547L335 313L101 547L59 505L293 271L59 37L101 -5L335 229L568 -5Z" stroke="rgb(0,0,0)" stroke-opacity="1" stroke-width="8" fill="rgb(0,0,0)" fill-opacity="1"></path></g></g><g><g transform="matrix(1,0,0,1,662.84375,98.0565625)"><path transform="matrix(0.04233,0,0,-0.04233,0,0)" d="" stroke="rgb(0,0,0)" stroke-opacity="1" stroke-width="8" fill="rgb(0,0,0)" fill-opacity="1"></path></g></g><g><g><g><g><g transform="matrix(1,0,0,1,677.6171875,68.7675)"><path transform="matrix(0.04233,0,0,-0.04233,0,0)" d="M146 266C146 526 243 632 301 700L282 726C225 675 60 542 60 266C60 159 85 58 133 -32C168 -99 200 -138 282 -215L301 -194C255 -137 146 -15 146 266Z" stroke="rgb(0,0,0)" stroke-opacity="1" stroke-width="8" fill="rgb(0,0,0)" fill-opacity="1"></path></g></g><g><g transform="matrix(1,0,0,1,691.671875,68.2675)"><path transform="matrix(0.04233,0,0,-0.04233,0,0)" d="M52 647L55 623C78 632 89 635 100 635C147 635 183 589 224 477C248 410 287 273 286 257C286 257 286 254 285 251L264 125C247 34 246 31 206 28L158 25L154 -3L207 -2C254 -1 277 0 293 0L390 -3L416 -3L419 25L370 28C343 30 334 37 334 57C334 63 335 73 336 78L362 246C371 301 436 419 510 512C568 586 610 616 669 626L675 697C602 678 549 636 474 536C413 452 374 384 346 310C271 616 223 704 131 705C128 702 90 672 67 658Z" stroke="rgb(0,0,0)" stroke-opacity="1" stroke-width="8" fill="rgb(0,0,0)" fill-opacity="1"></path></g></g><g><g transform="matrix(1,0,0,1,719.8671875,68.7675)"><path transform="matrix(0.04233,0,0,-0.04233,0,0)" d="M51 726L32 700C87 636 187 526 187 266C187 -10 83 -131 32 -194L51 -215C104 -165 273 -23 273 265C273 542 108 675 51 726Z" stroke="rgb(0,0,0)" stroke-opacity="1" stroke-width="8" fill="rgb(0,0,0)" fill-opacity="1"></path></g></g></g></g><g><g><g><g transform="matrix(1,0,0,1,692.8515625,131.84562499999998)"><path transform="matrix(0.04233,0,0,-0.04233,0,0)" d="M221 334L338 334L470 330L489 375L485 382C404 378 344 376 266 376L229 376L276 646C308 647 391 650 413 650C475 650 516 641 517 626L525 537L549 537C552 601 559 651 570 689C549 691 519 692 501 692C498 692 487 692 463 691L343 690C334 689 160 691 150 691L105 692L102 664L156 662C180 661 191 653 191 635C191 621 187 589 182 559L95 55C91 37 79 30 35 23L30 -3L71 -2C102 -1 164 0 184 0L409 -3C423 -3 448 -2 481 -1L514 0L518 36C520 56 525 86 534 135L539 161L512 161L496 101C486 65 477 53 455 48C435 44 362 39 308 39C267 39 240 40 171 46Z" stroke="rgb(0,0,0)" stroke-opacity="1" stroke-width="8" fill="rgb(0,0,0)" fill-opacity="1"></path></g></g></g></g><line style="fill:none;stroke-width:2px;stroke:rgb(0, 0, 0);" x1="677.6171875" y1="87.6484375" x2="733.921875" y2="87.6484375"></line></g><g><g transform="matrix(1,0,0,1,738.1484375,98.0565625)"><path transform="matrix(0.04233,0,0,-0.04233,0,0)" d="" stroke="rgb(0,0,0)" stroke-opacity="1" stroke-width="8" fill="rgb(0,0,0)" fill-opacity="1"></path></g></g><g><g transform="matrix(1,0,0,1,748.6953125,98.0565625)"><path transform="matrix(0.04233,0,0,-0.04233,0,0)" d="M204 123C177 114 159 108 106 93C99 17 74 -48 16 -144L30 -155L71 -136C152 -31 190 32 218 109Z" stroke="rgb(0,0,0)" stroke-opacity="1" stroke-width="8" fill="rgb(0,0,0)" fill-opacity="1"></path></g></g><g><g transform="matrix(1,0,0,1,767.703125,98.0565625)"><path transform="matrix(0.04233,0,0,-0.04233,0,0)" d="M529 181L529 106C529 46 518 32 469 30L407 27L407 -3C540 0 540 0 564 0C588 0 588 0 721 -3L721 27L673 30C624 33 613 46 613 106L613 181C672 181 693 180 721 177L721 248L613 245L614 697L534 667L251 204L251 181ZM529 245L314 245L529 597ZM872 111C842 111 815 83 815 53C815 23 842 -5 871 -5C903 -5 931 22 931 53C931 83 903 111 872 111ZM1260 689C1105 689 1026 566 1026 324C1026 207 1047 106 1082 57C1117 8 1173 -20 1235 -20C1386 -20 1462 110 1462 366C1462 585 1397 689 1260 689ZM1242 654C1339 654 1378 556 1378 316C1378 103 1340 15 1248 15C1151 15 1110 116 1110 360C1110 571 1147 654 1242 654Z" stroke="rgb(0,0,0)" stroke-opacity="1" stroke-width="8" fill="rgb(0,0,0)" fill-opacity="1"></path></g></g><g><svg x="841.5703125" overflow="visible" y="24.2265625" height="117" width="19.046875"><path d=" M 3.91 4.23 l 0.25 -0.25 q 2.71 0.08 5.38 0.08 q 2.54 0.00 5.33 -0.08 l 0.38 0.55 q -0.38 1.44 -0.38 7.83 v 2.12 h -3.56 v -2.12 q 0.00 -3.26 -0.17 -5.33 q -0.13 -1.48 -2.96 -1.48 h -4.11 l -0.17 -0.21 v -1.10 z  M 14.88 14.01 v 88.98 h -3.56 v -88.98 z" style="fill:rgb(0,0,0);fill-opacity:1;stroke-width:1px;stroke:none;stroke-opacity:1;"></path><path d=" M 3.91 112.77 l 0.25 0.25 q 2.71 -0.08 5.38 -0.08 q 2.54 0.00 5.33 0.08 l 0.38 -0.55 q -0.38 -1.44 -0.38 -7.83 v -2.12 h -3.56 v 2.12 q 0.00 3.26 -0.17 5.33 q -0.13 1.48 -2.96 1.48 h -4.11 l -0.17 0.21 v 1.10 z" style="fill:rgb(0,0,0);fill-opacity:1;stroke-width:1px;stroke:none;stroke-opacity:1;"></path></svg></g></g></g></svg>