<svg xmlns="http://www.w3.org/2000/svg" xmlns:xlink="http://www.w3.org/1999/xlink" width="557.1171875" height="165.453125" style="width:557.1171875px;height:165.453125px;font-family:Asana-Math, Asana;background:transparent;"><g><g><g><g transform="matrix(1,0,0,1,20,98.0565625)"><path transform="matrix(0.04233,0,0,-0.04233,0,0)" d="M108 471C108 386 146 339 230 319L325 296C379 283 406 248 406 191C406 96 335 30 232 30C178 30 140 42 96 73L96 172L66 172C60 117 53 72 42 20C91 -5 144 -18 197 -18C352 -18 485 99 485 234C485 313 442 355 341 377L276 391C210 405 180 442 180 508C180 595 247 658 339 658C388 658 421 645 451 613L451 537L481 537C485 591 492 629 506 672C461 696 421 706 374 706C250 706 108 614 108 471Z" stroke="rgb(0,0,0)" stroke-opacity="1" stroke-width="8" fill="rgb(0,0,0)" fill-opacity="1"></path></g></g><g><g><g><g><g transform="matrix(1,0,0,1,44.765625,106.0294375)"><path transform="matrix(0.029631,0,0,-0.029631,0,0)" d="M34 388L41 368L73 389C110 412 113 414 120 414C130 414 138 404 138 391C138 384 134 361 130 347L64 107C56 76 51 49 51 30C51 6 62 -9 81 -9C107 -9 143 12 241 85L231 103L205 86C176 67 153 56 144 56C137 56 131 66 131 76C131 86 133 95 138 116L215 420C219 437 221 448 221 456C221 473 212 482 196 482C174 482 137 461 62 408ZM228 712C199 712 170 679 170 645C170 620 185 604 209 604C240 604 264 633 264 671C264 695 249 712 228 712Z" stroke="rgb(0,0,0)" stroke-opacity="1" stroke-width="8" fill="rgb(0,0,0)" fill-opacity="1"></path></g></g></g></g></g><g><g transform="matrix(1,0,0,1,55.515625,98.0565625)"><path transform="matrix(0.04233,0,0,-0.04233,0,0)" d="" stroke="rgb(0,0,0)" stroke-opacity="1" stroke-width="8" fill="rgb(0,0,0)" fill-opacity="1"></path></g></g><g><g transform="matrix(1,0,0,1,78.7578125,98.0565625)"><path transform="matrix(0.04233,0,0,-0.04233,0,0)" d="M604 347L604 406L65 406L65 347ZM604 134L604 193L65 193L65 134Z" stroke="rgb(0,0,0)" stroke-opacity="1" stroke-width="8" fill="rgb(0,0,0)" fill-opacity="1"></path></g></g><g><g transform="matrix(1,0,0,1,119.734375,98.0565625)"><path transform="matrix(0.04233,0,0,-0.04233,0,0)" d="M1044 664L1047 692L1031 692L940 689C925 689 904 689 860 690L797 692L794 664L842 662C866 661 877 653 877 634C877 629 877 626 876 622L805 177C757 119 727 93 676 68C638 48 601 39 563 39C478 39 424 84 424 154C424 171 426 187 431 215L519 692L488 691C461 690 441 689 430 689C420 689 400 690 372 691L340 692L337 664L389 662C415 661 423 656 423 639C423 630 420 602 416 581L352 206C348 185 346 160 346 144C346 43 413 -19 525 -19C569 -19 610 -9 658 15C717 44 749 69 801 129C793 83 787 57 774 2L779 -3L801 -3L863 0C867 0 889 -1 921 -2L953 -3L958 25L898 29C875 31 866 37 866 50C866 65 867 70 872 106L957 613C963 651 970 657 1008 661Z" stroke="rgb(0,0,0)" stroke-opacity="1" stroke-width="8" fill="rgb(0,0,0)" fill-opacity="1"></path></g></g><g><g><g><g><g transform="matrix(1,0,0,1,164.4375,106.0294375)"><path transform="matrix(0.029631,0,0,-0.029631,0,0)" d="M34 388L41 368L73 389C110 412 113 414 120 414C130 414 138 404 138 391C138 384 134 361 130 347L64 107C56 76 51 49 51 30C51 6 62 -9 81 -9C107 -9 143 12 241 85L231 103L205 86C176 67 153 56 144 56C137 56 131 66 131 76C131 86 133 95 138 116L215 420C219 437 221 448 221 456C221 473 212 482 196 482C174 482 137 461 62 408ZM228 712C199 712 170 679 170 645C170 620 185 604 209 604C240 604 264 633 264 671C264 695 249 712 228 712Z" stroke="rgb(0,0,0)" stroke-opacity="1" stroke-width="8" fill="rgb(0,0,0)" fill-opacity="1"></path></g></g></g></g></g><g><g transform="matrix(1,0,0,1,175.1875,98.0565625)"><path transform="matrix(0.04233,0,0,-0.04233,0,0)" d="" stroke="rgb(0,0,0)" stroke-opacity="1" stroke-width="8" fill="rgb(0,0,0)" fill-opacity="1"></path></g></g><g><g transform="matrix(1,0,0,1,194.1953125,98.0565625)"><path transform="matrix(0.04233,0,0,-0.04233,0,0)" d="M555 243L555 299L51 299L51 243Z" stroke="rgb(0,0,0)" stroke-opacity="1" stroke-width="8" fill="rgb(0,0,0)" fill-opacity="1"></path></g></g><g><g transform="matrix(1,0,0,1,228.2734375,98.0565625)"><path transform="matrix(0.04233,0,0,-0.04233,0,0)" d="" stroke="rgb(0,0,0)" stroke-opacity="1" stroke-width="8" fill="rgb(0,0,0)" fill-opacity="1"></path></g></g><g><svg x="241.78125" overflow="visible" y="24.2265625" height="117" width="21.1640625"><path d=" M 15.62 4.23 c 0.00 -0.14 -0.10 -0.20 -0.21 -0.20 c -0.07 0.00 -0.14 0.03 -0.21 0.06 c -6.34 3.33 -11.57 9.28 -11.57 23.39 v 1.50 h 3.81 v -1.50 c 0.00 -8.04 1.59 -17.50 8.24 -22.55 c 0.31 -0.23 0.31 -0.48 0.31 -0.71 z   M 3.58 28.98 v 59.04 h 3.81 v -59.04 z" style="fill:rgb(0,0,0);fill-opacity:1;stroke-width:1px;stroke:none;stroke-opacity:1;"></path><path d=" M 15.62 112.77 c 0.00 0.14 -0.10 0.20 -0.21 0.20 c -0.07 0.00 -0.14 -0.03 -0.21 -0.06 c -6.34 -3.33 -11.57 -9.28 -11.57 -23.39 v -1.50 h 3.81 v 1.50 c 0.00 8.04 1.59 17.50 8.24 22.55 c 0.31 0.23 0.31 0.48 0.31 0.71 z" style="fill:rgb(0,0,0);fill-opacity:1;stroke-width:1px;stroke:none;stroke-opacity:1;"></path></svg></g><g><g><g><g><g transform="matrix(1,0,0,1,262.9453125,68.2675)"><path transform="matrix(0.04233,0,0,-0.04233,0,0)" d="M418 -3L418 27L366 30C311 33 301 44 301 96L301 700L60 598L67 548L217 614L217 96C217 44 206 33 152 30L96 27L96 -3C250 0 250 0 261 0C292 0 402 -3 418 -3Z" stroke="rgb(0,0,0)" stroke-opacity="1" stroke-width="8" fill="rgb(0,0,0)" fill-opacity="1"></path></g></g></g></g><g><g><g><g transform="matrix(1,0,0,1,262.9453125,131.84562499999998)"><path transform="matrix(0.04233,0,0,-0.04233,0,0)" d="M16 23L16 -3C203 -3 203 0 239 0C275 0 275 -3 468 -3L468 82C353 77 307 81 122 77L304 270C401 373 431 428 431 503C431 618 353 689 226 689C154 689 105 669 56 619L39 483L68 483L81 529C97 587 133 612 200 612C286 612 341 558 341 473C341 398 299 324 186 204Z" stroke="rgb(0,0,0)" stroke-opacity="1" stroke-width="8" fill="rgb(0,0,0)" fill-opacity="1"></path></g></g></g></g><line style="fill:none;stroke-width:2px;stroke:rgb(0, 0, 0);" x1="262.9453125" y1="87.6484375" x2="284.0703125" y2="87.6484375"></line></g><g><g transform="matrix(1,0,0,1,288.296875,98.0565625)"><path transform="matrix(0.04233,0,0,-0.04233,0,0)" d="M795 664L798 692L782 692L691 689C676 689 655 689 611 690L548 692L545 664L593 662C617 661 628 653 628 634C628 629 628 626 627 622L556 177C508 119 478 93 427 68C389 48 352 39 314 39C229 39 175 84 175 154C175 171 177 187 182 215L270 692L239 691C212 690 192 689 181 689C171 689 151 690 123 691L91 692L88 664L140 662C166 661 174 656 174 639C174 630 171 602 167 581L103 206C99 185 97 160 97 144C97 43 164 -19 276 -19C320 -19 361 -9 409 15C468 44 500 69 552 129C544 83 538 57 525 2L530 -3L552 -3L614 0C618 0 640 -1 672 -2L704 -3L709 25L649 29C626 31 617 37 617 50C617 65 618 70 623 106L708 613C714 651 721 657 759 661Z" stroke="rgb(0,0,0)" stroke-opacity="1" stroke-width="8" fill="rgb(0,0,0)" fill-opacity="1"></path></g></g><g><g><g><g><g transform="matrix(1,0,0,1,322.453125,106.0294375)"><path transform="matrix(0.029631,0,0,-0.029631,0,0)" d="M34 388L41 368L73 389C110 412 113 414 120 414C130 414 138 404 138 391C138 384 134 361 130 347L64 107C56 76 51 49 51 30C51 6 62 -9 81 -9C107 -9 143 12 241 85L231 103L205 86C176 67 153 56 144 56C137 56 131 66 131 76C131 86 133 95 138 116L215 420C219 437 221 448 221 456C221 473 212 482 196 482C174 482 137 461 62 408ZM228 712C199 712 170 679 170 645C170 620 185 604 209 604C240 604 264 633 264 671C264 695 249 712 228 712ZM832 243L832 299L328 299L328 243ZM1300 -3L1300 27L1248 30C1193 33 1183 44 1183 96L1183 700L942 598L949 548L1099 614L1099 96C1099 44 1088 33 1034 30L978 27L978 -3C1132 0 1132 0 1143 0C1174 0 1284 -3 1300 -3Z" stroke="rgb(0,0,0)" stroke-opacity="1" stroke-width="8" fill="rgb(0,0,0)" fill-opacity="1"></path></g></g></g></g></g><g><g transform="matrix(1,0,0,1,374.375,98.0565625)"><path transform="matrix(0.04233,0,0,-0.04233,0,0)" d="M604 241L604 300L364 300L364 538L305 538L305 300L65 300L65 241L305 241L305 0L364 0L364 241Z" stroke="rgb(0,0,0)" stroke-opacity="1" stroke-width="8" fill="rgb(0,0,0)" fill-opacity="1"></path></g></g><g><g><g><g><g transform="matrix(1,0,0,1,415.34375,68.2675)"><path transform="matrix(0.04233,0,0,-0.04233,0,0)" d="M418 -3L418 27L366 30C311 33 301 44 301 96L301 700L60 598L67 548L217 614L217 96C217 44 206 33 152 30L96 27L96 -3C250 0 250 0 261 0C292 0 402 -3 418 -3Z" stroke="rgb(0,0,0)" stroke-opacity="1" stroke-width="8" fill="rgb(0,0,0)" fill-opacity="1"></path></g></g></g></g><g><g><g><g transform="matrix(1,0,0,1,415.34375,131.84562499999998)"><path transform="matrix(0.04233,0,0,-0.04233,0,0)" d="M16 23L16 -3C203 -3 203 0 239 0C275 0 275 -3 468 -3L468 82C353 77 307 81 122 77L304 270C401 373 431 428 431 503C431 618 353 689 226 689C154 689 105 669 56 619L39 483L68 483L81 529C97 587 133 612 200 612C286 612 341 558 341 473C341 398 299 324 186 204Z" stroke="rgb(0,0,0)" stroke-opacity="1" stroke-width="8" fill="rgb(0,0,0)" fill-opacity="1"></path></g></g></g></g><line style="fill:none;stroke-width:2px;stroke:rgb(0, 0, 0);" x1="415.34375" y1="87.6484375" x2="436.46875" y2="87.6484375"></line></g><g><g transform="matrix(1,0,0,1,440.6953125,98.0565625)"><path transform="matrix(0.04233,0,0,-0.04233,0,0)" d="M795 664L798 692L782 692L691 689C676 689 655 689 611 690L548 692L545 664L593 662C617 661 628 653 628 634C628 629 628 626 627 622L556 177C508 119 478 93 427 68C389 48 352 39 314 39C229 39 175 84 175 154C175 171 177 187 182 215L270 692L239 691C212 690 192 689 181 689C171 689 151 690 123 691L91 692L88 664L140 662C166 661 174 656 174 639C174 630 171 602 167 581L103 206C99 185 97 160 97 144C97 43 164 -19 276 -19C320 -19 361 -9 409 15C468 44 500 69 552 129C544 83 538 57 525 2L530 -3L552 -3L614 0C618 0 640 -1 672 -2L704 -3L709 25L649 29C626 31 617 37 617 50C617 65 618 70 623 106L708 613C714 651 721 657 759 661Z" stroke="rgb(0,0,0)" stroke-opacity="1" stroke-width="8" fill="rgb(0,0,0)" fill-opacity="1"></path></g></g><g><g><g><g><g transform="matrix(1,0,0,1,474.8515625,106.0294375)"><path transform="matrix(0.029631,0,0,-0.029631,0,0)" d="M34 388L41 368L73 389C110 412 113 414 120 414C130 414 138 404 138 391C138 384 134 361 130 347L64 107C56 76 51 49 51 30C51 6 62 -9 81 -9C107 -9 143 12 241 85L231 103L205 86C176 67 153 56 144 56C137 56 131 66 131 76C131 86 133 95 138 116L215 420C219 437 221 448 221 456C221 473 212 482 196 482C174 482 137 461 62 408ZM228 712C199 712 170 679 170 645C170 620 185 604 209 604C240 604 264 633 264 671C264 695 249 712 228 712ZM881 241L881 300L641 300L641 538L582 538L582 300L342 300L342 241L582 241L582 0L641 0L641 241ZM1363 -3L1363 27L1311 30C1256 33 1246 44 1246 96L1246 700L1005 598L1012 548L1162 614L1162 96C1162 44 1151 33 1097 30L1041 27L1041 -3C1195 0 1195 0 1206 0C1237 0 1347 -3 1363 -3Z" stroke="rgb(0,0,0)" stroke-opacity="1" stroke-width="8" fill="rgb(0,0,0)" fill-opacity="1"></path></g></g></g></g></g><g><svg x="515.953125" overflow="visible" y="24.2265625" height="117" width="21.1640625"><path d=" M 4.35 4.23 c 0.00 -0.14 0.10 -0.20 0.21 -0.20 c 0.07 0.00 0.14 0.03 0.21 0.06 c 6.34 3.33 11.57 9.28 11.57 23.39 v 1.50 h -3.81 v -1.50 c 0.00 -8.04 -1.59 -17.50 -8.24 -22.55 c -0.31 -0.23 -0.31 -0.48 -0.31 -0.71 z  M 16.39 28.98 v 59.04 h -3.81 v -59.04 z" style="fill:rgb(0,0,0);fill-opacity:1;stroke-width:1px;stroke:none;stroke-opacity:1;"></path><path d=" M 4.35 112.77 c 0.00 0.14 0.10 0.20 0.21 0.20 c 0.07 0.00 0.14 -0.03 0.21 -0.06 c 6.34 -3.33 11.57 -9.28 11.57 -23.39 v -1.50 h -3.81 v 1.50 c 0.00 8.04 -1.59 17.50 -8.24 22.55 c -0.31 0.23 -0.31 0.48 -0.31 0.71 z" style="fill:rgb(0,0,0);fill-opacity:1;stroke-width:1px;stroke:none;stroke-opacity:1;"></path></svg></g></g></g></svg>